font.ufo
<glyph name="numbersign" format="2">
	<unicode hex="0023"/>
	<advance width="600"/>
	<outline>
		<contour>
			<point x="88" y="0" type="line"/>
			<point x="122" y="0" type="line"/>
			<point x="325" y="650" type="line"/>
			<point x="291" y="650" type="line"/>
		</contour>
		<contour>
			<point x="282" y="0" type="line"/>
			<point x="317" y="0" type="line"/>
			<point x="518" y="650" type="line"/>
			<point x="484" y="650" type="line"/>
		</contour>
		<contour>
			<point x="134" y="421" type="line"/>
			<point x="530" y="421" type="line"/>
			<point x="539" y="456" type="line"/>
			<point x="144" y="456" type="line"/>
		</contour>
		<contour>
			<point x="74" y="214" type="line"/>
			<point x="470" y="214" type="line"/>
			<point x="480" y="249" type="line"/>
			<point x="84" y="249" type="line"/>
		</contour>
	</outline>
</glyph>
<glyph name="dollar" format="1">
	<unicode hex="0024"/>
	<advance width="600"/>
	<outline>
		<contour>
			<point x="275" y="34" type="curve" smooth="yes"/>
			<point x="375" y="34"/>
			<point x="472" y="77"/>
			<point x="472" y="189" type="curve" smooth="yes"/>
			<point x="472" y="274"/>
			<point x="402" y="311"/>
			<point x="317" y="353" type="curve" smooth="yes"/>
			<point x="231" y="396"/>
			<point x="196" y="428"/>
			<point x="196" y="483" type="curve" smooth="yes"/>
			<point x="196" y="548"/>
			<point x="252" y="582"/>
			<point x="329" y="582" type="curve" smooth="yes"/>
			<point x="397" y="582"/>
			<point x="453" y="542"/>
			<point x="486" y="499" type="curve"/>
			<point x="515" y="522" type="line"/>
			<point x="485" y="566"/>
			<point x="413" y="618"/>
			<point x="332" y="618" type="curve" smooth="yes"/>
			<point x="233" y="618"/>
			<point x="155" y="576"/>
			<point x="155" y="476" type="curve" smooth="yes"/>
			<point x="155" y="401"/>
			<point x="205" y="363"/>
			<point x="293" y="318" type="curve" smooth="yes"/>
			<point x="375" y="277"/>
			<point x="431" y="249"/>
			<point x="431" y="184" type="curve" smooth="yes"/>
			<point x="431" y="109"/>
			<point x="365" y="70"/>
			<point x="278" y="70" type="curve" smooth="yes"/>
			<point x="182" y="70"/>
			<point x="125" y="120"/>
			<point x="93" y="159" type="curve"/>
			<point x="63" y="133" type="line"/>
			<point x="102" y="88"/>
			<point x="171" y="34"/>
		</contour>
		<contour>
			<point x="334" y="598" type="line"/>
			<point x="369" y="598" type="line"/>
			<point x="400" y="750" type="line"/>
			<point x="365" y="750" type="line"/>
		</contour>
		<contour>
			<point x="202" y="-110" type="line"/>
			<point x="238" y="-110" type="line"/>
			<point x="268" y="43" type="line"/>
			<point x="232" y="43" type="line"/>
		</contour>
	</outline>
</glyph>
<glyph name="quotesingle" format="1">
	<unicode hex="0027"/>
	<advance width="600"/>
	<outline>
		<contour>
			<point x="298" y="384" type="line"/>
			<point x="331" y="384" type="line"/>
			<point x="395" y="601" type="line"/>
			<point x="412" y="688" type="line"/>
			<point x="341" y="688" type="line"/>
			<point x="322" y="601" type="line"/>
		</contour>
	</outline>
</glyph>
<glyph name="parenleft" format="1">
	<unicode hex="0028"/>
	<advance width="600"/>
	<outline>
		<contour>
			<point x="365" y="-175" type="curve"/>
			<point x="394" y="-146" type="line"/>
			<point x="297" y="-61"/>
			<point x="252" y="52"/>
			<point x="252" y="184" type="curve" smooth="yes"/>
			<point x="252" y="389"/>
			<point x="349" y="568"/>
			<point x="564" y="700" type="curve"/>
			<point x="545" y="730" type="line"/>
			<point x="338" y="610"/>
			<point x="210" y="419"/>
			<point x="210" y="182" type="curve" smooth="yes"/>
			<point x="210" y="35"/>
			<point x="267" y="-93"/>
		</contour>
	</outline>
</glyph>
<glyph name="parenright" format="2">
	<unicode hex="0029"/>
	<advance width="600"/>
	<outline>
		<contour>
			<point x="56" y="-184" type="line"/>
			<point x="263" y="-64"/>
			<point x="387" y="127"/>
			<point x="387" y="364" type="curve" smooth="yes"/>
			<point x="387" y="511"/>
			<point x="328" y="639"/>
			<point x="231" y="720" type="curve"/>
			<point x="204" y="694" type="line"/>
			<point x="302" y="606"/>
			<point x="345" y="498"/>
			<point x="345" y="362" type="curve" smooth="yes"/>
			<point x="345" y="157"/>
			<point x="254" y="-20"/>
			<point x="36" y="-154" type="curve"/>
		</contour>
	</outline>
</glyph>
<glyph name="asterisk" format="2">
	<unicode hex="002A"/>
	<advance width="600"/>
	<outline>
		<contour>
			<point x="144" y="130" type="line"/>
			<point x="297" y="287" type="line"/>
			<point x="393" y="123" type="line"/>
			<point x="422" y="140" type="line"/>
			<point x="339" y="312" type="line"/>
			<point x="518" y="388" type="line"/>
			<point x="509" y="415" type="line"/>
			<point x="332" y="355" type="line"/>
			<point x="360" y="547" type="line"/>
			<point x="329" y="547" type="line"/>
			<point x="284" y="358" type="line"/>
			<point x="128" y="415" type="line"/>
			<point x="113" y="388" type="line"/>
			<point x="259" y="317" type="line"/>
			<point x="120" y="150" type="line"/>
		</contour>
	</outline>
</glyph>
<glyph name="comma" format="1">
	<unicode hex="002C"/>
	<advance width="600"/>
	<outline>
		<contour>
			<point x="105" y="-202" type="line"/>
			<point x="230" y="-168"/>
			<point x="322" y="-75"/>
			<point x="322" y="45" type="curve" smooth="yes"/>
			<point x="322" y="92"/>
			<point x="303" y="118"/>
			<point x="269" y="118" type="curve" smooth="yes"/>
			<point x="231" y="118"/>
			<point x="200" y="86"/>
			<point x="200" y="47" type="curve" smooth="yes"/>
			<point x="200" y="16"/>
			<point x="219" y="-4"/>
			<point x="248" y="-4" type="curve" smooth="yes"/>
			<point x="263" y="-4"/>
			<point x="284" y="2"/>
			<point x="294" y="15" type="curve"/>
			<point x="271" y="33" type="line"/>
			<point x="266" y="3" type="line"/>
			<point x="256" y="-75"/>
			<point x="194" y="-143"/>
			<point x="97" y="-171" type="curve"/>
		</contour>
	</outline>
</glyph>
<glyph name="period" format="1">
	<unicode hex="002E"/>
	<advance width="600"/>
	<outline>
		<contour>
			<point x="238" y="-12" type="curve" smooth="yes"/>
			<point x="275" y="-12"/>
			<point x="308" y="25"/>
			<point x="308" y="63" type="curve" smooth="yes"/>
			<point x="308" y="94"/>
			<point x="290" y="115"/>
			<point x="260" y="115" type="curve" smooth="yes"/>
			<point x="223" y="115"/>
			<point x="191" y="78"/>
			<point x="191" y="40" type="curve" smooth="yes"/>
			<point x="191" y="9"/>
			<point x="209" y="-12"/>
		</contour>
	</outline>
</glyph>
<glyph name="zero" format="2">
	<unicode hex="0030"/>
	<advance width="600"/>
	<outline>
		<contour>
			<point x="252" y="-12" type="curve" smooth="yes"/>
			<point x="437" y="-12"/>
			<point x="532" y="221"/>
			<point x="532" y="406" type="curve" smooth="yes"/>
			<point x="532" y="552"/>
			<point x="469" y="651"/>
			<point x="350" y="651" type="curve" smooth="yes"/>
			<point x="166" y="651"/>
			<point x="70" y="417"/>
			<point x="70" y="231" type="curve" smooth="yes"/>
			<point x="70" y="86"/>
			<point x="133" y="-12"/>
		</contour>
		<contour>
			<point x="256" y="24" type="curve" smooth="yes"/>
			<point x="156" y="24"/>
			<point x="110" y="108"/>
			<point x="110" y="238" type="curve" smooth="yes"/>
			<point x="110" y="393"/>
			<point x="193" y="616"/>
			<point x="347" y="616" type="curve" smooth="yes"/>
			<point x="446" y="616"/>
			<point x="492" y="530"/>
			<point x="492" y="400" type="curve" smooth="yes"/>
			<point x="492" y="245"/>
			<point x="409" y="24"/>
		</contour>
		<contour>
			<point x="297" y="266" type="curve" smooth="yes"/>
			<point x="327" y="266"/>
			<point x="356" y="299"/>
			<point x="356" y="338" type="curve" smooth="yes"/>
			<point x="356" y="371"/>
			<point x="337" y="391"/>
			<point x="309" y="391" type="curve" smooth="yes"/>
			<point x="279" y="391"/>
			<point x="250" y="358"/>
			<point x="250" y="319" type="curve" smooth="yes"/>
			<point x="250" y="286"/>
			<point x="269" y="266"/>
		</contour>
	</outline>
</glyph>
<glyph name="one" format="1">
	<unicode hex="0031"/>
	<advance width="600"/>
	<outline>
		<contour>
			<point x="50" y="0" type="line"/>
			<point x="466" y="0" type="line"/>
			<point x="472" y="36" type="line"/>
			<point x="289" y="36" type="line"/>
			<point x="411" y="639" type="line"/>
			<point x="377" y="639" type="line"/>
			<point x="341" y="620"/>
			<point x="282" y="606"/>
			<point x="219" y="599" type="curve"/>
			<point x="214" y="571" type="line"/>
			<point x="355" y="571" type="line"/>
			<point x="248" y="36" type="line"/>
			<point x="58" y="36" type="line"/>
		</contour>
	</outline>
</glyph>
<glyph name="seven" format="1">
	<unicode hex="0037"/>
	<advance width="600"/>
	<outline>
		<contour>
			<point x="169" y="0" type="curve"/>
			<point x="218" y="0" type="line"/>
			<point x="281" y="263"/>
			<point x="355" y="410"/>
			<point x="567" y="612" type="curve"/>
			<point x="572" y="639" type="line"/>
			<point x="130" y="639" type="line"/>
			<point x="123" y="603" type="line"/>
			<point x="522" y="603" type="line"/>
			<point x="515" y="607" type="line"/>
			<point x="324" y="425"/>
			<point x="237" y="275"/>
		</contour>
	</outline>
</glyph>
<glyph name="nine" format="2">
	<unicode hex="0039"/>
	<advance width="600"/>
	<outline>
		<contour>
			<point x="215" y="-12" type="curve" smooth="yes"/>
			<point x="370" y="-12"/>
			<point x="530" y="125"/>
			<point x="530" y="420" type="curve" smooth="yes"/>
			<point x="530" y="563"/>
			<point x="446" y="651"/>
			<point x="329" y="651" type="curve" smooth="yes"/>
			<point x="200" y="651"/>
			<point x="101" y="549"/>
			<point x="101" y="414" type="curve" smooth="yes"/>
			<point x="101" y="294"/>
			<point x="182" y="245"/>
			<point x="268" y="245" type="curve" smooth="yes"/>
			<point x="366" y="245"/>
			<point x="448" y="301"/>
			<point x="496" y="368" type="curve"/>
			<point x="495" y="406" type="line"/>
			<point x="433" y="325"/>
			<point x="359" y="279"/>
			<point x="274" y="279" type="curve" smooth="yes"/>
			<point x="207" y="279"/>
			<point x="141" y="320"/>
			<point x="141" y="421" type="curve" smooth="yes"/>
			<point x="141" y="525"/>
			<point x="219" y="616"/>
			<point x="327" y="616" type="curve" smooth="yes"/>
			<point x="420" y="616"/>
			<point x="490" y="545"/>
			<point x="490" y="416" type="curve" smooth="yes"/>
			<point x="490" y="145"/>
			<point x="345" y="24"/>
			<point x="218" y="24" type="curve" smooth="yes"/>
			<point x="165" y="24"/>
			<point x="120" y="42"/>
			<point x="84" y="94" type="curve"/>
			<point x="54" y="71" type="line"/>
			<point x="88" y="18"/>
			<point x="146" y="-12"/>
		</contour>
	</outline>
</glyph>
<glyph name="greater" format="1">
	<unicode hex="003E"/>
	<advance width="600"/>
	<outline>
		<contour>
			<point x="112" y="59" type="line"/>
			<point x="477" y="313" type="line"/>
			<point x="477" y="351" type="line"/>
			<point x="112" y="606" type="line"/>
			<point x="112" y="560" type="line"/>
			<point x="437" y="334" type="line"/>
			<point x="437" y="330" type="line"/>
			<point x="112" y="105" type="line"/>
		</contour>
	</outline>
</glyph>
<glyph name="question" format="1">
	<unicode hex="003F"/>
	<advance width="600"/>
	<outline>
		<contour>
			<point x="233" y="219" type="curve"/>
			<point x="270" y="219" type="line"/>
			<point x="271" y="293"/>
			<point x="318" y="326"/>
			<point x="382" y="379" type="curve" smooth="yes"/>
			<point x="439" y="427"/>
			<point x="508" y="472"/>
			<point x="508" y="559" type="curve" smooth="yes"/>
			<point x="508" y="628"/>
			<point x="459" y="682"/>
			<point x="363" y="682" type="curve" smooth="yes"/>
			<point x="287" y="682"/>
			<point x="225" y="644"/>
			<point x="180" y="591" type="curve"/>
			<point x="206" y="569" type="line"/>
			<point x="247" y="617"/>
			<point x="293" y="646"/>
			<point x="358" y="646" type="curve" smooth="yes"/>
			<point x="434" y="646"/>
			<point x="467" y="603"/>
			<point x="467" y="550" type="curve" smooth="yes"/>
			<point x="467" y="485"/>
			<point x="413" y="449"/>
			<point x="356" y="403" type="curve" smooth="yes"/>
			<point x="296" y="352"/>
			<point x="234" y="304"/>
		</contour>
		<contour>
			<point x="218" y="-12" type="curve" smooth="yes"/>
			<point x="254" y="-12"/>
			<point x="285" y="24"/>
			<point x="285" y="61" type="curve" smooth="yes"/>
			<point x="285" y="92"/>
			<point x="267" y="112"/>
			<point x="239" y="112" type="curve" smooth="yes"/>
			<point x="203" y="112"/>
			<point x="171" y="76"/>
			<point x="171" y="38" type="curve" smooth="yes"/>
			<point x="171" y="8"/>
			<point x="189" y="-12"/>
		</contour>
	</outline>
</glyph>
<glyph name="A" format="2">
	<unicode hex="0041"/>
	<advance width="600"/>
	<outline>
		<contour>
			<point x="-12" y="0" type="line"/>
			<point x="34" y="0" type="line"/>
			<point x="250" y="394" type="line" smooth="yes"/>
			<point x="291" y="471"/>
			<point x="327" y="540"/>
			<point x="369" y="617" type="curve"/>
			<point x="374" y="617" type="line"/>
			<point x="383" y="544"/>
			<point x="391" y="464"/>
			<point x="401" y="391" type="curve" smooth="yes"/>
			<point x="448" y="0" type="line"/>
			<point x="492" y="0" type="line"/>
			<point x="403" y="659" type="line"/>
			<point x="357" y="659" type="line"/>
		</contour>
		<contour>
			<point x="146" y="229" type="line"/>
			<point x="435" y="229" type="line"/>
			<point x="439" y="264" type="line"/>
			<point x="156" y="264" type="line"/>
		</contour>
	</outline>
	<anchor name="aboveUC" x="374" y="679"/>
	<anchor name="baseLC" x="472" y="0"/>
	<anchor name="belowLC" x="250" y="-20"/>
	<anchor name="ogonekUC" x="455" y="0"/>
</glyph>
<glyph name="B" format="2">
	<unicode hex="0042"/>
	<advance width="600"/>
	<outline>
		<contour>
			<point x="50" y="0" type="line"/>
			<point x="245" y="0" type="line" smooth="yes"/>
			<point x="402" y="0"/>
			<point x="511" y="65"/>
			<point x="511" y="207" type="curve" smooth="yes"/>
			<point x="511" y="289"/>
			<point x="452" y="332"/>
			<point x="387" y="347" type="curve"/>
			<point x="387" y="351" type="line"/>
			<point x="452" y="362"/>
			<point x="536" y="419"/>
			<point x="536" y="516" type="curve" smooth="yes"/>
			<point x="536" y="606"/>
			<point x="473" y="659"/>
			<point x="342" y="659" type="curve" smooth="yes"/>
			<point x="182" y="659" type="line"/>
		</contour>
		<contour>
			<point x="166" y="368" type="line"/>
			<point x="218" y="622" type="line"/>
			<point x="325" y="622" type="line" smooth="yes"/>
			<point x="448" y="622"/>
			<point x="492" y="582"/>
			<point x="492" y="512" type="curve" smooth="yes"/>
			<point x="492" y="427"/>
			<point x="421" y="368"/>
			<point x="277" y="368" type="curve" smooth="yes"/>
		</contour>
		<contour>
			<point x="100" y="37" type="line"/>
			<point x="160" y="331" type="line"/>
			<point x="293" y="331" type="line" smooth="yes"/>
			<point x="405" y="331"/>
			<point x="469" y="278"/>
			<point x="469" y="204" type="curve" smooth="yes"/>
			<point x="469" y="82"/>
			<point x="373" y="37"/>
			<point x="230" y="37" type="curve" smooth="yes"/>
		</contour>
	</outline>
	<anchor name="aboveUC" x="374" y="679"/>
	<anchor name="belowLC" x="250" y="-20"/>
</glyph>
<glyph name="C" format="1">
	<unicode hex="0043"/>
	<advance width="600"/>
	<outline>
		<contour>
			<point x="306" y="-12" type="curve" smooth="yes"/>
			<point x="380" y="-12"/>
			<point x="435" y="16"/>
			<point x="489" y="61" type="curve"/>
			<point x="467" y="89" type="line"/>
			<point x="419" y="49"/>
			<point x="370" y="25"/>
			<point x="311" y="25" type="curve" smooth="yes"/>
			<point x="181" y="25"/>
			<point x="126" y="124"/>
			<point x="126" y="254" type="curve" smooth="yes"/>
			<point x="126" y="421"/>
			<point x="231" y="634"/>
			<point x="413" y="634" type="curve" smooth="yes"/>
			<point x="472" y="634"/>
			<point x="512" y="602"/>
			<point x="538" y="555" type="curve"/>
			<point x="571" y="578" type="line"/>
			<point x="540" y="629"/>
			<point x="490" y="671"/>
			<point x="416" y="671" type="curve" smooth="yes"/>
			<point x="208" y="671"/>
			<point x="82" y="444"/>
			<point x="82" y="248" type="curve" smooth="yes"/>
			<point x="82" y="99"/>
			<point x="157" y="-12"/>
		</contour>
		<contour>
			<point name="aboveUC" x="402" y="679" type="move"/>
		</contour>
		<contour>
			<point name="baseLC" x="291" y="0" type="move"/>
		</contour>
		<contour>
			<point name="belowLC" x="290" y="-20" type="move"/>
		</contour>
	</outline>
</glyph>
<glyph name="E" format="2">
	<unicode hex="0045"/>
	<advance width="600"/>
	<outline>
		<contour>
			<point x="73" y="0" type="line"/>
			<point x="472" y="0" type="line"/>
			<point x="480" y="37" type="line"/>
			<point x="122" y="37" type="line"/>
			<point x="183" y="331" type="line"/>
			<point x="472" y="331" type="line"/>
			<point x="480" y="368" type="line"/>
			<point x="189" y="368" type="line"/>
			<point x="240" y="622" type="line"/>
			<point x="588" y="622" type="line"/>
			<point x="596" y="659" type="line"/>
			<point x="205" y="659" type="line"/>
		</contour>
	</outline>
	<anchor name="aboveUC" x="415" y="679"/>
	<anchor name="baseLC" x="297" y="0"/>
	<anchor name="belowLC" x="287" y="-20"/>
	<anchor name="ogonekUC" x="406" y="0"/>
</glyph>
<glyph name="F" format="1">
	<unicode hex="0046"/>
	<advance width="600"/>
	<outline>
		<contour>
			<point x="93" y="0" type="line"/>
			<point x="136" y="0" type="line"/>
			<point x="200" y="318" type="line"/>
			<point x="484" y="318" type="line"/>
			<point x="492" y="355" type="line"/>
			<point x="206" y="355" type="line"/>
			<point x="259" y="622" type="line"/>
			<point x="602" y="622" type="line"/>
			<point x="610" y="659" type="line"/>
			<point x="225" y="659" type="line"/>
		</contour>
		<contour>
			<point name="aboveUC" x="427" y="679" type="move"/>
		</contour>
		<contour>
			<point name="baseLC" x="116" y="0" type="move"/>
		</contour>
		<contour>
			<point name="belowLC" x="121" y="-20" type="move"/>
		</contour>
	</outline>
</glyph>
<glyph name="H" format="2">
	<unicode hex="0048"/>
	<advance width="600"/>
	<outline>
		<contour>
			<point x="27" y="0" type="line"/>
			<point x="70" y="0" type="line"/>
			<point x="136" y="331" type="line"/>
			<point x="473" y="331" type="line"/>
			<point x="406" y="0" type="line"/>
			<point x="449" y="0" type="line"/>
			<point x="581" y="659" type="line"/>
			<point x="538" y="659" type="line"/>
			<point x="479" y="368" type="line"/>
			<point x="143" y="368" type="line"/>
			<point x="202" y="659" type="line"/>
			<point x="159" y="659" type="line"/>
		</contour>
	</outline>
	<anchor name="aboveUC" x="374" y="679"/>
	<anchor name="baseLC" x="50" y="0"/>
	<anchor name="belowLC" x="234" y="-20"/>
</glyph>
<glyph name="I" format="2">
	<unicode hex="0049"/>
	<advance width="600"/>
	<outline>
		<contour>
			<point x="46" y="0" type="line"/>
			<point x="428" y="0" type="line"/>
			<point x="436" y="37" type="line"/>
			<point x="265" y="37" type="line"/>
			<point x="382" y="622" type="line"/>
			<point x="554" y="622" type="line"/>
			<point x="562" y="659" type="line"/>
			<point x="178" y="659" type="line"/>
			<point x="170" y="622" type="line"/>
			<point x="339" y="622" type="line"/>
			<point x="222" y="37" type="line"/>
			<point x="54" y="37" type="line"/>
		</contour>
	</outline>
	<anchor name="aboveUC" x="374" y="679"/>
	<anchor name="baseLC" x="238" y="0"/>
	<anchor name="belowLC" x="234" y="-20"/>
	<anchor name="ogonekUC" x="238" y="0"/>
</glyph>
<glyph name="K" format="1">
	<unicode hex="004B"/>
	<advance width="600"/>
	<outline>
		<contour>
			<point x="605" y="659" type="line"/>
			<point x="553" y="659" type="line"/>
			<point x="163" y="292" type="line"/>
			<point x="159" y="292" type="line"/>
			<point x="233" y="659" type="line"/>
			<point x="190" y="659" type="line"/>
			<point x="58" y="0" type="line"/>
			<point x="101" y="0" type="line"/>
			<point x="147" y="229" type="line"/>
		</contour>
		<contour>
			<point x="288" y="375" type="line"/>
			<point x="464" y="0" type="line"/>
			<point x="511" y="0" type="line"/>
			<point x="319" y="404" type="line"/>
		</contour>
		<contour>
			<point name="aboveUC" x="389" y="679" type="move"/>
		</contour>
		<contour>
			<point name="belowLC" x="296" y="-20" type="move"/>
		</contour>
	</outline>
</glyph>
<glyph name="L" format="2">
	<unicode hex="004C"/>
	<advance width="600"/>
	<outline>
		<contour>
			<point x="119" y="0" type="line"/>
			<point x="506" y="0" type="line"/>
			<point x="514" y="37" type="line"/>
			<point x="170" y="37" type="line"/>
			<point x="293" y="659" type="line"/>
			<point x="250" y="659" type="line"/>
		</contour>
	</outline>
	<anchor name="aboveUC" x="279" y="679"/>
	<anchor name="baseLC" x="326" y="0"/>
	<anchor name="belowLC" x="316" y="-20"/>
	<anchor name="center" x="207" y="332"/>
</glyph>
<glyph name="M" format="2">
	<unicode hex="004D"/>
	<advance width="600"/>
	<outline>
		<contour>
			<point x="26" y="0" type="line"/>
			<point x="67" y="0" type="line"/>
			<point x="162" y="473" type="line" smooth="yes"/>
			<point x="170" y="512"/>
			<point x="177" y="565"/>
			<point x="184" y="610" type="curve"/>
			<point x="188" y="610" type="line"/>
			<point x="192" y="578"/>
			<point x="200" y="525"/>
			<point x="205" y="495" type="curve" smooth="yes"/>
			<point x="254" y="180" type="line"/>
			<point x="293" y="180" type="line"/>
			<point x="473" y="496" type="line" smooth="yes"/>
			<point x="496" y="536"/>
			<point x="518" y="579"/>
			<point x="533" y="610" type="curve"/>
			<point x="537" y="610" type="line"/>
			<point x="525" y="566"/>
			<point x="511" y="513"/>
			<point x="503" y="470" type="curve" smooth="yes"/>
			<point x="408" y="0" type="line"/>
			<point x="450" y="0" type="line"/>
			<point x="581" y="659" type="line"/>
			<point x="524" y="659" type="line"/>
			<point x="333" y="326" type="line"/>
			<point x="284" y="231" type="line"/>
			<point x="280" y="231" type="line"/>
			<point x="269" y="326" type="line"/>
			<point x="215" y="659" type="line"/>
			<point x="158" y="659" type="line"/>
		</contour>
	</outline>
	<anchor name="aboveUC" x="374" y="679"/>
	<anchor name="baseLC" x="429" y="0"/>
	<anchor name="belowLC" x="234" y="-20"/>
</glyph>
<glyph name="P" format="1">
	<unicode hex="0050"/>
	<advance width="600"/>
	<outline>
		<contour>
			<point x="65" y="0" type="line"/>
			<point x="108" y="0" type="line"/>
			<point x="165" y="286" type="line"/>
			<point x="286" y="286" type="line" smooth="yes"/>
			<point x="455" y="286"/>
			<point x="565" y="358"/>
			<point x="565" y="506" type="curve" smooth="yes"/>
			<point x="565" y="613"/>
			<point x="490" y="659"/>
			<point x="369" y="659" type="curve" smooth="yes"/>
			<point x="197" y="659" type="line"/>
		</contour>
		<contour>
			<point x="172" y="322" type="line"/>
			<point x="232" y="623" type="line"/>
			<point x="350" y="623" type="line" smooth="yes"/>
			<point x="463" y="623"/>
			<point x="522" y="588"/>
			<point x="522" y="502" type="curve" smooth="yes"/>
			<point x="522" y="383"/>
			<point x="440" y="322"/>
			<point x="282" y="322" type="curve" smooth="yes"/>
		</contour>
		<contour>
			<point name="aboveUC" x="381" y="679" type="move"/>
		</contour>
		<contour>
			<point name="belowLC" x="92" y="-20" type="move"/>
		</contour>
	</outline>
</glyph>
<glyph name="Q" format="2">
	<unicode hex="0051"/>
	<advance width="600"/>
	<outline>
		<contour>
			<point x="255" y="-12" type="curve" smooth="yes"/>
			<point x="451" y="-12"/>
			<point x="562" y="216"/>
			<point x="562" y="416" type="curve" smooth="yes"/>
			<point x="562" y="566"/>
			<point x="487" y="671"/>
			<point x="354" y="671" type="curve" smooth="yes"/>
			<point x="159" y="671"/>
			<point x="48" y="443"/>
			<point x="48" y="243" type="curve" smooth="yes"/>
			<point x="48" y="93"/>
			<point x="123" y="-12"/>
		</contour>
		<contour>
			<point x="259" y="23" type="curve" smooth="yes"/>
			<point x="146" y="23"/>
			<point x="91" y="112"/>
			<point x="91" y="245" type="curve" smooth="yes"/>
			<point x="91" y="418"/>
			<point x="184" y="634"/>
			<point x="351" y="634" type="curve" smooth="yes"/>
			<point x="464" y="634"/>
			<point x="519" y="544"/>
			<point x="519" y="414" type="curve" smooth="yes"/>
			<point x="519" y="238"/>
			<point x="426" y="23"/>
		</contour>
		<contour>
			<point x="393" y="-154" type="curve" smooth="yes"/>
			<point x="428" y="-154"/>
			<point x="461" y="-147"/>
			<point x="487" y="-137" type="curve"/>
			<point x="477" y="-102" type="line"/>
			<point x="456" y="-112"/>
			<point x="430" y="-116"/>
			<point x="397" y="-116" type="curve" smooth="yes"/>
			<point x="324" y="-116"/>
			<point x="271" y="-73"/>
			<point x="261" y="3" type="curve"/>
			<point x="218" y="9" type="line"/>
			<point x="232" y="-104"/>
			<point x="304" y="-154"/>
		</contour>
	</outline>
	<anchor name="aboveUC" x="374" y="679"/>
</glyph>
<glyph name="R" format="1">
	<unicode hex="0052"/>
	<advance width="600"/>
	<outline>
		<contour>
			<point x="46" y="0" type="line"/>
			<point x="89" y="0" type="line"/>
			<point x="149" y="301" type="line"/>
			<point x="284" y="301" type="line" smooth="yes"/>
			<point x="426" y="301"/>
			<point x="537" y="381"/>
			<point x="537" y="513" type="curve" smooth="yes"/>
			<point x="537" y="617"/>
			<point x="462" y="659"/>
			<point x="342" y="659" type="curve" smooth="yes"/>
			<point x="178" y="659" type="line"/>
		</contour>
		<contour>
			<point x="157" y="337" type="line"/>
			<point x="213" y="623" type="line"/>
			<point x="324" y="623" type="line" smooth="yes"/>
			<point x="437" y="623"/>
			<point x="494" y="592"/>
			<point x="494" y="510" type="curve" smooth="yes"/>
			<point x="494" y="403"/>
			<point x="413" y="337"/>
			<point x="272" y="337" type="curve" smooth="yes"/>
		</contour>
		<contour>
			<point x="280" y="306" type="line"/>
			<point x="404" y="0" type="line"/>
			<point x="452" y="0" type="line"/>
			<point x="318" y="324" type="line"/>
		</contour>
		<contour>
			<point name="aboveUC" x="370" y="679" type="move"/>
		</contour>
		<contour>
			<point name="baseLC" x="69" y="0" type="move"/>
		</contour>
		<contour>
			<point name="belowLC" x="260" y="-20" type="move"/>
		</contour>
	</outline>
</glyph>
<glyph name="S" format="2">
	<unicode hex="0053"/>
	<advance width="600"/>
	<outline>
		<contour>
			<point x="257" y="-12" type="curve" smooth="yes"/>
			<point x="379" y="-12"/>
			<point x="472" y="63"/>
			<point x="472" y="181" type="curve" smooth="yes"/>
			<point x="472" y="255"/>
			<point x="430" y="301"/>
			<point x="367" y="337" type="curve" smooth="yes"/>
			<point x="283" y="387" type="line" smooth="yes"/>
			<point x="239" y="412"/>
			<point x="198" y="446"/>
			<point x="198" y="507" type="curve" smooth="yes"/>
			<point x="198" y="570"/>
			<point x="254" y="634"/>
			<point x="338" y="634" type="curve" smooth="yes"/>
			<point x="408" y="634"/>
			<point x="461" y="599"/>
			<point x="495" y="556" type="curve"/>
			<point x="524" y="580" type="line"/>
			<point x="489" y="630"/>
			<point x="425" y="671"/>
			<point x="344" y="671" type="curve" smooth="yes"/>
			<point x="232" y="671"/>
			<point x="155" y="593"/>
			<point x="155" y="502" type="curve" smooth="yes"/>
			<point x="155" y="430"/>
			<point x="205" y="383"/>
			<point x="260" y="351" type="curve" smooth="yes"/>
			<point x="344" y="301" type="line" smooth="yes"/>
			<point x="396" y="271"/>
			<point x="429" y="234"/>
			<point x="429" y="176" type="curve" smooth="yes"/>
			<point x="429" y="84"/>
			<point x="356" y="25"/>
			<point x="260" y="25" type="curve" smooth="yes"/>
			<point x="177" y="25"/>
			<point x="118" y="60"/>
			<point x="77" y="124" type="curve"/>
			<point x="45" y="100" type="line"/>
			<point x="89" y="30"/>
			<point x="160" y="-12"/>
		</contour>
	</outline>
	<anchor name="aboveUC" x="359" y="679"/>
	<anchor name="baseLC" x="260" y="0"/>
	<anchor name="belowLC" x="260" y="-20"/>
</glyph>
<glyph name="T" format="2">
	<unicode hex="0054"/>
	<advance width="600"/>
	<outline>
		<contour>
			<point x="216" y="0" type="line"/>
			<point x="259" y="0" type="line"/>
			<point x="382" y="620" type="line"/>
			<point x="612" y="620" type="line"/>
			<point x="620" y="659" type="line"/>
			<point x="118" y="659" type="line"/>
			<point x="110" y="620" type="line"/>
			<point x="339" y="620" type="line"/>
		</contour>
	</outline>
	<anchor name="aboveUC" x="374" y="679"/>
	<anchor name="baseLC" x="238" y="0"/>
	<anchor name="belowLC" x="234" y="-20"/>
</glyph>
<glyph name="V" format="1">
	<unicode hex="0056"/>
	<advance width="600"/>
	<outline>
		<contour>
			<point x="213" y="0" type="line"/>
			<point x="263" y="0" type="line"/>
			<point x="621" y="659" type="line"/>
			<point x="576" y="659" type="line"/>
			<point x="366" y="269" type="line" smooth="yes"/>
			<point x="330" y="201"/>
			<point x="286" y="119"/>
			<point x="250" y="48" type="curve"/>
			<point x="246" y="48" type="line"/>
			<point x="238" y="122"/>
			<point x="231" y="197"/>
			<point x="224" y="270" type="curve" smooth="yes"/>
			<point x="185" y="659" type="line"/>
			<point x="143" y="659" type="line"/>
		</contour>
		<contour>
			<point name="aboveUC" x="373" y="679" type="move"/>
		</contour>
		<contour>
			<point name="belowLC" x="234" y="-20" type="move"/>
		</contour>
	</outline>
</glyph>
<glyph name="X" format="1">
	<unicode hex="0058"/>
	<advance width="600"/>
	<outline>
		<contour>
			<point x="12" y="0" type="line"/>
			<point x="61" y="0" type="line"/>
			<point x="220" y="205" type="line" smooth="yes"/>
			<point x="243" y="235"/>
			<point x="269" y="270"/>
			<point x="295" y="307" type="curve"/>
			<point x="299" y="307" type="line"/>
			<point x="310" y="280"/>
			<point x="329" y="228"/>
			<point x="339" y="205" type="curve" smooth="yes"/>
			<point x="424" y="0" type="line"/>
			<point x="470" y="0" type="line"/>
			<point x="330" y="338" type="line"/>
			<point x="586" y="659" type="line"/>
			<point x="536" y="659" type="line"/>
			<point x="380" y="461" type="line" smooth="yes"/>
			<point x="366" y="444"/>
			<point x="333" y="399"/>
			<point x="312" y="369" type="curve"/>
			<point x="308" y="369" type="line"/>
			<point x="300" y="394"/>
			<point x="286" y="433"/>
			<point x="274" y="462" type="curve" smooth="yes"/>
			<point x="192" y="659" type="line"/>
			<point x="146" y="659" type="line"/>
			<point x="278" y="344" type="line"/>
		</contour>
		<contour>
			<point name="aboveUC" x="373" y="679" type="move"/>
		</contour>
		<contour>
			<point name="baseLC" x="450" y="0" type="move"/>
		</contour>
		<contour>
			<point name="belowLC" x="236" y="-20" type="move"/>
		</contour>
	</outline>
</glyph>
<glyph name="Y" format="1">
	<unicode hex="0059"/>
	<advance width="600"/>
	<outline>
		<contour>
			<point x="217" y="0" type="line"/>
			<point x="260" y="0" type="line"/>
			<point x="307" y="236" type="line"/>
			<point x="614" y="659" type="line"/>
			<point x="569" y="659" type="line"/>
			<point x="408" y="440" type="line" smooth="yes"/>
			<point x="368" y="384"/>
			<point x="320" y="314"/>
			<point x="295" y="275" type="curve"/>
			<point x="291" y="275" type="line"/>
			<point x="280" y="318"/>
			<point x="259" y="384"/>
			<point x="240" y="440" type="curve" smooth="yes"/>
			<point x="165" y="659" type="line"/>
			<point x="121" y="659" type="line"/>
			<point x="266" y="241" type="line"/>
		</contour>
		<contour>
			<point name="aboveUC" x="360" y="679" type="move"/>
		</contour>
		<contour>
			<point name="ogonekUC" x="240" y="0" type="move"/>
		</contour>
		<contour>
			<point name="belowLC" x="234" y="-20" type="move"/>
		</contour>
	</outline>
</glyph>
<glyph name="Z" format="2">
	<unicode hex="005A"/>
	<advance width="600"/>
	<outline>
		<contour>
			<point x="76" y="22" type="line"/>
			<point x="573" y="633" type="line"/>
			<point x="579" y="659" type="line"/>
			<point x="143" y="659" type="line"/>
			<point x="135" y="622" type="line"/>
			<point x="543" y="622" type="line"/>
			<point x="528" y="642" type="line"/>
			<point x="28" y="25" type="line"/>
			<point x="22" y="0" type="line"/>
			<point x="481" y="0" type="line"/>
			<point x="489" y="37" type="line"/>
			<point x="62" y="37" type="line"/>
		</contour>
	</outline>
	<anchor name="aboveUC" x="360" y="679"/>
	<anchor name="baseLC" x="288" y="0"/>
	<anchor name="belowLC" x="269" y="-20"/>
</glyph>
<glyph name="bracketright" format="1">
	<unicode hex="005D"/>
	<advance width="600"/>
	<outline>
		<contour>
			<point x="16" y="-152" type="line"/>
			<point x="276" y="-152" type="line"/>
			<point x="448" y="708" type="line"/>
			<point x="186" y="708" type="line"/>
			<point x="181" y="680" type="line"/>
			<point x="408" y="680" type="line"/>
			<point x="248" y="-124" type="line"/>
			<point x="21" y="-124" type="line"/>
		</contour>
	</outline>
</glyph>
<glyph name="asciicircum" format="2">
	<unicode hex="005E"/>
	<advance width="600"/>
	<outline>
		<contour>
			<point x="128" y="290" type="line"/>
			<point x="168" y="290" type="line"/>
			<point x="247" y="496" type="line"/>
			<point x="298" y="628" type="line"/>
			<point x="302" y="628" type="line"/>
			<point x="353" y="496" type="line"/>
			<point x="432" y="290" type="line"/>
			<point x="472" y="290" type="line"/>
			<point x="322" y="670" type="line"/>
			<point x="278" y="670" type="line"/>
		</contour>
	</outline>
</glyph>
<glyph name="underscore" format="1">
	<unicode hex="005F"/>
	<advance width="600"/>
	<outline>
		<contour>
			<point x="-26" y="-124" type="line"/>
			<point x="454" y="-124" type="line"/>
			<point x="463" y="-80" type="line"/>
			<point x="-17" y="-80" type="line"/>
		</contour>
	</outline>
</glyph>
<glyph name="a" format="1">
	<unicode hex="0061"/>
	<advance width="600"/>
	<outline>
		<contour>
			<point x="231" y="-12" type="curve" smooth="yes"/>
			<point x="298" y="-12"/>
			<point x="365" y="25"/>
			<point x="418" y="77" type="curve"/>
			<point x="422" y="77" type="line"/>
			<point x="411" y="0" type="line"/>
			<point x="446" y="0" type="line"/>
			<point x="542" y="480" type="line"/>
			<point x="508" y="480" type="line"/>
			<point x="489" y="414" type="line"/>
			<point x="485" y="414" type="line"/>
			<point x="456" y="461"/>
			<point x="401" y="492"/>
			<point x="330" y="492" type="curve" smooth="yes"/>
			<point x="178" y="492"/>
			<point x="62" y="341"/>
			<point x="62" y="171" type="curve" smooth="yes"/>
			<point x="62" y="51"/>
			<point x="130" y="-12"/>
		</contour>
		<contour>
			<point x="239" y="24" type="curve" smooth="yes"/>
			<point x="157" y="24"/>
			<point x="104" y="74"/>
			<point x="104" y="179" type="curve" smooth="yes"/>
			<point x="104" y="319"/>
			<point x="202" y="456"/>
			<point x="331" y="456" type="curve" smooth="yes"/>
			<point x="387" y="456"/>
			<point x="439" y="431"/>
			<point x="480" y="369" type="curve"/>
			<point x="430" y="129" type="line"/>
			<point x="369" y="62"/>
			<point x="300" y="24"/>
		</contour>
		<contour>
			<point name="ogonekCXT-ATH" x="249" y="0" type="move"/>
		</contour>
		<contour>
			<point name="ogonekLC" x="407" y="0" type="move"/>
		</contour>
		<contour>
			<point name="aboveLC" x="357" y="502" type="move"/>
		</contour>
		<contour>
			<point name="baseLC" x="427" y="0" type="move"/>
		</contour>
		<contour>
			<point name="belowLC" x="248" y="-20" type="move"/>
		</contour>
	</outline>
</glyph>
<glyph name="c" format="1">
	<unicode hex="0063"/>
	<advance width="600"/>
	<outline>
		<contour>
			<point x="287" y="-12" type="curve" smooth="yes"/>
			<point x="357" y="-12"/>
			<point x="433" y="21"/>
			<point x="485" y="69" type="curve"/>
			<point x="463" y="98" type="line"/>
			<point x="415" y="54"/>
			<point x="352" y="24"/>
			<point x="292" y="24" type="curve" smooth="yes"/>
			<point x="185" y="24"/>
			<point x="112" y="85"/>
			<point x="112" y="207" type="curve" smooth="yes"/>
			<point x="112" y="345"/>
			<point x="234" y="456"/>
			<point x="349" y="456" type="curve" smooth="yes"/>
			<point x="423" y="456"/>
			<point x="470" y="431"/>
			<point x="507" y="382" type="curve"/>
			<point x="536" y="407" type="line"/>
			<point x="502" y="453"/>
			<point x="441" y="492"/>
			<point x="359" y="492" type="curve" smooth="yes"/>
			<point x="211" y="492"/>
			<point x="71" y="374"/>
			<point x="71" y="201" type="curve" smooth="yes"/>
			<point x="71" y="60"/>
			<point x="161" y="-12"/>
		</contour>
		<contour>
			<point name="aboveLC" x="357" y="502" type="move"/>
		</contour>
		<contour>
			<point name="baseLC" x="271" y="0" type="move"/>
		</contour>
		<contour>
			<point name="belowLC" x="267" y="-20" type="move"/>
		</contour>
	</outline>
</glyph>
<glyph name="d" format="2">
	<unicode hex="0064"/>
	<advance width="600"/>
	<outline>
		<contour>
			<point x="231" y="-12" type="curve" smooth="yes"/>
			<point x="298" y="-12"/>
			<point x="365" y="25"/>
			<point x="418" y="77" type="curve"/>
			<point x="422" y="77" type="line"/>
			<point x="411" y="0" type="line"/>
			<point x="446" y="0" type="line"/>
			<point x="591" y="719" type="line"/>
			<point x="550" y="719" type="line"/>
			<point x="508" y="510" type="line"/>
			<point x="489" y="415" type="line"/>
			<point x="485" y="415" type="line"/>
			<point x="455" y="461"/>
			<point x="401" y="492"/>
			<point x="330" y="492" type="curve" smooth="yes"/>
			<point x="178" y="492"/>
			<point x="62" y="341"/>
			<point x="62" y="171" type="curve" smooth="yes"/>
			<point x="62" y="51"/>
			<point x="130" y="-12"/>
		</contour>
		<contour>
			<point x="239" y="24" type="curve" smooth="yes"/>
			<point x="157" y="24"/>
			<point x="104" y="74"/>
			<point x="104" y="179" type="curve" smooth="yes"/>
			<point x="104" y="319"/>
			<point x="202" y="456"/>
			<point x="331" y="456" type="curve" smooth="yes"/>
			<point x="387" y="456"/>
			<point x="439" y="431"/>
			<point x="480" y="369" type="curve"/>
			<point x="430" y="129" type="line"/>
			<point x="369" y="62"/>
			<point x="300" y="24"/>
		</contour>
	</outline>
	<anchor name="aboveUC" x="567" y="739"/>
	<anchor name="baseLC" x="246" y="0"/>
	<anchor name="belowLC" x="248" y="-20"/>
</glyph>
<glyph name="e" format="1">
	<unicode hex="0065"/>
	<advance width="600"/>
	<outline>
		<contour>
			<point x="271" y="-12" type="curve" smooth="yes"/>
			<point x="355" y="-12"/>
			<point x="429" y="25"/>
			<point x="473" y="63" type="curve"/>
			<point x="453" y="93" type="line"/>
			<point x="408" y="53"/>
			<point x="345" y="24"/>
			<point x="277" y="24" type="curve" smooth="yes"/>
			<point x="174" y="24"/>
			<point x="114" y="92"/>
			<point x="114" y="195" type="curve" smooth="yes"/>
			<point x="114" y="344"/>
			<point x="227" y="457"/>
			<point x="339" y="457" type="curve" smooth="yes"/>
			<point x="425" y="457"/>
			<point x="478" y="400"/>
			<point x="478" y="313" type="curve" smooth="yes"/>
			<point x="478" y="297"/>
			<point x="476" y="279"/>
			<point x="472" y="264" type="curve"/>
			<point x="500" y="272" type="line"/>
			<point x="113" y="272" type="line"/>
			<point x="106" y="237" type="line"/>
			<point x="508" y="237" type="line"/>
			<point x="512" y="248"/>
			<point x="518" y="279"/>
			<point x="518" y="310" type="curve" smooth="yes"/>
			<point x="518" y="414"/>
			<point x="457" y="492"/>
			<point x="343" y="492" type="curve" smooth="yes"/>
			<point x="200" y="492"/>
			<point x="72" y="365"/>
			<point x="72" y="192" type="curve" smooth="yes"/>
			<point x="72" y="64"/>
			<point x="147" y="-12"/>
		</contour>
		<contour>
			<point name="ogonekLC" x="368" y="0" type="move"/>
		</contour>
		<contour>
			<point name="aboveLC" x="349" y="502" type="move"/>
		</contour>
		<contour>
			<point name="baseLC" x="269" y="0" type="move"/>
		</contour>
		<contour>
			<point name="belowLC" x="265" y="-20" type="move"/>
		</contour>
	</outline>
</glyph>
<glyph name="j" format="1">
	<unicode hex="006A"/>
	<advance width="600"/>
	<outline>
		<component base="dotlessj"/>
		<component base="dotaccentcmb" xOffset="53"/>
		<contour>
			<point name="aboveUC" x="431" y="725" type="move"/>
		</contour>
		<contour>
			<point name="belowLC" x="134" y="-227" type="move"/>
		</contour>
	</outline>
</glyph>
<glyph name="k" format="1">
	<unicode hex="006B"/>
	<advance width="600"/>
	<outline>
		<contour>
			<point x="66" y="0" type="line"/>
			<point x="107" y="0" type="line"/>
			<point x="134" y="134" type="line"/>
			<point x="324" y="280" type="line"/>
			<point x="571" y="480" type="line"/>
			<point x="517" y="480" type="line"/>
			<point x="150" y="190" type="line"/>
			<point x="146" y="190" type="line"/>
			<point x="251" y="719" type="line"/>
			<point x="209" y="719" type="line"/>
		</contour>
		<contour>
			<point x="304" y="274" type="line"/>
			<point x="454" y="0" type="line"/>
			<point x="499" y="0" type="line"/>
			<point x="335" y="299" type="line"/>
		</contour>
		<contour>
			<point name="aboveUC" x="228" y="738" type="move"/>
		</contour>
		<contour>
			<point name="belowLC" x="283" y="-20" type="move"/>
		</contour>
	</outline>
</glyph>
<glyph name="o" format="2">
	<unicode hex="006F"/>
	<advance width="600"/>
	<outline>
		<contour>
			<point x="247" y="-12" type="curve" smooth="yes"/>
			<point x="395" y="-12"/>
			<point x="521" y="119"/>
			<point x="521" y="284" type="curve" smooth="yes"/>
			<point x="521" y="406"/>
			<point x="449" y="492"/>
			<point x="327" y="492" type="curve" smooth="yes"/>
			<point x="179" y="492"/>
			<point x="53" y="362"/>
			<point x="53" y="196" type="curve" smooth="yes"/>
			<point x="53" y="74"/>
			<point x="125" y="-12"/>
		</contour>
		<contour>
			<point x="250" y="24" type="curve" smooth="yes"/>
			<point x="152" y="24"/>
			<point x="95" y="94"/>
			<point x="95" y="202" type="curve" smooth="yes"/>
			<point x="95" y="339"/>
			<point x="203" y="456"/>
			<point x="324" y="456" type="curve" smooth="yes"/>
			<point x="423" y="456"/>
			<point x="480" y="386"/>
			<point x="480" y="279" type="curve" smooth="yes"/>
			<point x="480" y="141"/>
			<point x="371" y="24"/>
		</contour>
	</outline>
	<anchor name="aboveLC" x="338" y="502"/>
	<anchor name="baseLC" x="238" y="0"/>
	<anchor name="belowLC" x="234" y="-20"/>
	<anchor name="hornLC" x="350" y="480"/>
	<anchor name="ogonekLC" x="238" y="0"/>
</glyph>
<glyph name="p" format="2">
	<unicode hex="0070"/>
	<advance width="600"/>
	<outline>
		<contour>
			<point x="4" y="-217" type="line"/>
			<point x="46" y="-217" type="line"/>
			<point x="79" y="-43" type="line"/>
			<point x="100" y="65" type="line"/>
			<point x="103" y="65" type="line"/>
			<point x="137" y="21"/>
			<point x="194" y="-12"/>
			<point x="260" y="-12" type="curve" smooth="yes"/>
			<point x="419" y="-12"/>
			<point x="528" y="127"/>
			<point x="528" y="300" type="curve" smooth="yes"/>
			<point x="528" y="424"/>
			<point x="460" y="492"/>
			<point x="359" y="492" type="curve" smooth="yes"/>
			<point x="288" y="492"/>
			<point x="222" y="448"/>
			<point x="170" y="401" type="curve"/>
			<point x="166" y="401" type="line"/>
			<point x="179" y="480" type="line"/>
			<point x="144" y="480" type="line"/>
		</contour>
		<contour>
			<point x="260" y="24" type="curve" smooth="yes"/>
			<point x="205" y="24"/>
			<point x="153" y="45"/>
			<point x="110" y="107" type="curve"/>
			<point x="160" y="355" type="line"/>
			<point x="219" y="414"/>
			<point x="293" y="456"/>
			<point x="350" y="456" type="curve" smooth="yes"/>
			<point x="433" y="456"/>
			<point x="486" y="401"/>
			<point x="486" y="293" type="curve" smooth="yes"/>
			<point x="486" y="151"/>
			<point x="392" y="24"/>
		</contour>
	</outline>
	<anchor name="aboveLC" x="356" y="502"/>
	<anchor name="belowLC" x="24" y="-227"/>
</glyph>
<glyph name="q" format="2">
	<unicode hex="0071"/>
	<advance width="600"/>
	<outline>
		<contour>
			<point x="362" y="-217" type="line"/>
			<point x="403" y="-217" type="line"/>
			<point x="542" y="480" type="line"/>
			<point x="508" y="480" type="line"/>
			<point x="489" y="414" type="line"/>
			<point x="485" y="414" type="line"/>
			<point x="456" y="461"/>
			<point x="401" y="492"/>
			<point x="330" y="492" type="curve" smooth="yes"/>
			<point x="178" y="492"/>
			<point x="62" y="341"/>
			<point x="62" y="171" type="curve" smooth="yes"/>
			<point x="62" y="51"/>
			<point x="130" y="-12"/>
			<point x="231" y="-12" type="curve" smooth="yes"/>
			<point x="298" y="-12"/>
			<point x="367" y="25"/>
			<point x="420" y="77" type="curve"/>
			<point x="424" y="77" type="line"/>
			<point x="416" y="45"/>
			<point x="403" y="-12"/>
			<point x="397" y="-43" type="curve" smooth="yes"/>
		</contour>
		<contour>
			<point x="239" y="24" type="curve" smooth="yes"/>
			<point x="157" y="24"/>
			<point x="104" y="74"/>
			<point x="104" y="179" type="curve" smooth="yes"/>
			<point x="104" y="319"/>
			<point x="202" y="456"/>
			<point x="331" y="456" type="curve" smooth="yes"/>
			<point x="387" y="456"/>
			<point x="439" y="431"/>
			<point x="480" y="369" type="curve"/>
			<point x="430" y="129" type="line"/>
			<point x="369" y="62"/>
			<point x="300" y="24"/>
		</contour>
	</outline>
	<anchor name="aboveLC" x="357" y="502"/>
	<anchor name="belowLC" x="378" y="-227"/>
</glyph>
<glyph name="r" format="2">
	<unicode hex="0072"/>
	<advance width="600"/>
	<outline>
		<contour>
			<point x="111" y="0" type="line"/>
			<point x="152" y="0" type="line"/>
			<point x="207" y="273" type="line"/>
			<point x="279" y="378"/>
			<point x="359" y="453"/>
			<point x="440" y="453" type="curve" smooth="yes"/>
			<point x="475" y="453"/>
			<point x="499" y="447"/>
			<point x="524" y="430" type="curve"/>
			<point x="544" y="465" type="line"/>
			<point x="519" y="482"/>
			<point x="488" y="492"/>
			<point x="446" y="492" type="curve" smooth="yes"/>
			<point x="356" y="492"/>
			<point x="277" y="417"/>
			<point x="221" y="338" type="curve"/>
			<point x="217" y="338" type="line"/>
			<point x="242" y="480" type="line"/>
			<point x="207" y="480" type="line"/>
		</contour>
	</outline>
	<anchor name="aboveLC" x="375" y="502"/>
	<anchor name="baseLC" x="132" y="0"/>
	<anchor name="belowLC" x="132" y="-20"/>
</glyph>
<glyph name="t" format="1">
	<unicode hex="0074"/>
	<advance width="600"/>
	<outline>
		<contour>
			<point x="306" y="-12" type="curve" smooth="yes"/>
			<point x="368" y="-12"/>
			<point x="423" y="3"/>
			<point x="463" y="28" type="curve"/>
			<point x="448" y="59" type="line"/>
			<point x="411" y="39"/>
			<point x="366" y="24"/>
			<point x="313" y="24" type="curve" smooth="yes"/>
			<point x="250" y="24"/>
			<point x="211" y="59"/>
			<point x="211" y="128" type="curve" smooth="yes"/>
			<point x="211" y="143"/>
			<point x="213" y="158"/>
			<point x="217" y="176" type="curve" smooth="yes"/>
			<point x="273" y="444" type="line"/>
			<point x="529" y="444" type="line"/>
			<point x="537" y="480" type="line"/>
			<point x="281" y="480" type="line"/>
			<point x="313" y="639" type="line"/>
			<point x="278" y="639" type="line"/>
			<point x="240" y="480" type="line"/>
			<point x="90" y="476" type="line"/>
			<point x="84" y="444" type="line"/>
			<point x="232" y="444" type="line"/>
			<point x="178" y="183" type="line" smooth="yes"/>
			<point x="174" y="162"/>
			<point x="170" y="142"/>
			<point x="170" y="120" type="curve" smooth="yes"/>
			<point x="170" y="43"/>
			<point x="213" y="-12"/>
		</contour>
		<contour>
			<point name="aboveLC" x="285" y="631" type="move"/>
		</contour>
		<contour>
			<point name="baseLC" x="309" y="0" type="move"/>
		</contour>
		<contour>
			<point name="belowLC" x="309" y="-20" type="move"/>
		</contour>
	</outline>
</glyph>
<glyph name="w" format="1">
	<unicode hex="0077"/>
	<advance width="600"/>
	<outline>
		<contour>
			<point x="74" y="0" type="line"/>
			<point x="130" y="0" type="line"/>
			<point x="264" y="297" type="line" smooth="yes"/>
			<point x="283" y="340"/>
			<point x="301" y="384"/>
			<point x="321" y="432" type="curve"/>
			<point x="324" y="432" type="line"/>
			<point x="327" y="384"/>
			<point x="327" y="344"/>
			<point x="330" y="298" type="curve" smooth="yes"/>
			<point x="346" y="0" type="line"/>
			<point x="402" y="0" type="line"/>
			<point x="620" y="480" type="line"/>
			<point x="576" y="480" type="line"/>
			<point x="437" y="166" type="line" smooth="yes"/>
			<point x="418" y="121"/>
			<point x="401" y="81"/>
			<point x="382" y="38" type="curve"/>
			<point x="378" y="38" type="line"/>
			<point x="377" y="81"/>
			<point x="376" y="121"/>
			<point x="373" y="166" type="curve" smooth="yes"/>
			<point x="356" y="473" type="line"/>
			<point x="305" y="473" type="line"/>
			<point x="167" y="166" type="line" smooth="yes"/>
			<point x="147" y="121"/>
			<point x="130" y="80"/>
			<point x="112" y="38" type="curve"/>
			<point x="108" y="38" type="line"/>
			<point x="107" y="81"/>
			<point x="106" y="122"/>
			<point x="104" y="166" type="curve" smooth="yes"/>
			<point x="89" y="480" type="line"/>
			<point x="46" y="480" type="line"/>
		</contour>
		<contour>
			<point name="aboveLC" x="330" y="502" type="move"/>
		</contour>
		<contour>
			<point name="belowLC" x="240" y="-20" type="move"/>
		</contour>
	</outline>
</glyph>
<glyph name="x" format="2">
	<unicode hex="0078"/>
	<advance width="600"/>
	<outline>
		<contour>
			<point x="25" y="0" type="line"/>
			<point x="78" y="0" type="line"/>
			<point x="208" y="140" type="line" smooth="yes"/>
			<point x="226" y="159"/>
			<point x="261" y="199"/>
			<point x="279" y="220" type="curve"/>
			<point x="284" y="220" type="line"/>
			<point x="297" y="197"/>
			<point x="318" y="158"/>
			<point x="333" y="133" type="curve" smooth="yes"/>
			<point x="408" y="0" type="line"/>
			<point x="455" y="0" type="line"/>
			<point x="311" y="245" type="line"/>
			<point x="536" y="480" type="line"/>
			<point x="484" y="480" type="line"/>
			<point x="366" y="355" type="line" smooth="yes"/>
			<point x="346" y="335"/>
			<point x="312" y="293"/>
			<point x="294" y="272" type="curve"/>
			<point x="290" y="272" type="line"/>
			<point x="280" y="294"/>
			<point x="260" y="332"/>
			<point x="248" y="355" type="curve" smooth="yes"/>
			<point x="179" y="480" type="line"/>
			<point x="134" y="480" type="line"/>
			<point x="264" y="251" type="line"/>
		</contour>
	</outline>
	<anchor name="aboveLC" x="330" y="502"/>
	<anchor name="baseLC" x="429" y="0"/>
	<anchor name="belowLC" x="241" y="-20"/>
</glyph>
<glyph name="z" format="2">
	<unicode hex="007A"/>
	<advance width="600"/>
	<outline>
		<contour>
			<point x="41" y="0" type="line"/>
			<point x="459" y="0" type="line"/>
			<point x="467" y="36" type="line"/>
			<point x="106" y="36" type="line"/>
			<point x="522" y="455" type="line"/>
			<point x="526" y="480" type="line"/>
			<point x="129" y="480" type="line"/>
			<point x="121" y="445" type="line"/>
			<point x="461" y="445" type="line"/>
			<point x="45" y="26" type="line"/>
		</contour>
	</outline>
	<anchor name="aboveLC" x="331" y="502"/>
	<anchor name="baseLC" x="288" y="0"/>
	<anchor name="belowLC" x="260" y="-20"/>
</glyph>
<glyph name="asciitilde" format="2">
	<unicode hex="007E"/>
	<advance width="600"/>
	<outline>
		<contour>
			<point x="389" y="267" type="curve" smooth="yes"/>
			<point x="434" y="267"/>
			<point x="478" y="292"/>
			<point x="508" y="379" type="curve"/>
			<point x="478" y="391" type="line"/>
			<point x="452" y="312"/>
			<point x="425" y="302"/>
			<point x="391" y="302" type="curve" smooth="yes"/>
			<point x="334" y="302"/>
			<point x="287" y="393"/>
			<point x="211" y="393" type="curve" smooth="yes"/>
			<point x="166" y="393"/>
			<point x="122" y="368"/>
			<point x="92" y="279" type="curve"/>
			<point x="122" y="269" type="line"/>
			<point x="148" y="346"/>
			<point x="175" y="358"/>
			<point x="209" y="358" type="curve" smooth="yes"/>
			<point x="266" y="358"/>
			<point x="313" y="267"/>
		</contour>
	</outline>
</glyph>
<glyph name="cent" format="1">
	<unicode hex="00A2"/>
	<advance width="600"/>
	<outline>
		<contour>
			<point x="283" y="82" type="curve" smooth="yes"/>
			<point x="352" y="82"/>
			<point x="411" y="109"/>
			<point x="457" y="148" type="curve"/>
			<point x="438" y="175" type="line"/>
			<point x="398" y="143"/>
			<point x="349" y="119"/>
			<point x="291" y="119" type="curve" smooth="yes"/>
			<point x="204" y="119"/>
			<point x="151" y="175"/>
			<point x="151" y="270" type="curve" smooth="yes"/>
			<point x="151" y="406"/>
			<point x="249" y="506"/>
			<point x="368" y="506" type="curve" smooth="yes"/>
			<point x="417" y="506"/>
			<point x="451" y="487"/>
			<point x="479" y="456" type="curve"/>
			<point x="506" y="479" type="line"/>
			<point x="477" y="512"/>
			<point x="432" y="543"/>
			<point x="371" y="543" type="curve" smooth="yes"/>
			<point x="236" y="543"/>
			<point x="109" y="438"/>
			<point x="109" y="264" type="curve" smooth="yes"/>
			<point x="109" y="149"/>
			<point x="181" y="82"/>
		</contour>
		<contour>
			<point x="233" y="-29" type="line"/>
			<point x="266" y="-29" type="line"/>
			<point x="405" y="652" type="line"/>
			<point x="373" y="652" type="line"/>
		</contour>
	</outline>
</glyph>
<glyph name="sterling" format="2">
	<unicode hex="00A3"/>
	<advance width="600"/>
	<outline>
		<contour>
			<point x="26" y="0" type="line"/>
			<point x="455" y="0" type="line"/>
			<point x="464" y="36" type="line"/>
			<point x="115" y="36" type="line"/>
			<point x="115" y="41" type="line"/>
			<point x="198" y="90"/>
			<point x="242" y="159"/>
			<point x="241" y="259" type="curve" smooth="yes"/>
			<point x="240" y="320"/>
			<point x="226" y="393"/>
			<point x="226" y="449" type="curve" smooth="yes"/>
			<point x="226" y="560"/>
			<point x="290" y="617"/>
			<point x="386" y="617" type="curve" smooth="yes"/>
			<point x="448" y="617"/>
			<point x="487" y="586"/>
			<point x="515" y="541" type="curve"/>
			<point x="545" y="562" type="line"/>
			<point x="514" y="611"/>
			<point x="466" y="651"/>
			<point x="387" y="651" type="curve" smooth="yes"/>
			<point x="269" y="651"/>
			<point x="187" y="582"/>
			<point x="187" y="448" type="curve" smooth="yes"/>
			<point x="187" y="390"/>
			<point x="202" y="312"/>
			<point x="202" y="251" type="curve" smooth="yes"/>
			<point x="202" y="161"/>
			<point x="156" y="80"/>
			<point x="31" y="24" type="curve"/>
		</contour>
		<contour>
			<point x="80" y="297" type="line"/>
			<point x="431" y="297" type="line"/>
			<point x="438" y="327" type="line"/>
			<point x="200" y="327" type="line"/>
			<point x="86" y="324" type="line"/>
		</contour>
	</outline>
</glyph>
<glyph name="mu.math" format="2">
	<unicode hex="00B5"/>
	<advance width="600"/>
	<outline>
		<contour>
			<point x="2" y="-182" type="line"/>
			<point x="43" y="-182" type="line"/>
			<point x="55" y="-96"/>
			<point x="64" y="-57"/>
			<point x="87" y="59" type="curve"/>
			<point x="108" y="1"/>
			<point x="146" y="-12"/>
			<point x="196" y="-12" type="curve" smooth="yes"/>
			<point x="288" y="-12"/>
			<point x="358" y="44"/>
			<point x="421" y="107" type="curve"/>
			<point x="425" y="107" type="line"/>
			<point x="406" y="20"/>
			<point x="413" y="-12"/>
			<point x="457" y="-12" type="curve" smooth="yes"/>
			<point x="470" y="-12"/>
			<point x="479" y="-10"/>
			<point x="488" y="-7" type="curve"/>
			<point x="488" y="26" type="line"/>
			<point x="478" y="24"/>
			<point x="474" y="24"/>
			<point x="469" y="24" type="curve" smooth="yes"/>
			<point x="459" y="24"/>
			<point x="451" y="31"/>
			<point x="451" y="47" type="curve" smooth="yes"/>
			<point x="451" y="59"/>
			<point x="505" y="314"/>
			<point x="539" y="480" type="curve"/>
			<point x="498" y="480" type="line"/>
			<point x="433" y="158" type="line"/>
			<point x="355" y="76"/>
			<point x="280" y="25"/>
			<point x="201" y="25" type="curve" smooth="yes"/>
			<point x="114" y="25"/>
			<point x="96" y="86"/>
			<point x="116" y="186" type="curve" smooth="yes"/>
			<point x="175" y="480" type="line"/>
			<point x="134" y="480" type="line"/>
		</contour>
	</outline>
</glyph>
<glyph name="AE" format="2">
	<unicode hex="00C6"/>
	<advance width="600"/>
	<outline>
		<contour>
			<point x="-60" y="0" type="line"/>
			<point x="-14" y="0" type="line"/>
			<point x="234" y="391" type="line" smooth="yes"/>
			<point x="284" y="471"/>
			<point x="333" y="546"/>
			<point x="381" y="622" type="curve"/>
			<point x="387" y="622" type="line"/>
			<point x="263" y="0" type="line"/>
			<point x="529" y="0" type="line"/>
			<point x="536" y="37" type="line"/>
			<point x="310" y="37" type="line"/>
			<point x="369" y="333" type="line"/>
			<point x="542" y="333" type="line"/>
			<point x="549" y="369" type="line"/>
			<point x="376" y="369" type="line"/>
			<point x="427" y="623" type="line"/>
			<point x="643" y="623" type="line"/>
			<point x="650" y="659" type="line"/>
			<point x="366" y="659" type="line"/>
		</contour>
		<contour>
			<point x="114" y="220" type="line"/>
			<point x="334" y="220" type="line"/>
			<point x="341" y="255" type="line"/>
			<point x="122" y="255" type="line"/>
		</contour>
	</outline>
	<anchor name="aboveUC" x="496" y="679"/>
	<anchor name="baseLC" x="418" y="0"/>
	<anchor name="belowLC" x="298" y="-20"/>
</glyph>
<glyph name="Eth" format="1">
	<unicode hex="00D0"/>
	<advance width="600"/>
	<outline>
		<contour>
			<point x="304" y="333" type="line"/>
			<point x="312" y="367" type="line"/>
			<point x="107" y="367" type="line"/>
			<point x="28" y="364" type="line"/>
			<point x="20" y="333" type="line"/>
		</contour>
		<component base="D" xOffset="4"/>
		<contour>
			<point name="aboveUC" x="361" y="679" type="move"/>
		</contour>
		<contour>
			<point name="belowLC" x="221" y="-20" type="move"/>
		</contour>
	</outline>
</glyph>
<glyph name="multiply" format="1">
	<unicode hex="00D7"/>
	<advance width="600"/>
	<outline>
		<contour>
			<point x="138" y="135" type="line"/>
			<point x="300" y="305" type="line"/>
			<point x="462" y="135" type="line"/>
			<point x="487" y="163" type="line"/>
			<point x="325" y="330" type="line"/>
			<point x="487" y="497" type="line"/>
			<point x="462" y="525" type="line"/>
			<point x="300" y="355" type="line"/>
			<point x="138" y="525" type="line"/>
			<point x="113" y="497" type="line"/>
			<point x="275" y="330" type="line"/>
			<point x="113" y="163" type="line"/>
		</contour>
	</outline>
</glyph>
<glyph name="Oslash" format="1">
	<unicode hex="00D8"/>
	<advance width="600"/>
	<outline>
		<contour>
			<point x="255" y="-12" type="curve" smooth="yes"/>
			<point x="451" y="-12"/>
			<point x="562" y="216"/>
			<point x="562" y="416" type="curve" smooth="yes"/>
			<point x="562" y="566"/>
			<point x="487" y="671"/>
			<point x="354" y="671" type="curve" smooth="yes"/>
			<point x="159" y="671"/>
			<point x="48" y="443"/>
			<point x="48" y="243" type="curve" smooth="yes"/>
			<point x="48" y="93"/>
			<point x="123" y="-12"/>
		</contour>
		<contour>
			<point x="259" y="25" type="curve" smooth="yes"/>
			<point x="146" y="25"/>
			<point x="90" y="115"/>
			<point x="90" y="245" type="curve" smooth="yes"/>
			<point x="90" y="418"/>
			<point x="184" y="634"/>
			<point x="351" y="634" type="curve" smooth="yes"/>
			<point x="464" y="634"/>
			<point x="519" y="544"/>
			<point x="519" y="414" type="curve" smooth="yes"/>
			<point x="519" y="241"/>
			<point x="426" y="25"/>
		</contour>
		<contour>
			<point x="22" y="-24" type="line"/>
			<point x="614" y="660" type="line"/>
			<point x="588" y="683" type="line"/>
			<point x="-4" y="-1" type="line"/>
		</contour>
		<contour>
			<point name="aboveUC" x="370" y="679" type="move"/>
		</contour>
		<contour>
			<point name="baseLC" x="238" y="0" type="move"/>
		</contour>
	</outline>
</glyph>
<glyph name="Thorn" format="2">
	<unicode hex="00DE"/>
	<advance width="600"/>
	<outline>
		<contour>
			<point x="59" y="0" type="line"/>
			<point x="102" y="0" type="line"/>
			<point x="135" y="165" type="line"/>
			<point x="266" y="165" type="line" smooth="yes"/>
			<point x="436" y="165"/>
			<point x="546" y="236"/>
			<point x="546" y="385" type="curve" smooth="yes"/>
			<point x="546" y="492"/>
			<point x="471" y="538"/>
			<point x="352" y="538" type="curve" smooth="yes"/>
			<point x="210" y="538" type="line"/>
			<point x="234" y="659" type="line"/>
			<point x="191" y="659" type="line"/>
		</contour>
		<contour>
			<point x="143" y="201" type="line"/>
			<point x="202" y="502" type="line"/>
			<point x="332" y="502" type="line" smooth="yes"/>
			<point x="444" y="502"/>
			<point x="503" y="467"/>
			<point x="503" y="381" type="curve" smooth="yes"/>
			<point x="503" y="262"/>
			<point x="420" y="201"/>
			<point x="263" y="201" type="curve" smooth="yes"/>
		</contour>
	</outline>
</glyph>
<glyph name="eth" format="1">
	<unicode hex="00F0"/>
	<advance width="600"/>
	<outline>
		<contour>
			<point x="238" y="-12" type="curve" smooth="yes"/>
			<point x="420" y="-12"/>
			<point x="530" y="128"/>
			<point x="530" y="339" type="curve" smooth="yes"/>
			<point x="530" y="531"/>
			<point x="429" y="655"/>
			<point x="290" y="725" type="curve"/>
			<point x="270" y="693" type="line"/>
			<point x="391" y="632"/>
			<point x="488" y="524"/>
			<point x="488" y="341" type="curve" smooth="yes"/>
			<point x="488" y="170"/>
			<point x="406" y="24"/>
			<point x="244" y="24" type="curve" smooth="yes"/>
			<point x="153" y="24"/>
			<point x="89" y="88"/>
			<point x="89" y="184" type="curve" smooth="yes"/>
			<point x="89" y="294"/>
			<point x="171" y="407"/>
			<point x="323" y="407" type="curve" smooth="yes"/>
			<point x="387" y="407"/>
			<point x="460" y="375"/>
			<point x="499" y="297" type="curve"/>
			<point x="505" y="340" type="line"/>
			<point x="475" y="394"/>
			<point x="404" y="442"/>
			<point x="322" y="442" type="curve" smooth="yes"/>
			<point x="164" y="442"/>
			<point x="46" y="332"/>
			<point x="46" y="178" type="curve" smooth="yes"/>
			<point x="46" y="59"/>
			<point x="132" y="-12"/>
		</contour>
		<contour>
			<point x="244" y="515" type="line"/>
			<point x="580" y="674" type="line"/>
			<point x="568" y="703" type="line"/>
			<point x="230" y="544" type="line"/>
		</contour>
		<contour>
			<point name="aboveUC" x="434" y="739" type="move"/>
		</contour>
		<contour>
			<point name="belowLC" x="237" y="-20" type="move"/>
		</contour>
	</outline>
</glyph>
<glyph name="oslash" format="2">
	<unicode hex="00F8"/>
	<advance width="600"/>
	<outline>
		<contour>
			<point x="247" y="-12" type="curve" smooth="yes"/>
			<point x="395" y="-12"/>
			<point x="521" y="119"/>
			<point x="521" y="284" type="curve" smooth="yes"/>
			<point x="521" y="406"/>
			<point x="449" y="492"/>
			<point x="327" y="492" type="curve" smooth="yes"/>
			<point x="179" y="492"/>
			<point x="53" y="362"/>
			<point x="53" y="196" type="curve" smooth="yes"/>
			<point x="53" y="74"/>
			<point x="125" y="-12"/>
		</contour>
		<contour>
			<point x="249" y="24" type="curve" smooth="yes"/>
			<point x="151" y="24"/>
			<point x="94" y="95"/>
			<point x="94" y="201" type="curve" smooth="yes"/>
			<point x="94" y="339"/>
			<point x="202" y="456"/>
			<point x="325" y="456" type="curve" smooth="yes"/>
			<point x="424" y="456"/>
			<point x="480" y="386"/>
			<point x="480" y="279" type="curve" smooth="yes"/>
			<point x="480" y="141"/>
			<point x="373" y="24"/>
		</contour>
		<contour>
			<point x="32" y="-23" type="line"/>
			<point x="567" y="478" type="line"/>
			<point x="542" y="503" type="line"/>
			<point x="7" y="2" type="line"/>
		</contour>
	</outline>
</glyph>
<glyph name="Aogonek" format="2">
	<unicode hex="0104"/>
	<advance width="600"/>
	<outline>
		<contour>
			<point x="427" y="-224" type="curve" smooth="yes"/>
			<point x="460" y="-224"/>
			<point x="486" y="-212"/>
			<point x="506" y="-196" type="curve"/>
			<point x="492" y="-172" type="line"/>
			<point x="476" y="-183"/>
			<point x="459" y="-191"/>
			<point x="438" y="-191" type="curve" smooth="yes"/>
			<point x="404" y="-191"/>
			<point x="377" y="-175"/>
			<point x="377" y="-139" type="curve" smooth="yes"/>
			<point x="377" y="-90"/>
			<point x="432" y="-36"/>
			<point x="492" y="0" type="curve"/>
			<point x="403" y="659" type="line"/>
			<point x="357" y="659" type="line"/>
			<point x="-12" y="0" type="line"/>
			<point x="34" y="0" type="line"/>
			<point x="250" y="394" type="line" smooth="yes"/>
			<point x="291" y="471"/>
			<point x="327" y="540"/>
			<point x="369" y="617" type="curve"/>
			<point x="374" y="617" type="line"/>
			<point x="383" y="544"/>
			<point x="391" y="464"/>
			<point x="401" y="391" type="curve" smooth="yes"/>
			<point x="448" y="0" type="line"/>
			<point x="454" y="0" type="line"/>
			<point x="398" y="-33"/>
			<point x="339" y="-86"/>
			<point x="339" y="-151" type="curve" smooth="yes"/>
			<point x="339" y="-203"/>
			<point x="382" y="-224"/>
		</contour>
		<contour>
			<point x="146" y="229" type="line"/>
			<point x="435" y="229" type="line"/>
			<point x="439" y="264" type="line"/>
			<point x="156" y="264" type="line"/>
		</contour>
	</outline>
	<anchor name="aboveUC" x="374" y="679"/>
</glyph>
<glyph name="aogonek" format="2">
	<unicode hex="0105"/>
	<advance width="600"/>
	<outline>
		<contour>
			<point x="372" y="-224" type="curve" smooth="yes"/>
			<point x="405" y="-224"/>
			<point x="431" y="-212"/>
			<point x="451" y="-195" type="curve"/>
			<point x="437" y="-173" type="line"/>
			<point x="421" y="-184"/>
			<point x="404" y="-192"/>
			<point x="383" y="-192" type="curve" smooth="yes"/>
			<point x="348" y="-192"/>
			<point x="321" y="-176"/>
			<point x="321" y="-139" type="curve" smooth="yes"/>
			<point x="321" y="-91"/>
			<point x="367" y="-47"/>
			<point x="444" y="-7" type="curve"/>
			<point x="542" y="480" type="line"/>
			<point x="508" y="480" type="line"/>
			<point x="489" y="414" type="line"/>
			<point x="485" y="414" type="line"/>
			<point x="456" y="461"/>
			<point x="401" y="492"/>
			<point x="330" y="492" type="curve" smooth="yes"/>
			<point x="178" y="492"/>
			<point x="62" y="341"/>
			<point x="62" y="171" type="curve" smooth="yes"/>
			<point x="62" y="51"/>
			<point x="130" y="-12"/>
			<point x="231" y="-12" type="curve" smooth="yes"/>
			<point x="298" y="-12"/>
			<point x="365" y="25"/>
			<point x="418" y="77" type="curve"/>
			<point x="422" y="77" type="line"/>
			<point x="411" y="0" type="line"/>
			<point x="343" y="-36"/>
			<point x="284" y="-83"/>
			<point x="284" y="-151" type="curve" smooth="yes"/>
			<point x="284" y="-203"/>
			<point x="327" y="-224"/>
		</contour>
		<contour>
			<point x="239" y="24" type="curve" smooth="yes"/>
			<point x="157" y="24"/>
			<point x="104" y="74"/>
			<point x="104" y="179" type="curve" smooth="yes"/>
			<point x="104" y="319"/>
			<point x="202" y="456"/>
			<point x="331" y="456" type="curve" smooth="yes"/>
			<point x="387" y="456"/>
			<point x="439" y="431"/>
			<point x="480" y="369" type="curve"/>
			<point x="430" y="129" type="line"/>
			<point x="369" y="62"/>
			<point x="300" y="24"/>
		</contour>
	</outline>
	<anchor name="aboveLC" x="357" y="502"/>
</glyph>
<glyph name="eogonek" format="1">
	<unicode hex="0119"/>
	<advance width="600"/>
	<outline>
		<contour>
			<point x="340" y="-224" type="curve" smooth="yes"/>
			<point x="374" y="-224"/>
			<point x="400" y="-212"/>
			<point x="420" y="-195" type="curve"/>
			<point x="406" y="-173" type="line"/>
			<point x="390" y="-184"/>
			<point x="373" y="-191"/>
			<point x="352" y="-191" type="curve" smooth="yes"/>
			<point x="317" y="-191"/>
			<point x="289" y="-176"/>
			<point x="289" y="-139" type="curve" smooth="yes"/>
			<point x="289" y="-81"/>
			<point x="365" y="-11"/>
			<point x="473" y="63" type="curve"/>
			<point x="453" y="93" type="line"/>
			<point x="408" y="53"/>
			<point x="345" y="24"/>
			<point x="277" y="24" type="curve" smooth="yes"/>
			<point x="174" y="24"/>
			<point x="114" y="92"/>
			<point x="114" y="195" type="curve" smooth="yes"/>
			<point x="114" y="344"/>
			<point x="227" y="457"/>
			<point x="339" y="457" type="curve" smooth="yes"/>
			<point x="425" y="457"/>
			<point x="478" y="400"/>
			<point x="478" y="313" type="curve" smooth="yes"/>
			<point x="478" y="297"/>
			<point x="476" y="279"/>
			<point x="472" y="264" type="curve"/>
			<point x="500" y="272" type="line"/>
			<point x="113" y="272" type="line"/>
			<point x="106" y="237" type="line"/>
			<point x="508" y="237" type="line"/>
			<point x="512" y="248"/>
			<point x="518" y="279"/>
			<point x="518" y="310" type="curve" smooth="yes"/>
			<point x="518" y="414"/>
			<point x="457" y="492"/>
			<point x="343" y="492" type="curve" smooth="yes"/>
			<point x="200" y="492"/>
			<point x="72" y="365"/>
			<point x="72" y="192" type="curve" smooth="yes"/>
			<point x="72" y="64"/>
			<point x="147" y="-12"/>
			<point x="271" y="-12" type="curve" smooth="yes"/>
			<point x="303" y="-12"/>
			<point x="331" y="-5"/>
			<point x="354" y="2" type="curve"/>
			<point x="300" y="-43"/>
			<point x="253" y="-91"/>
			<point x="253" y="-151" type="curve" smooth="yes"/>
			<point x="253" y="-203"/>
			<point x="296" y="-224"/>
		</contour>
		<contour>
			<point name="aboveLC" x="349" y="502" type="move"/>
		</contour>
	</outline>
</glyph>
<glyph name="dotlessi" format="1">
	<unicode hex="0131"/>
	<advance width="600"/>
	<outline>
		<contour>
			<point x="350" y="-12" type="curve" smooth="yes"/>
			<point x="399" y="-12"/>
			<point x="434" y="2"/>
			<point x="474" y="21" type="curve"/>
			<point x="462" y="53" type="line"/>
			<point x="425" y="36"/>
			<point x="394" y="24"/>
			<point x="359" y="24" type="curve" smooth="yes"/>
			<point x="311" y="24"/>
			<point x="277" y="48"/>
			<point x="277" y="105" type="curve" smooth="yes"/>
			<point x="277" y="115"/>
			<point x="278" y="127"/>
			<point x="281" y="140" type="curve" smooth="yes"/>
			<point x="353" y="480" type="line"/>
			<point x="127" y="480" type="line"/>
			<point x="119" y="444" type="line"/>
			<point x="305" y="444" type="line"/>
			<point x="241" y="148" type="line" smooth="yes"/>
			<point x="237" y="129"/>
			<point x="235" y="113"/>
			<point x="235" y="98" type="curve" smooth="yes"/>
			<point x="235" y="23"/>
			<point x="283" y="-12"/>
		</contour>
		<contour>
			<point name="ogonekLC" x="376" y="0" type="move"/>
		</contour>
		<contour>
			<point name="aboveLC" x="320" y="502" type="move"/>
		</contour>
		<contour>
			<point name="baseLC" x="358" y="0" type="move"/>
		</contour>
		<contour>
			<point name="belowLC" x="345" y="-20" type="move"/>
		</contour>
	</outline>
</glyph>
<glyph name="IJ" format="1">
	<unicode hex="0132"/>
	<advance width="600"/>
	<outline>
		<contour>
			<point x="61" y="0" type="line"/>
			<point x="104" y="0" type="line"/>
			<point x="236" y="659" type="line"/>
			<point x="193" y="659" type="line"/>
		</contour>
		<contour>
			<point x="292" y="-153" type="curve" smooth="yes"/>
			<point x="359" y="-153"/>
			<point x="398" y="-98"/>
			<point x="415" y="-10" type="curve" smooth="yes"/>
			<point x="548" y="659" type="line"/>
			<point x="505" y="659" type="line"/>
			<point x="370" y="-16" type="line"/>
			<point x="357" y="-77"/>
			<point x="332" y="-115"/>
			<point x="293" y="-115" type="curve" smooth="yes"/>
			<point x="268" y="-115"/>
			<point x="258" y="-110"/>
			<point x="245" y="-102" type="curve"/>
			<point x="230" y="-136" type="line"/>
			<point x="246" y="-145"/>
			<point x="264" y="-153"/>
		</contour>
	</outline>
</glyph>
<glyph name="lslash" format="1">
	<unicode hex="0142"/>
	<advance width="600"/>
	<outline>
		<contour>
			<point x="125" y="298" type="line"/>
			<point x="267" y="371" type="line"/>
			<point x="293" y="382" type="line"/>
			<point x="502" y="492" type="line"/>
			<point x="490" y="521" type="line"/>
			<point x="302" y="424" type="line"/>
			<point x="275" y="412" type="line"/>
			<point x="113" y="327" type="line"/>
		</contour>
		<component base="l"/>
		<contour>
			<point name="aboveUC" x="346" y="739" type="move"/>
		</contour>
		<contour>
			<point name="belowLC" x="328" y="-20" type="move"/>
		</contour>
	</outline>
</glyph>
<glyph name="napostrophe" format="1">
	<unicode hex="0149"/>
	<advance width="600"/>
	<outline>
		<contour>
			<point x="127" y="0" type="line"/>
			<point x="168" y="0" type="line"/>
			<point x="234" y="324" type="line"/>
			<point x="311" y="403"/>
			<point x="380" y="455"/>
			<point x="455" y="455" type="curve" smooth="yes"/>
			<point x="509" y="455"/>
			<point x="537" y="423"/>
			<point x="537" y="366" type="curve" smooth="yes"/>
			<point x="537" y="340"/>
			<point x="533" y="317"/>
			<point x="528" y="288" type="curve" smooth="yes"/>
			<point x="470" y="0" type="line"/>
			<point x="511" y="0" type="line"/>
			<point x="569" y="292" type="line" smooth="yes"/>
			<point x="575" y="320"/>
			<point x="579" y="344"/>
			<point x="579" y="375" type="curve" smooth="yes"/>
			<point x="579" y="443"/>
			<point x="547" y="492"/>
			<point x="467" y="492" type="curve" smooth="yes"/>
			<point x="374" y="492"/>
			<point x="310" y="436"/>
			<point x="246" y="375" type="curve"/>
			<point x="242" y="375" type="line"/>
			<point x="258" y="480" type="line"/>
			<point x="223" y="480" type="line"/>
		</contour>
		<component base="quoteright" xOffset="-227"/>
	</outline>
</glyph>
<glyph name="eng" format="2">
	<unicode hex="014B"/>
	<advance width="600"/>
	<outline>
		<contour>
			<point x="323" y="-181" type="curve" smooth="yes"/>
			<point x="392" y="-181"/>
			<point x="426" y="-133"/>
			<point x="444" y="-43" type="curve" smooth="yes"/>
			<point x="511" y="292" type="line" smooth="yes"/>
			<point x="517" y="320"/>
			<point x="521" y="344"/>
			<point x="521" y="375" type="curve" smooth="yes"/>
			<point x="521" y="443"/>
			<point x="486" y="492"/>
			<point x="398" y="492" type="curve" smooth="yes"/>
			<point x="302" y="492"/>
			<point x="230" y="435"/>
			<point x="166" y="373" type="curve"/>
			<point x="162" y="373" type="line"/>
			<point x="178" y="480" type="line"/>
			<point x="144" y="480" type="line"/>
			<point x="48" y="0" type="line"/>
			<point x="89" y="0" type="line"/>
			<point x="154" y="321" type="line"/>
			<point x="232" y="404"/>
			<point x="308" y="455"/>
			<point x="387" y="455" type="curve" smooth="yes"/>
			<point x="447" y="455"/>
			<point x="480" y="423"/>
			<point x="480" y="366" type="curve" smooth="yes"/>
			<point x="480" y="340"/>
			<point x="476" y="317"/>
			<point x="470" y="288" type="curve" smooth="yes"/>
			<point x="403" y="-44" type="line" smooth="yes"/>
			<point x="389" y="-111"/>
			<point x="366" y="-145"/>
			<point x="324" y="-145" type="curve" smooth="yes"/>
			<point x="299" y="-145"/>
			<point x="288" y="-139"/>
			<point x="276" y="-131" type="curve"/>
			<point x="261" y="-164" type="line"/>
			<point x="277" y="-173"/>
			<point x="294" y="-181"/>
		</contour>
	</outline>
	<anchor name="aboveLC" x="350" y="502"/>
</glyph>
<glyph name="Tbar" format="1">
	<unicode hex="0166"/>
	<advance width="600"/>
	<outline>
		<contour>
			<point x="150" y="352" type="line"/>
			<point x="462" y="352" type="line"/>
			<point x="469" y="385" type="line"/>
			<point x="233" y="385" type="line"/>
			<point x="155" y="380" type="line"/>
		</contour>
		<component base="T"/>
		<contour>
			<point name="aboveUC" x="374" y="679" type="move"/>
		</contour>
		<contour>
			<point name="belowLC" x="234" y="-20" type="move"/>
		</contour>
	</outline>
</glyph>
<glyph name="tbar" format="2">
	<unicode hex="0167"/>
	<advance width="600"/>
	<outline>
		<contour>
			<point x="47" y="237" type="line"/>
			<point x="471" y="237" type="line"/>
			<point x="477" y="272" type="line"/>
			<point x="200" y="272" type="line"/>
			<point x="53" y="268" type="line"/>
		</contour>
		<component base="t"/>
	</outline>
</glyph>
<glyph name="bstroke" format="1">
	<unicode hex="0180"/>
	<advance width="600"/>
	<outline>
		<contour>
			<point x="260" y="-12" type="curve" smooth="yes"/>
			<point x="414" y="-12"/>
			<point x="528" y="118"/>
			<point x="528" y="281" type="curve" smooth="yes"/>
			<point x="528" y="404"/>
			<point x="460" y="472"/>
			<point x="358" y="472" type="curve" smooth="yes"/>
			<point x="287" y="472"/>
			<point x="218" y="430"/>
			<point x="167" y="383" type="curve"/>
			<point x="163" y="383" type="line"/>
			<point x="186" y="490" type="line"/>
			<point x="232" y="719" type="line"/>
			<point x="191" y="719" type="line"/>
			<point x="48" y="0" type="line"/>
			<point x="83" y="0" type="line"/>
			<point x="99" y="66" type="line"/>
			<point x="103" y="66" type="line"/>
			<point x="136" y="21"/>
			<point x="191" y="-12"/>
		</contour>
		<contour>
			<point x="259" y="24" type="curve" smooth="yes"/>
			<point x="204" y="24"/>
			<point x="153" y="46"/>
			<point x="110" y="107" type="curve"/>
			<point x="156" y="335" type="line"/>
			<point x="215" y="394"/>
			<point x="291" y="436"/>
			<point x="350" y="436" type="curve" smooth="yes"/>
			<point x="433" y="436"/>
			<point x="486" y="381"/>
			<point x="486" y="274" type="curve" smooth="yes"/>
			<point x="486" y="142"/>
			<point x="388" y="24"/>
		</contour>
		<contour>
			<point x="87" y="581" type="line"/>
			<point x="435" y="581" type="line"/>
			<point x="443" y="616" type="line"/>
			<point x="171" y="616" type="line"/>
			<point x="92" y="611" type="line"/>
		</contour>
	</outline>
</glyph>
<glyph name="Dhook" format="1">
	<unicode hex="018A"/>
	<advance width="600"/>
	<outline>
		<contour>
			<point x="160" y="0" type="line"/>
			<point x="209" y="0" type="line" smooth="yes"/>
			<point x="449" y="0"/>
			<point x="576" y="178"/>
			<point x="576" y="407" type="curve" smooth="yes"/>
			<point x="576" y="569"/>
			<point x="492" y="671"/>
			<point x="326" y="671" type="curve" smooth="yes"/>
			<point x="157" y="671"/>
			<point x="54" y="533"/>
			<point x="54" y="403" type="curve" smooth="yes"/>
			<point x="54" y="337"/>
			<point x="84" y="291"/>
			<point x="130" y="268" type="curve"/>
			<point x="153" y="300" type="line"/>
			<point x="112" y="323"/>
			<point x="92" y="359"/>
			<point x="92" y="407" type="curve" smooth="yes"/>
			<point x="92" y="516"/>
			<point x="182" y="635"/>
			<point x="313" y="635" type="curve" smooth="yes"/>
			<point x="322" y="635" type="line" smooth="yes"/>
			<point x="465" y="635"/>
			<point x="532" y="544"/>
			<point x="532" y="404" type="curve" smooth="yes"/>
			<point x="532" y="195"/>
			<point x="417" y="36"/>
			<point x="218" y="36" type="curve" smooth="yes"/>
			<point x="209" y="36" type="line"/>
			<point x="329" y="641" type="line"/>
			<point x="288" y="641" type="line"/>
		</contour>
		<contour>
			<point name="aboveUC" x="381" y="679" type="move"/>
		</contour>
		<contour>
			<point name="belowLC" x="279" y="-20" type="move"/>
		</contour>
	</outline>
</glyph>
<glyph name="Schwa" format="2">
	<unicode hex="018F"/>
	<advance width="600"/>
	<outline>
		<contour>
			<point x="236" y="-12" type="curve" smooth="yes"/>
			<point x="422" y="-12"/>
			<point x="563" y="176"/>
			<point x="563" y="429" type="curve" smooth="yes"/>
			<point x="563" y="581"/>
			<point x="501" y="671"/>
			<point x="375" y="671" type="curve" smooth="yes"/>
			<point x="296" y="671"/>
			<point x="219" y="634"/>
			<point x="171" y="593" type="curve"/>
			<point x="192" y="564" type="line"/>
			<point x="238" y="604"/>
			<point x="304" y="635"/>
			<point x="369" y="635" type="curve" smooth="yes"/>
			<point x="472" y="635"/>
			<point x="520" y="552"/>
			<point x="520" y="425" type="curve" smooth="yes"/>
			<point x="520" y="200"/>
			<point x="399" y="24"/>
			<point x="238" y="24" type="curve" smooth="yes"/>
			<point x="123" y="24"/>
			<point x="88" y="137"/>
			<point x="109" y="297" type="curve"/>
			<point x="516" y="297" type="line"/>
			<point x="523" y="332" type="line"/>
			<point x="73" y="332" type="line"/>
			<point x="66" y="291"/>
			<point x="62" y="252"/>
			<point x="62" y="216" type="curve" smooth="yes"/>
			<point x="62" y="56"/>
			<point x="128" y="-12"/>
		</contour>
	</outline>
	<anchor name="aboveUC" x="374" y="679"/>
	<anchor name="baseLC" x="251" y="0"/>
	<anchor name="belowLC" x="245" y="-20"/>
	<anchor name="ogonekUC" x="251" y="0"/>
</glyph>
<glyph name="florin" format="2">
	<unicode hex="0192"/>
	<advance width="600"/>
	<outline>
		<contour>
			<point x="69" y="-98" type="curve" smooth="yes"/>
			<point x="136" y="-98"/>
			<point x="194" y="-72"/>
			<point x="233" y="52" type="curve" smooth="yes"/>
			<point x="376" y="503" type="line" smooth="yes"/>
			<point x="400" y="583"/>
			<point x="438" y="639"/>
			<point x="508" y="639" type="curve" smooth="yes"/>
			<point x="544" y="639"/>
			<point x="566" y="624"/>
			<point x="582" y="611" type="curve"/>
			<point x="603" y="637" type="line"/>
			<point x="584" y="654"/>
			<point x="552" y="671"/>
			<point x="513" y="671" type="curve" smooth="yes"/>
			<point x="423" y="671"/>
			<point x="374" y="622"/>
			<point x="338" y="508" type="curve" smooth="yes"/>
			<point x="196" y="57" type="line" smooth="yes"/>
			<point x="170" y="-26"/>
			<point x="131" y="-63"/>
			<point x="77" y="-63" type="curve" smooth="yes"/>
			<point x="42" y="-64"/>
			<point x="14" y="-52"/>
			<point x="-4" y="-39" type="curve"/>
			<point x="-22" y="-71" type="line"/>
			<point x="-5" y="-82"/>
			<point x="30" y="-98"/>
		</contour>
		<contour>
			<point x="180" y="373" type="line"/>
			<point x="498" y="373" type="line"/>
			<point x="504" y="405" type="line"/>
			<point x="254" y="405" type="line"/>
			<point x="186" y="401" type="line"/>
		</contour>
	</outline>
</glyph>
<glyph name="Ghook" format="1">
	<unicode hex="0193"/>
	<advance width="600"/>
	<outline>
		<contour>
			<point x="569" y="578" type="line"/>
			<point x="549" y="618"/>
			<point x="541" y="647"/>
			<point x="541" y="689" type="curve" smooth="yes"/>
			<point x="541" y="725"/>
			<point x="562" y="757"/>
			<point x="599" y="757" type="curve" smooth="yes"/>
			<point x="612" y="757"/>
			<point x="622" y="753"/>
			<point x="634" y="745" type="curve"/>
			<point x="650" y="776" type="line"/>
			<point x="635" y="786"/>
			<point x="620" y="793"/>
			<point x="598" y="793" type="curve" smooth="yes"/>
			<point x="540" y="793"/>
			<point x="505" y="751"/>
			<point x="505" y="686" type="curve" smooth="yes"/>
			<point x="505" y="665"/>
			<point x="509" y="640"/>
			<point x="520" y="603" type="curve"/>
		</contour>
		<component base="G"/>
	</outline>
</glyph>
<glyph name="Ohorn" format="2">
	<unicode hex="01A0"/>
	<advance width="600"/>
	<outline>
		<contour>
			<point x="484" y="616" type="line"/>
			<point x="554" y="627"/>
			<point x="614" y="668"/>
			<point x="614" y="748" type="curve" smooth="yes"/>
			<point x="614" y="766"/>
			<point x="610" y="783"/>
			<point x="603" y="805" type="curve"/>
			<point x="564" y="789" type="line"/>
			<point x="571" y="771"/>
			<point x="573" y="755"/>
			<point x="573" y="741" type="curve" smooth="yes"/>
			<point x="573" y="682"/>
			<point x="527" y="646"/>
			<point x="455" y="643" type="curve"/>
		</contour>
		<component base="O"/>
	</outline>
	<anchor name="aboveUC" x="374" y="679"/>
	<anchor name="belowLC" x="234" y="-20"/>
</glyph>
<glyph name="clickalveolar" format="1">
	<unicode hex="01C2"/>
	<advance width="600"/>
	<outline>
		<contour>
			<point x="173" y="-217" type="line"/>
			<point x="215" y="-217" type="line"/>
			<point x="405" y="719" type="line"/>
			<point x="364" y="719" type="line"/>
		</contour>
		<contour>
			<point x="100" y="332" type="line"/>
			<point x="507" y="332" type="line"/>
			<point x="515" y="367" type="line"/>
			<point x="294" y="367" type="line"/>
			<point x="105" y="363" type="line"/>
		</contour>
		<contour>
			<point x="69" y="174" type="line"/>
			<point x="476" y="174" type="line"/>
			<point x="484" y="210" type="line"/>
			<point x="263" y="210" type="line"/>
			<point x="74" y="205" type="line"/>
		</contour>
	</outline>
</glyph>
<glyph name="oogonek" format="2">
	<unicode hex="01EB"/>
	<advance width="600"/>
	<outline>
		<contour>
			<point x="212" y="-224" type="curve" smooth="yes"/>
			<point x="246" y="-224"/>
			<point x="272" y="-212"/>
			<point x="291" y="-195" type="curve"/>
			<point x="278" y="-173" type="line"/>
			<point x="262" y="-184"/>
			<point x="245" y="-192"/>
			<point x="224" y="-192" type="curve" smooth="yes"/>
			<point x="189" y="-192"/>
			<point x="161" y="-176"/>
			<point x="161" y="-139" type="curve" smooth="yes"/>
			<point x="161" y="-98"/>
			<point x="209" y="-26"/>
			<point x="303" y="-6" type="curve" smooth="yes"/>
			<point x="417" y="19"/>
			<point x="521" y="128"/>
			<point x="521" y="284" type="curve" smooth="yes"/>
			<point x="521" y="406"/>
			<point x="449" y="492"/>
			<point x="327" y="492" type="curve" smooth="yes"/>
			<point x="179" y="492"/>
			<point x="53" y="362"/>
			<point x="53" y="196" type="curve" smooth="yes"/>
			<point x="53" y="74"/>
			<point x="125" y="-2"/>
			<point x="221" y="-10" type="curve"/>
			<point x="173" y="-39"/>
			<point x="125" y="-94"/>
			<point x="125" y="-151" type="curve" smooth="yes"/>
			<point x="125" y="-203"/>
			<point x="168" y="-224"/>
		</contour>
		<contour>
			<point x="250" y="24" type="curve" smooth="yes"/>
			<point x="152" y="24"/>
			<point x="95" y="94"/>
			<point x="95" y="202" type="curve" smooth="yes"/>
			<point x="95" y="339"/>
			<point x="203" y="456"/>
			<point x="324" y="456" type="curve" smooth="yes"/>
			<point x="423" y="456"/>
			<point x="480" y="386"/>
			<point x="480" y="279" type="curve" smooth="yes"/>
			<point x="480" y="141"/>
			<point x="371" y="24"/>
		</contour>
	</outline>
	<anchor name="aboveLC" x="340" y="502"/>
</glyph>
<glyph name="Aringacute" format="1">
	<unicode hex="01FA"/>
	<advance width="600"/>
	<outline>
		<contour>
			<point x="376" y="838" type="line"/>
			<point x="514" y="911" type="line"/>
			<point x="494" y="941" type="line"/>
			<point x="356" y="856" type="line"/>
		</contour>
		<component base="Aring"/>
	</outline>
</glyph>
<glyph name="aringacute" format="2">
	<unicode hex="01FB"/>
	<advance width="600"/>
	<outline>
		<contour>
			<point x="364" y="706" type="line"/>
			<point x="502" y="790" type="line"/>
			<point x="481" y="820" type="line"/>
			<point x="348" y="725" type="line"/>
		</contour>
		<component base="aring"/>
	</outline>
</glyph>
<glyph name="dotlessj" format="1">
	<unicode hex="0237"/>
	<advance width="600"/>
	<outline>
		<contour>
			<point x="112" y="-229" type="curve" smooth="yes"/>
			<point x="240" y="-229"/>
			<point x="296" y="-162"/>
			<point x="321" y="-39" type="curve" smooth="yes"/>
			<point x="425" y="480" type="line"/>
			<point x="149" y="480" type="line"/>
			<point x="141" y="444" type="line"/>
			<point x="376" y="444" type="line"/>
			<point x="278" y="-43" type="line" smooth="yes"/>
			<point x="260" y="-131"/>
			<point x="215" y="-193"/>
			<point x="116" y="-193" type="curve" smooth="yes"/>
			<point x="69" y="-193"/>
			<point x="34" y="-178"/>
			<point x="6" y="-156" type="curve"/>
			<point x="-15" y="-187" type="line"/>
			<point x="12" y="-207"/>
			<point x="59" y="-229"/>
		</contour>
		<contour>
			<point name="aboveLC" x="391" y="502" type="move"/>
		</contour>
		<contour>
			<point name="belowLC" x="134" y="-227" type="move"/>
		</contour>
	</outline>
</glyph>
<glyph name="alphalatinturned" format="2">
	<unicode hex="0252"/>
	<advance width="600"/>
	<outline>
		<contour>
			<point x="260" y="-12" type="curve" smooth="yes"/>
			<point x="417" y="-12"/>
			<point x="528" y="127"/>
			<point x="528" y="300" type="curve" smooth="yes"/>
			<point x="528" y="424"/>
			<point x="460" y="492"/>
			<point x="358" y="492" type="curve" smooth="yes"/>
			<point x="288" y="492"/>
			<point x="221" y="448"/>
			<point x="170" y="402" type="curve"/>
			<point x="166" y="402" type="line"/>
			<point x="179" y="480" type="line"/>
			<point x="144" y="480" type="line"/>
			<point x="48" y="0" type="line"/>
			<point x="82" y="0" type="line"/>
			<point x="99" y="66" type="line"/>
			<point x="102" y="66" type="line"/>
			<point x="135" y="21"/>
			<point x="193" y="-12"/>
		</contour>
		<contour>
			<point x="259" y="24" type="curve" smooth="yes"/>
			<point x="204" y="24"/>
			<point x="153" y="45"/>
			<point x="110" y="107" type="curve"/>
			<point x="160" y="355" type="line"/>
			<point x="219" y="414"/>
			<point x="293" y="456"/>
			<point x="351" y="456" type="curve" smooth="yes"/>
			<point x="433" y="456"/>
			<point x="486" y="401"/>
			<point x="486" y="293" type="curve" smooth="yes"/>
			<point x="486" y="151"/>
			<point x="391" y="24"/>
		</contour>
	</outline>
	<anchor name="aboveLC" x="355" y="502"/>
	<anchor name="belowLC" x="258" y="-20"/>
</glyph>
<glyph name="bhook" format="1">
	<unicode hex="0253"/>
	<advance width="600"/>
	<outline>
		<contour>
			<point x="260" y="-12" type="curve" smooth="yes"/>
			<point x="417" y="-12"/>
			<point x="527" y="126"/>
			<point x="527" y="299" type="curve" smooth="yes"/>
			<point x="527" y="422"/>
			<point x="460" y="490"/>
			<point x="358" y="490" type="curve" smooth="yes"/>
			<point x="288" y="490"/>
			<point x="222" y="446"/>
			<point x="170" y="401" type="curve"/>
			<point x="167" y="401" type="line"/>
			<point x="199" y="548" type="line" smooth="yes"/>
			<point x="225" y="657"/>
			<point x="269" y="695"/>
			<point x="339" y="695" type="curve" smooth="yes"/>
			<point x="365" y="695"/>
			<point x="390" y="687"/>
			<point x="409" y="673" type="curve"/>
			<point x="427" y="706" type="line"/>
			<point x="404" y="721"/>
			<point x="372" y="731"/>
			<point x="341" y="731" type="curve" smooth="yes"/>
			<point x="247" y="731"/>
			<point x="183" y="678"/>
			<point x="158" y="551" type="curve" smooth="yes"/>
			<point x="48" y="0" type="line"/>
			<point x="82" y="0" type="line"/>
			<point x="99" y="66" type="line"/>
			<point x="103" y="66" type="line"/>
			<point x="136" y="21"/>
			<point x="193" y="-12"/>
		</contour>
		<contour>
			<point x="259" y="24" type="curve" smooth="yes"/>
			<point x="204" y="24"/>
			<point x="153" y="45"/>
			<point x="110" y="107" type="curve"/>
			<point x="159" y="353" type="line"/>
			<point x="219" y="412"/>
			<point x="293" y="454"/>
			<point x="350" y="454" type="curve" smooth="yes"/>
			<point x="433" y="454"/>
			<point x="486" y="399"/>
			<point x="486" y="292" type="curve" smooth="yes"/>
			<point x="486" y="150"/>
			<point x="391" y="24"/>
		</contour>
		<contour>
			<point name="aboveUC" x="359" y="739" type="move"/>
		</contour>
		<contour>
			<point name="belowLC" x="258" y="-20" type="move"/>
		</contour>
	</outline>
</glyph>
<glyph name="ccurl" format="1">
	<unicode hex="0255"/>
	<advance width="600"/>
	<outline>
		<contour>
			<point x="84" y="-103" type="line"/>
			<point x="165" y="46"/>
			<point x="279" y="141"/>
			<point x="366" y="141" type="curve" smooth="yes"/>
			<point x="412" y="141"/>
			<point x="429" y="120"/>
			<point x="429" y="97" type="curve" smooth="yes"/>
			<point x="429" y="55"/>
			<point x="379" y="24"/>
			<point x="302" y="24" type="curve" smooth="yes"/>
			<point x="198" y="24"/>
			<point x="111" y="85"/>
			<point x="111" y="207" type="curve" smooth="yes"/>
			<point x="111" y="346"/>
			<point x="234" y="457"/>
			<point x="349" y="457" type="curve" smooth="yes"/>
			<point x="423" y="457"/>
			<point x="470" y="431"/>
			<point x="507" y="383" type="curve"/>
			<point x="536" y="407" type="line"/>
			<point x="502" y="453"/>
			<point x="441" y="492"/>
			<point x="359" y="492" type="curve" smooth="yes"/>
			<point x="211" y="492"/>
			<point x="71" y="374"/>
			<point x="71" y="201" type="curve" smooth="yes"/>
			<point x="71" y="61"/>
			<point x="176" y="-12"/>
			<point x="298" y="-12" type="curve" smooth="yes"/>
			<point x="408" y="-12"/>
			<point x="467" y="38"/>
			<point x="467" y="105" type="curve" smooth="yes"/>
			<point x="467" y="146"/>
			<point x="437" y="175"/>
			<point x="371" y="175" type="curve" smooth="yes"/>
			<point x="265" y="175"/>
			<point x="140" y="71"/>
			<point x="49" y="-88" type="curve"/>
		</contour>
		<contour>
			<point name="aboveLC" x="358" y="502" type="move"/>
		</contour>
		<contour>
			<point name="belowLC" x="271" y="-20" type="move"/>
		</contour>
	</outline>
</glyph>
<glyph name="dtail" format="1">
	<unicode hex="0256"/>
	<advance width="600"/>
	<outline>
		<contour>
			<point x="461" y="-181" type="curve" smooth="yes"/>
			<point x="480" y="-181"/>
			<point x="503" y="-175"/>
			<point x="515" y="-169" type="curve"/>
			<point x="513" y="-133" type="line"/>
			<point x="503" y="-137"/>
			<point x="486" y="-143"/>
			<point x="471" y="-143" type="curve" smooth="yes"/>
			<point x="441" y="-143"/>
			<point x="429" y="-126"/>
			<point x="429" y="-97" type="curve" smooth="yes"/>
			<point x="429" y="-82"/>
			<point x="433" y="-66"/>
			<point x="436" y="-47" type="curve" smooth="yes"/>
			<point x="591" y="720" type="line"/>
			<point x="550" y="720" type="line"/>
			<point x="508" y="511" type="line"/>
			<point x="489" y="416" type="line"/>
			<point x="485" y="416" type="line"/>
			<point x="455" y="462"/>
			<point x="401" y="492"/>
			<point x="330" y="492" type="curve" smooth="yes"/>
			<point x="178" y="492"/>
			<point x="62" y="341"/>
			<point x="62" y="171" type="curve" smooth="yes"/>
			<point x="62" y="51"/>
			<point x="130" y="-12"/>
			<point x="231" y="-12" type="curve" smooth="yes"/>
			<point x="297" y="-12"/>
			<point x="364" y="25"/>
			<point x="416" y="76" type="curve"/>
			<point x="420" y="77" type="line"/>
			<point x="406" y="12"/>
			<point x="387" y="-62"/>
			<point x="387" y="-107" type="curve" smooth="yes"/>
			<point x="387" y="-158"/>
			<point x="410" y="-181"/>
		</contour>
		<contour>
			<point x="239" y="24" type="curve" smooth="yes"/>
			<point x="157" y="24"/>
			<point x="104" y="74"/>
			<point x="104" y="179" type="curve" smooth="yes"/>
			<point x="104" y="319"/>
			<point x="202" y="456"/>
			<point x="331" y="456" type="curve" smooth="yes"/>
			<point x="387" y="456"/>
			<point x="439" y="432"/>
			<point x="480" y="370" type="curve"/>
			<point x="430" y="130" type="line"/>
			<point x="369" y="63"/>
			<point x="300" y="24"/>
		</contour>
		<contour>
			<point name="aboveUC" x="567" y="739" type="move"/>
		</contour>
		<contour>
			<point name="belowLC" x="242" y="-38" type="move"/>
		</contour>
	</outline>
</glyph>
<glyph name="dhook" format="2">
	<unicode hex="0257"/>
	<advance width="600"/>
	<outline>
		<contour>
			<point x="231" y="-12" type="curve" smooth="yes"/>
			<point x="298" y="-12"/>
			<point x="365" y="26"/>
			<point x="418" y="78" type="curve"/>
			<point x="422" y="78" type="line"/>
			<point x="411" y="1" type="line"/>
			<point x="446" y="1" type="line"/>
			<point x="566" y="595" type="line" smooth="yes"/>
			<point x="578" y="653"/>
			<point x="597" y="693"/>
			<point x="640" y="693" type="curve" smooth="yes"/>
			<point x="653" y="693"/>
			<point x="666" y="689"/>
			<point x="678" y="684" type="curve"/>
			<point x="694" y="720" type="line"/>
			<point x="682" y="727"/>
			<point x="663" y="731"/>
			<point x="646" y="731" type="curve" smooth="yes"/>
			<point x="579" y="731"/>
			<point x="545" y="693"/>
			<point x="526" y="599" type="curve" smooth="yes"/>
			<point x="489" y="416" type="line"/>
			<point x="485" y="416" type="line"/>
			<point x="455" y="462"/>
			<point x="401" y="492"/>
			<point x="330" y="492" type="curve" smooth="yes"/>
			<point x="178" y="492"/>
			<point x="62" y="341"/>
			<point x="62" y="171" type="curve" smooth="yes"/>
			<point x="62" y="51"/>
			<point x="130" y="-12"/>
		</contour>
		<contour>
			<point x="239" y="24" type="curve" smooth="yes"/>
			<point x="157" y="24"/>
			<point x="104" y="74"/>
			<point x="104" y="179" type="curve" smooth="yes"/>
			<point x="104" y="319"/>
			<point x="202" y="456"/>
			<point x="331" y="456" type="curve" smooth="yes"/>
			<point x="387" y="456"/>
			<point x="439" y="432"/>
			<point x="480" y="370" type="curve"/>
			<point x="430" y="130" type="line"/>
			<point x="369" y="63"/>
			<point x="300" y="24"/>
		</contour>
	</outline>
	<anchor name="aboveUC" x="324" y="739"/>
	<anchor name="belowLC" x="248" y="-20"/>
</glyph>
<glyph name="schwa" format="2">
	<unicode hex="0259"/>
	<advance width="600"/>
	<outline>
		<contour>
			<point x="238" y="-12" type="curve" smooth="yes"/>
			<point x="408" y="-12"/>
			<point x="527" y="113"/>
			<point x="527" y="294" type="curve" smooth="yes"/>
			<point x="527" y="421"/>
			<point x="461" y="492"/>
			<point x="337" y="492" type="curve" smooth="yes"/>
			<point x="254" y="492"/>
			<point x="185" y="465"/>
			<point x="137" y="432" type="curve"/>
			<point x="156" y="401" type="line"/>
			<point x="206" y="435"/>
			<point x="260" y="457"/>
			<point x="332" y="457" type="curve" smooth="yes"/>
			<point x="436" y="457"/>
			<point x="485" y="394"/>
			<point x="485" y="295" type="curve" smooth="yes"/>
			<point x="485" y="137"/>
			<point x="386" y="24"/>
			<point x="243" y="24" type="curve" smooth="yes"/>
			<point x="158" y="24"/>
			<point x="99" y="73"/>
			<point x="98" y="170" type="curve" smooth="yes"/>
			<point x="98" y="188"/>
			<point x="100" y="208"/>
			<point x="105" y="229" type="curve"/>
			<point x="87" y="221" type="line"/>
			<point x="493" y="221" type="line"/>
			<point x="497" y="257" type="line"/>
			<point x="72" y="257" type="line"/>
			<point x="68" y="244"/>
			<point x="59" y="211"/>
			<point x="59" y="170" type="curve" smooth="yes"/>
			<point x="59" y="52"/>
			<point x="133" y="-12"/>
		</contour>
	</outline>
	<anchor name="aboveLC" x="342" y="502"/>
	<anchor name="baseLC" x="249" y="0"/>
	<anchor name="belowLC" x="244" y="-20"/>
	<anchor name="ogonekLC" x="249" y="0"/>
</glyph>
<glyph name="eopen" format="2">
	<unicode hex="025B"/>
	<advance width="600"/>
	<outline>
		<contour>
			<point x="253" y="-12" type="curve" smooth="yes"/>
			<point x="340" y="-12"/>
			<point x="390" y="-2"/>
			<point x="464" y="47" type="curve"/>
			<point x="448" y="79" type="line"/>
			<point x="380" y="33"/>
			<point x="336" y="24"/>
			<point x="259" y="24" type="curve" smooth="yes"/>
			<point x="172" y="24"/>
			<point x="98" y="71"/>
			<point x="98" y="129" type="curve" smooth="yes"/>
			<point x="98" y="203"/>
			<point x="165" y="237"/>
			<point x="294" y="237" type="curve"/>
			<point x="369" y="237" type="line"/>
			<point x="377" y="272" type="line"/>
			<point x="316" y="272" type="line"/>
			<point x="214" y="272"/>
			<point x="170" y="305"/>
			<point x="170" y="361" type="curve" smooth="yes"/>
			<point x="170" y="413"/>
			<point x="222" y="457"/>
			<point x="320" y="457" type="curve" smooth="yes"/>
			<point x="397" y="457"/>
			<point x="448" y="435"/>
			<point x="495" y="383" type="curve"/>
			<point x="520" y="411" type="line"/>
			<point x="481" y="456"/>
			<point x="409" y="492"/>
			<point x="323" y="492" type="curve" smooth="yes"/>
			<point x="208" y="492"/>
			<point x="128" y="443"/>
			<point x="128" y="358" type="curve" smooth="yes"/>
			<point x="128" y="312"/>
			<point x="151" y="283"/>
			<point x="202" y="261" type="curve"/>
			<point x="201" y="257" type="line"/>
			<point x="131" y="248"/>
			<point x="57" y="212"/>
			<point x="57" y="121" type="curve" smooth="yes"/>
			<point x="57" y="46"/>
			<point x="141" y="-12"/>
		</contour>
	</outline>
</glyph>
<glyph name="dotlessjstroke" format="2">
	<unicode hex="025F"/>
	<advance width="600"/>
	<outline>
		<contour>
			<point x="137" y="231" type="line"/>
			<point x="556" y="231" type="line"/>
			<point x="562" y="266" type="line"/>
			<point x="343" y="266" type="line"/>
			<point x="142" y="262" type="line"/>
		</contour>
		<component base="dotlessj"/>
	</outline>
</glyph>
<glyph name="gsmall" format="2">
	<unicode hex="0262"/>
	<advance width="600"/>
	<outline>
		<contour>
			<point x="273" y="-12" type="curve" smooth="yes"/>
			<point x="354" y="-12"/>
			<point x="423" y="12"/>
			<point x="466" y="46" type="curve"/>
			<point x="504" y="241" type="line"/>
			<point x="313" y="241" type="line"/>
			<point x="308" y="208" type="line"/>
			<point x="457" y="208" type="line"/>
			<point x="428" y="65" type="line"/>
			<point x="396" y="39"/>
			<point x="339" y="24"/>
			<point x="282" y="24" type="curve" smooth="yes"/>
			<point x="185" y="24"/>
			<point x="111" y="85"/>
			<point x="111" y="197" type="curve" smooth="yes"/>
			<point x="111" y="348"/>
			<point x="219" y="457"/>
			<point x="359" y="457" type="curve" smooth="yes"/>
			<point x="426" y="457"/>
			<point x="475" y="426"/>
			<point x="507" y="383" type="curve"/>
			<point x="535" y="409" type="line"/>
			<point x="499" y="455"/>
			<point x="445" y="492"/>
			<point x="362" y="492" type="curve" smooth="yes"/>
			<point x="192" y="492"/>
			<point x="69" y="366"/>
			<point x="69" y="192" type="curve" smooth="yes"/>
			<point x="69" y="64"/>
			<point x="165" y="-12"/>
		</contour>
	</outline>
	<anchor name="aboveLC" x="350" y="502"/>
	<anchor name="baseLC" x="278" y="0"/>
	<anchor name="belowLC" x="274" y="-20"/>
</glyph>
<glyph name="gammalatin" format="2">
	<unicode hex="0263"/>
	<advance width="600"/>
	<outline>
		<contour>
			<point x="221" y="25" type="line"/>
			<point x="271" y="25" type="line"/>
			<point x="570" y="480" type="line"/>
			<point x="526" y="480" type="line"/>
			<point x="339" y="195" type="line" smooth="yes"/>
			<point x="310" y="150"/>
			<point x="283" y="106"/>
			<point x="254" y="59" type="curve"/>
			<point x="250" y="59" type="line"/>
			<point x="237" y="104"/>
			<point x="225" y="150"/>
			<point x="214" y="195" type="curve" smooth="yes"/>
			<point x="139" y="480" type="line"/>
			<point x="96" y="480" type="line"/>
		</contour>
		<contour>
			<point x="198" y="-231" type="curve" smooth="yes"/>
			<point x="264" y="-231"/>
			<point x="301" y="-183"/>
			<point x="301" y="-106" type="curve" smooth="yes"/>
			<point x="301" y="-63"/>
			<point x="288" y="-12"/>
			<point x="271" y="44" type="curve"/>
			<point x="227" y="44" type="line"/>
			<point x="167" y="-39"/>
			<point x="127" y="-104"/>
			<point x="127" y="-160" type="curve" smooth="yes"/>
			<point x="127" y="-203"/>
			<point x="152" y="-231"/>
		</contour>
		<contour>
			<point x="202" y="-197" type="curve" smooth="yes"/>
			<point x="179" y="-197"/>
			<point x="166" y="-184"/>
			<point x="166" y="-153" type="curve" smooth="yes"/>
			<point x="166" y="-118"/>
			<point x="200" y="-50"/>
			<point x="240" y="7" type="curve"/>
			<point x="244" y="7" type="line"/>
			<point x="255" y="-29"/>
			<point x="262" y="-67"/>
			<point x="262" y="-114" type="curve" smooth="yes"/>
			<point x="262" y="-162"/>
			<point x="240" y="-197"/>
		</contour>
	</outline>
	<anchor name="aboveLC" x="330" y="502"/>
	<anchor name="belowLC" x="192" y="-227"/>
</glyph>
<glyph name="ramshorn" format="1">
	<unicode hex="0264"/>
	<advance width="600"/>
	<outline>
		<contour>
			<point x="238" y="-12" type="curve" smooth="yes"/>
			<point x="358" y="-12"/>
			<point x="427" y="74"/>
			<point x="427" y="181" type="curve" smooth="yes"/>
			<point x="427" y="250"/>
			<point x="389" y="314"/>
			<point x="344" y="373" type="curve"/>
			<point x="395" y="422"/>
			<point x="442" y="456"/>
			<point x="486" y="456" type="curve" smooth="yes"/>
			<point x="505" y="456"/>
			<point x="519" y="450"/>
			<point x="531" y="440" type="curve"/>
			<point x="554" y="471" type="line"/>
			<point x="537" y="484"/>
			<point x="513" y="492"/>
			<point x="488" y="492" type="curve" smooth="yes"/>
			<point x="434" y="492"/>
			<point x="373" y="452"/>
			<point x="318" y="400" type="curve"/>
			<point x="281" y="452"/>
			<point x="235" y="492"/>
			<point x="183" y="492" type="curve" smooth="yes"/>
			<point x="158" y="492"/>
			<point x="132" y="486"/>
			<point x="111" y="473" type="curve"/>
			<point x="122" y="441" type="line"/>
			<point x="138" y="451"/>
			<point x="153" y="456"/>
			<point x="171" y="456" type="curve" smooth="yes"/>
			<point x="214" y="456"/>
			<point x="250" y="424"/>
			<point x="284" y="374" type="curve"/>
			<point x="190" y="296"/>
			<point x="108" y="209"/>
			<point x="108" y="105" type="curve" smooth="yes"/>
			<point x="108" y="35"/>
			<point x="156" y="-12"/>
		</contour>
		<contour>
			<point x="242" y="24" type="curve" smooth="yes"/>
			<point x="179" y="24"/>
			<point x="149" y="66"/>
			<point x="149" y="113" type="curve" smooth="yes"/>
			<point x="149" y="198"/>
			<point x="225" y="281"/>
			<point x="310" y="349" type="curve"/>
			<point x="352" y="298"/>
			<point x="387" y="237"/>
			<point x="387" y="174" type="curve" smooth="yes"/>
			<point x="387" y="98"/>
			<point x="334" y="24"/>
		</contour>
		<contour>
			<point name="aboveLC" x="339" y="502" type="move"/>
		</contour>
		<contour>
			<point name="belowLC" x="234" y="-20" type="move"/>
		</contour>
	</outline>
</glyph>
<glyph name="istroke" format="1">
	<unicode hex="0268"/>
	<advance width="600"/>
	<outline>
		<component base="istroke.d"/>
		<component base="dotaccentcmb" xOffset="-18"/>
		<contour>
			<point name="baseLC" x="358" y="0" type="move"/>
		</contour>
		<contour>
			<point name="belowLC" x="345" y="-20" type="move"/>
		</contour>
	</outline>
</glyph>
<glyph name="ismall" format="1">
	<unicode hex="026A"/>
	<advance width="600"/>
	<outline>
		<contour>
			<point x="47" y="0" type="line"/>
			<point x="428" y="0" type="line"/>
			<point x="436" y="37" type="line"/>
			<point x="265" y="37" type="line"/>
			<point x="347" y="443" type="line"/>
			<point x="518" y="443" type="line"/>
			<point x="526" y="480" type="line"/>
			<point x="143" y="480" type="line"/>
			<point x="135" y="443" type="line"/>
			<point x="304" y="443" type="line"/>
			<point x="222" y="37" type="line"/>
			<point x="55" y="37" type="line"/>
		</contour>
		<contour>
			<point name="aboveLC" x="338" y="502" type="move"/>
		</contour>
		<contour>
			<point name="belowLC" x="234" y="-20" type="move"/>
		</contour>
	</outline>
</glyph>
<glyph name="lmiddletilde" format="1">
	<unicode hex="026B"/>
	<advance width="600"/>
	<outline>
		<component base="l"/>
		<component base="tildeoverlaycmb" yOffset="155"/>
		<contour>
			<point name="aboveUC" x="346" y="739" type="move"/>
		</contour>
		<contour>
			<point name="belowLC" x="328" y="-20" type="move"/>
		</contour>
	</outline>
</glyph>
<glyph name="mlonglegturned" format="2">
	<unicode hex="0270"/>
	<advance width="600"/>
	<outline>
		<contour>
			<point x="385" y="-217" type="line"/>
			<point x="425" y="-217" type="line"/>
			<point x="565" y="480" type="line"/>
			<point x="524" y="480" type="line"/>
			<point x="453" y="121" type="line"/>
			<point x="406" y="57"/>
			<point x="368" y="25"/>
			<point x="322" y="25" type="curve" smooth="yes"/>
			<point x="292" y="25"/>
			<point x="275" y="42"/>
			<point x="275" y="83" type="curve" smooth="yes"/>
			<point x="275" y="96"/>
			<point x="277" y="110"/>
			<point x="281" y="129" type="curve" smooth="yes"/>
			<point x="351" y="480" type="line"/>
			<point x="311" y="480" type="line"/>
			<point x="239" y="121" type="line"/>
			<point x="194" y="57"/>
			<point x="154" y="25"/>
			<point x="109" y="25" type="curve" smooth="yes"/>
			<point x="79" y="25"/>
			<point x="63" y="42"/>
			<point x="62" y="83" type="curve" smooth="yes"/>
			<point x="63" y="96"/>
			<point x="64" y="110"/>
			<point x="68" y="129" type="curve" smooth="yes"/>
			<point x="138" y="480" type="line"/>
			<point x="97" y="480" type="line"/>
			<point x="27" y="128" type="line" smooth="yes"/>
			<point x="22" y="103"/>
			<point x="20" y="87"/>
			<point x="20" y="71" type="curve" smooth="yes"/>
			<point x="20" y="13"/>
			<point x="49" y="-12"/>
			<point x="95" y="-12" type="curve" smooth="yes"/>
			<point x="139" y="-12"/>
			<point x="190" y="13"/>
			<point x="247" y="86" type="curve"/>
			<point x="235" y="73" type="line"/>
			<point x="236" y="12"/>
			<point x="263" y="-12"/>
			<point x="309" y="-12" type="curve" smooth="yes"/>
			<point x="354" y="-12"/>
			<point x="398" y="13"/>
			<point x="442" y="67" type="curve"/>
			<point x="444" y="67" type="line"/>
			<point x="435" y="26"/>
			<point x="428" y="-6"/>
			<point x="421" y="-43" type="curve" smooth="yes"/>
		</contour>
	</outline>
</glyph>
<glyph name="nretroflex" format="1">
	<unicode hex="0273"/>
	<advance width="600"/>
	<outline>
		<contour>
			<point x="464" y="-181" type="curve" smooth="yes"/>
			<point x="490" y="-181"/>
			<point x="509" y="-176"/>
			<point x="521" y="-170" type="curve"/>
			<point x="518" y="-137" type="line"/>
			<point x="505" y="-143"/>
			<point x="492" y="-145"/>
			<point x="478" y="-145" type="curve" smooth="yes"/>
			<point x="451" y="-145"/>
			<point x="438" y="-126"/>
			<point x="438" y="-101" type="curve" smooth="yes"/>
			<point x="438" y="-82"/>
			<point x="440" y="-69"/>
			<point x="442" y="-57" type="curve" smooth="yes"/>
			<point x="511" y="292" type="line" smooth="yes"/>
			<point x="517" y="320"/>
			<point x="521" y="344"/>
			<point x="521" y="375" type="curve" smooth="yes"/>
			<point x="521" y="443"/>
			<point x="486" y="492"/>
			<point x="398" y="492" type="curve" smooth="yes"/>
			<point x="302" y="492"/>
			<point x="230" y="435"/>
			<point x="166" y="373" type="curve"/>
			<point x="162" y="373" type="line"/>
			<point x="178" y="480" type="line"/>
			<point x="144" y="480" type="line"/>
			<point x="48" y="0" type="line"/>
			<point x="89" y="0" type="line"/>
			<point x="154" y="321" type="line"/>
			<point x="232" y="404"/>
			<point x="308" y="455"/>
			<point x="387" y="455" type="curve" smooth="yes"/>
			<point x="447" y="455"/>
			<point x="480" y="423"/>
			<point x="480" y="367" type="curve" smooth="yes"/>
			<point x="480" y="340"/>
			<point x="476" y="317"/>
			<point x="470" y="288" type="curve" smooth="yes"/>
			<point x="401" y="-55" type="line" smooth="yes"/>
			<point x="398" y="-69"/>
			<point x="396" y="-87"/>
			<point x="396" y="-109" type="curve" smooth="yes"/>
			<point x="396" y="-157"/>
			<point x="425" y="-181"/>
		</contour>
		<contour>
			<point name="aboveLC" x="359" y="502" type="move"/>
		</contour>
	</outline>
</glyph>
<glyph name="obar" format="1">
	<unicode hex="0275"/>
	<advance width="600"/>
	<outline>
		<contour>
			<point x="248" y="-12" type="curve" smooth="yes"/>
			<point x="397" y="-12"/>
			<point x="521" y="117"/>
			<point x="521" y="284" type="curve" smooth="yes"/>
			<point x="521" y="406"/>
			<point x="449" y="492"/>
			<point x="327" y="492" type="curve" smooth="yes"/>
			<point x="179" y="492"/>
			<point x="53" y="362"/>
			<point x="53" y="196" type="curve" smooth="yes"/>
			<point x="53" y="74"/>
			<point x="126" y="-12"/>
		</contour>
		<contour>
			<point x="251" y="24" type="curve" smooth="yes"/>
			<point x="152" y="24"/>
			<point x="94" y="94"/>
			<point x="94" y="202" type="curve" smooth="yes"/>
			<point x="94" y="339"/>
			<point x="202" y="457"/>
			<point x="324" y="457" type="curve" smooth="yes"/>
			<point x="423" y="457"/>
			<point x="480" y="386"/>
			<point x="480" y="279" type="curve" smooth="yes"/>
			<point x="480" y="139"/>
			<point x="373" y="24"/>
		</contour>
		<contour>
			<point x="81" y="237" type="line"/>
			<point x="493" y="237" type="line"/>
			<point x="500" y="272" type="line"/>
			<point x="87" y="272" type="line"/>
		</contour>
		<contour>
			<point name="aboveLC" x="338" y="502" type="move"/>
		</contour>
		<contour>
			<point name="belowLC" x="234" y="-20" type="move"/>
		</contour>
	</outline>
</glyph>
<glyph name="oesmall" format="2">
	<unicode hex="0276"/>
	<advance width="600"/>
	<outline>
		<contour>
			<point x="183" y="-12" type="curve" smooth="yes"/>
			<point x="216" y="-12"/>
			<point x="243" y="-8"/>
			<point x="270" y="0" type="curve"/>
			<point x="541" y="0" type="line"/>
			<point x="548" y="36" type="line"/>
			<point x="311" y="36" type="line"/>
			<point x="349" y="237" type="line"/>
			<point x="538" y="237" type="line"/>
			<point x="545" y="272" type="line"/>
			<point x="357" y="272" type="line"/>
			<point x="391" y="444" type="line"/>
			<point x="619" y="444" type="line"/>
			<point x="627" y="480" type="line"/>
			<point x="366" y="480" type="line"/>
			<point x="333" y="488"/>
			<point x="308" y="492"/>
			<point x="277" y="492" type="curve" smooth="yes"/>
			<point x="115" y="492"/>
			<point x="4" y="353"/>
			<point x="4" y="174" type="curve" smooth="yes"/>
			<point x="4" y="54"/>
			<point x="69" y="-12"/>
		</contour>
		<contour>
			<point x="188" y="24" type="curve" smooth="yes"/>
			<point x="100" y="24"/>
			<point x="45" y="79"/>
			<point x="45" y="180" type="curve" smooth="yes"/>
			<point x="45" y="330"/>
			<point x="142" y="456"/>
			<point x="275" y="456" type="curve" smooth="yes"/>
			<point x="300" y="456"/>
			<point x="326" y="450"/>
			<point x="348" y="443" type="curve"/>
			<point x="271" y="38" type="line"/>
			<point x="243" y="30"/>
			<point x="214" y="24"/>
		</contour>
	</outline>
</glyph>
<glyph name="philatin" format="2">
	<unicode hex="0278"/>
	<advance width="600"/>
	<outline>
		<contour>
			<point x="237" y="-10" type="curve"/>
			<point x="243" y="24" type="line"/>
			<point x="164" y="24"/>
			<point x="74" y="83"/>
			<point x="74" y="207" type="curve" smooth="yes"/>
			<point x="74" y="355"/>
			<point x="188" y="454"/>
			<point x="317" y="456" type="curve"/>
			<point x="325" y="490" type="line"/>
			<point x="167" y="488"/>
			<point x="32" y="380"/>
			<point x="32" y="200" type="curve" smooth="yes"/>
			<point x="32" y="62"/>
			<point x="143" y="-10"/>
		</contour>
		<contour>
			<point x="251" y="-10" type="line"/>
			<point x="410" y="-8"/>
			<point x="544" y="100"/>
			<point x="544" y="280" type="curve" smooth="yes"/>
			<point x="544" y="418"/>
			<point x="433" y="490"/>
			<point x="339" y="490" type="curve"/>
			<point x="334" y="456" type="line"/>
			<point x="413" y="456"/>
			<point x="503" y="397"/>
			<point x="503" y="273" type="curve" smooth="yes"/>
			<point x="503" y="126"/>
			<point x="389" y="26"/>
			<point x="260" y="24" type="curve"/>
		</contour>
		<contour>
			<point x="175" y="-217" type="line"/>
			<point x="217" y="-217" type="line"/>
			<point x="408" y="719" type="line"/>
			<point x="365" y="719" type="line"/>
		</contour>
	</outline>
	<anchor name="aboveUC" x="389" y="739"/>
	<anchor name="belowLC" x="190" y="-227"/>
</glyph>
<glyph name="rturned" format="1">
	<unicode hex="0279"/>
	<advance width="600"/>
	<outline>
		<component base="r" xScale="-1" yScale="-1" xOffset="587" yOffset="480"/>
		<contour>
			<point name="aboveLC" x="449" y="502" type="move"/>
		</contour>
		<contour>
			<point name="belowLC" x="212" y="-20" type="move"/>
		</contour>
	</outline>
</glyph>
<glyph name="rlonglegturned" format="1">
	<unicode hex="027A"/>
	<advance width="600"/>
	<outline>
		<contour>
			<point x="141" y="-12" type="curve" smooth="yes"/>
			<point x="231" y="-12"/>
			<point x="310" y="63"/>
			<point x="366" y="143" type="curve"/>
			<point x="370" y="143" type="line"/>
			<point x="345" y="0" type="line"/>
			<point x="380" y="0" type="line"/>
			<point x="527" y="719" type="line"/>
			<point x="486" y="719" type="line"/>
			<point x="380" y="208" type="line"/>
			<point x="308" y="102"/>
			<point x="228" y="28"/>
			<point x="148" y="28" type="curve" smooth="yes"/>
			<point x="113" y="27"/>
			<point x="90" y="33"/>
			<point x="64" y="51" type="curve"/>
			<point x="43" y="15" type="line"/>
			<point x="66" y="0"/>
			<point x="98" y="-12"/>
		</contour>
		<contour>
			<point name="aboveUC" x="504" y="739" type="move"/>
		</contour>
		<contour>
			<point name="belowLC" x="212" y="-20" type="move"/>
		</contour>
	</outline>
</glyph>
<glyph name="rhookturned" format="2">
	<unicode hex="027B"/>
	<advance width="600"/>
	<outline>
		<contour>
			<point x="322" y="-181" type="curve" smooth="yes"/>
			<point x="353" y="-181"/>
			<point x="393" y="-164"/>
			<point x="413" y="-151" type="curve"/>
			<point x="405" y="-117" type="line"/>
			<point x="386" y="-130"/>
			<point x="356" y="-145"/>
			<point x="331" y="-145" type="curve" smooth="yes"/>
			<point x="303" y="-145"/>
			<point x="286" y="-127"/>
			<point x="286" y="-96" type="curve" smooth="yes"/>
			<point x="286" y="-82"/>
			<point x="288" y="-67"/>
			<point x="293" y="-44" type="curve" smooth="yes"/>
			<point x="397" y="480" type="line"/>
			<point x="356" y="480" type="line"/>
			<point x="292" y="154" type="line"/>
			<point x="238" y="61"/>
			<point x="189" y="27"/>
			<point x="137" y="27" type="curve" smooth="yes"/>
			<point x="113" y="27"/>
			<point x="89" y="33"/>
			<point x="63" y="51" type="curve"/>
			<point x="43" y="15" type="line"/>
			<point x="71" y="-4"/>
			<point x="101" y="-12"/>
			<point x="124" y="-12" type="curve" smooth="yes"/>
			<point x="192" y="-12"/>
			<point x="238" y="23"/>
			<point x="279" y="90" type="curve"/>
			<point x="281" y="90" type="line"/>
			<point x="253" y="-50" type="line" smooth="yes"/>
			<point x="249" y="-70"/>
			<point x="246" y="-88"/>
			<point x="246" y="-104" type="curve" smooth="yes"/>
			<point x="246" y="-152"/>
			<point x="271" y="-181"/>
		</contour>
	</outline>
	<anchor name="aboveLC" x="373" y="502"/>
	<anchor name="belowLC" x="96" y="-20"/>
</glyph>
<glyph name="rsmall" format="2">
	<unicode hex="0280"/>
	<advance width="600"/>
	<outline>
		<contour>
			<point x="86" y="0" type="line"/>
			<point x="127" y="0" type="line"/>
			<point x="170" y="209" type="line"/>
			<point x="330" y="209" type="line"/>
			<point x="445" y="209"/>
			<point x="520" y="276"/>
			<point x="520" y="369" type="curve" smooth="yes"/>
			<point x="520" y="449"/>
			<point x="464" y="480"/>
			<point x="376" y="480" type="curve" smooth="yes"/>
			<point x="182" y="480" type="line"/>
		</contour>
		<contour>
			<point x="178" y="244" type="line"/>
			<point x="216" y="445" type="line"/>
			<point x="358" y="445" type="line" smooth="yes"/>
			<point x="431" y="445"/>
			<point x="478" y="421"/>
			<point x="478" y="360" type="curve" smooth="yes"/>
			<point x="478" y="296"/>
			<point x="421" y="244"/>
			<point x="319" y="244" type="curve" smooth="yes"/>
		</contour>
		<contour>
			<point x="420" y="0" type="line"/>
			<point x="465" y="0" type="line"/>
			<point x="360" y="231" type="line"/>
			<point x="324" y="216" type="line"/>
		</contour>
	</outline>
	<anchor name="aboveLC" x="359" y="502"/>
	<anchor name="belowLC" x="279" y="-20"/>
</glyph>
<glyph name="rsmallinverted" format="2">
	<unicode hex="0281"/>
	<advance width="600"/>
	<outline>
		<contour>
			<point x="86" y="0" type="line"/>
			<point x="289" y="0" type="line" smooth="yes"/>
			<point x="405" y="0"/>
			<point x="479" y="66"/>
			<point x="479" y="160" type="curve" smooth="yes"/>
			<point x="479" y="240"/>
			<point x="423" y="271"/>
			<point x="336" y="271" type="curve" smooth="yes"/>
			<point x="183" y="271" type="line"/>
			<point x="224" y="480" type="line"/>
			<point x="182" y="480" type="line"/>
		</contour>
		<contour>
			<point x="135" y="36" type="line"/>
			<point x="175" y="236" type="line"/>
			<point x="317" y="236" type="line" smooth="yes"/>
			<point x="391" y="236"/>
			<point x="437" y="213"/>
			<point x="437" y="152" type="curve" smooth="yes"/>
			<point x="437" y="87"/>
			<point x="381" y="36"/>
			<point x="279" y="36" type="curve" smooth="yes"/>
		</contour>
		<contour>
			<point x="364" y="249" type="line"/>
			<point x="561" y="480" type="line"/>
			<point x="516" y="480" type="line"/>
			<point x="333" y="264" type="line"/>
		</contour>
	</outline>
	<anchor name="aboveLC" x="378" y="502"/>
	<anchor name="belowLC" x="259" y="-20"/>
</glyph>
<glyph name="dotlessjstrokehook" format="1">
	<unicode hex="0284"/>
	<advance width="600"/>
	<outline>
		<contour>
			<point x="86" y="235" type="line"/>
			<point x="505" y="235" type="line"/>
			<point x="512" y="271" type="line"/>
			<point x="285" y="271" type="line"/>
			<point x="92" y="265" type="line"/>
		</contour>
		<component base="esh"/>
		<contour>
			<point name="aboveUC" x="488" y="730" type="move"/>
		</contour>
		<contour>
			<point name="belowLC" x="122" y="-227" type="move"/>
		</contour>
	</outline>
</glyph>
<glyph name="tretroflex" format="1">
	<unicode hex="0288"/>
	<advance width="600"/>
	<outline>
		<contour>
			<point x="272" y="-181" type="curve" smooth="yes"/>
			<point x="334" y="-181"/>
			<point x="389" y="-166"/>
			<point x="429" y="-141" type="curve"/>
			<point x="414" y="-110" type="line"/>
			<point x="377" y="-130"/>
			<point x="331" y="-144"/>
			<point x="279" y="-144" type="curve" smooth="yes"/>
			<point x="216" y="-144"/>
			<point x="177" y="-110"/>
			<point x="177" y="-41" type="curve" smooth="yes"/>
			<point x="177" y="-26"/>
			<point x="179" y="-10"/>
			<point x="183" y="8" type="curve" smooth="yes"/>
			<point x="273" y="444" type="line"/>
			<point x="529" y="444" type="line"/>
			<point x="537" y="480" type="line"/>
			<point x="281" y="480" type="line"/>
			<point x="313" y="639" type="line"/>
			<point x="278" y="639" type="line"/>
			<point x="240" y="480" type="line"/>
			<point x="90" y="476" type="line"/>
			<point x="84" y="444" type="line"/>
			<point x="232" y="444" type="line"/>
			<point x="144" y="14" type="line" smooth="yes"/>
			<point x="140" y="-7"/>
			<point x="136" y="-27"/>
			<point x="136" y="-48" type="curve" smooth="yes"/>
			<point x="136" y="-126"/>
			<point x="179" y="-181"/>
		</contour>
		<contour>
			<point name="aboveLC" x="285" y="631" type="move"/>
		</contour>
		<contour>
			<point name="belowLC" x="266" y="-182" type="move"/>
		</contour>
	</outline>
</glyph>
<glyph name="upsilonlatin" format="2">
	<unicode hex="028A"/>
	<advance width="600"/>
	<outline>
		<contour>
			<point x="238" y="-12" type="curve" smooth="yes"/>
			<point x="395" y="-12"/>
			<point x="497" y="132"/>
			<point x="497" y="280" type="curve" smooth="yes"/>
			<point x="497" y="354"/>
			<point x="466" y="409"/>
			<point x="436" y="442" type="curve"/>
			<point x="436" y="445" type="line"/>
			<point x="548" y="445" type="line"/>
			<point x="556" y="480" type="line"/>
			<point x="390" y="480" type="line"/>
			<point x="384" y="453" type="line"/>
			<point x="425" y="417"/>
			<point x="457" y="361"/>
			<point x="457" y="279" type="curve" smooth="yes"/>
			<point x="457" y="157"/>
			<point x="373" y="24"/>
			<point x="242" y="24" type="curve" smooth="yes"/>
			<point x="154" y="24"/>
			<point x="110" y="91"/>
			<point x="110" y="174" type="curve" smooth="yes"/>
			<point x="110" y="288"/>
			<point x="188" y="400"/>
			<point x="271" y="453" type="curve"/>
			<point x="277" y="480" type="line"/>
			<point x="112" y="480" type="line"/>
			<point x="104" y="445" type="line"/>
			<point x="211" y="445" type="line"/>
			<point x="211" y="442" type="line"/>
			<point x="149" y="395"/>
			<point x="69" y="288"/>
			<point x="69" y="164" type="curve" smooth="yes"/>
			<point x="69" y="66"/>
			<point x="124" y="-12"/>
		</contour>
	</outline>
	<anchor name="aboveLC" x="338" y="502"/>
	<anchor name="belowLC" x="236" y="-20"/>
</glyph>
<glyph name="glottalstop" format="1">
	<unicode hex="0294"/>
	<advance width="600"/>
	<outline>
		<contour>
			<point x="188" y="0" type="line"/>
			<point x="230" y="0" type="line"/>
			<point x="289" y="290" type="line"/>
			<point x="455" y="366"/>
			<point x="537" y="447"/>
			<point x="537" y="579" type="curve" smooth="yes"/>
			<point x="537" y="675"/>
			<point x="454" y="731"/>
			<point x="352" y="731" type="curve" smooth="yes"/>
			<point x="254" y="731"/>
			<point x="190" y="693"/>
			<point x="140" y="650" type="curve"/>
			<point x="162" y="621" type="line"/>
			<point x="208" y="661"/>
			<point x="264" y="695"/>
			<point x="348" y="695" type="curve" smooth="yes"/>
			<point x="435" y="695"/>
			<point x="496" y="648"/>
			<point x="496" y="571" type="curve" smooth="yes"/>
			<point x="496" y="468"/>
			<point x="429" y="390"/>
			<point x="251" y="314" type="curve"/>
		</contour>
		<contour>
			<point name="aboveUC" x="371" y="739" type="move"/>
		</contour>
		<contour>
			<point name="belowLC" x="211" y="-20" type="move"/>
		</contour>
	</outline>
</glyph>
<glyph name="glottalstopreversed" format="1">
	<unicode hex="0295"/>
	<advance width="600"/>
	<outline>
		<contour>
			<point x="241" y="0" type="line"/>
			<point x="282" y="0" type="line"/>
			<point x="346" y="314" type="line"/>
			<point x="248" y="373"/>
			<point x="204" y="434"/>
			<point x="204" y="522" type="curve" smooth="yes"/>
			<point x="204" y="621"/>
			<point x="274" y="695"/>
			<point x="384" y="695" type="curve" smooth="yes"/>
			<point x="455" y="695"/>
			<point x="506" y="659"/>
			<point x="542" y="606" type="curve"/>
			<point x="571" y="627" type="line"/>
			<point x="534" y="686"/>
			<point x="473" y="731"/>
			<point x="386" y="731" type="curve" smooth="yes"/>
			<point x="253" y="731"/>
			<point x="162" y="645"/>
			<point x="162" y="515" type="curve" smooth="yes"/>
			<point x="162" y="419"/>
			<point x="217" y="351"/>
			<point x="300" y="293" type="curve"/>
		</contour>
		<contour>
			<point name="aboveUC" x="398" y="739" type="move"/>
		</contour>
		<contour>
			<point name="belowLC" x="260" y="-20" type="move"/>
		</contour>
	</outline>
</glyph>
<glyph name="clickbilabial" format="1">
	<unicode hex="0298"/>
	<advance width="600"/>
	<outline>
		<contour>
			<point x="247" y="-12" type="curve" smooth="yes"/>
			<point x="434" y="-12"/>
			<point x="545" y="238"/>
			<point x="545" y="493" type="curve" smooth="yes"/>
			<point x="545" y="650"/>
			<point x="472" y="731"/>
			<point x="373" y="731" type="curve" smooth="yes"/>
			<point x="185" y="731"/>
			<point x="75" y="481"/>
			<point x="75" y="227" type="curve" smooth="yes"/>
			<point x="75" y="69"/>
			<point x="147" y="-12"/>
		</contour>
		<contour>
			<point x="250" y="24" type="curve" smooth="yes"/>
			<point x="173" y="24"/>
			<point x="115" y="90"/>
			<point x="115" y="232" type="curve" smooth="yes"/>
			<point x="115" y="457"/>
			<point x="218" y="695"/>
			<point x="370" y="695" type="curve" smooth="yes"/>
			<point x="447" y="695"/>
			<point x="505" y="629"/>
			<point x="505" y="488" type="curve" smooth="yes"/>
			<point x="505" y="262"/>
			<point x="401" y="24"/>
		</contour>
		<contour>
			<point x="304" y="310" type="curve" smooth="yes"/>
			<point x="332" y="310"/>
			<point x="361" y="337"/>
			<point x="361" y="373" type="curve" smooth="yes"/>
			<point x="361" y="399"/>
			<point x="343" y="417"/>
			<point x="314" y="417" type="curve" smooth="yes"/>
			<point x="286" y="417"/>
			<point x="258" y="390"/>
			<point x="258" y="354" type="curve" smooth="yes"/>
			<point x="258" y="328"/>
			<point x="275" y="310"/>
		</contour>
	</outline>
</glyph>
<glyph name="kturned" format="1">
	<unicode hex="029E"/>
	<advance width="600"/>
	<outline>
		<contour>
			<point x="333" y="-217" type="line"/>
			<point x="375" y="-217" type="line"/>
			<point x="514" y="480" type="line"/>
			<point x="473" y="480" type="line"/>
			<point x="446" y="346" type="line"/>
			<point x="256" y="200" type="line"/>
			<point x="9" y="0" type="line"/>
			<point x="63" y="0" type="line"/>
			<point x="430" y="290" type="line"/>
			<point x="434" y="290" type="line"/>
		</contour>
		<contour>
			<point x="245" y="181" type="line"/>
			<point x="276" y="206" type="line"/>
			<point x="126" y="480" type="line"/>
			<point x="81" y="480" type="line"/>
		</contour>
		<contour>
			<point name="aboveLC" x="311" y="502" type="move"/>
		</contour>
		<contour>
			<point name="belowLC" x="350" y="-227" type="move"/>
		</contour>
	</outline>
</glyph>
<glyph name="lsmall" format="2">
	<unicode hex="029F"/>
	<advance width="600"/>
	<outline>
		<contour>
			<point x="122" y="0" type="line"/>
			<point x="480" y="0" type="line"/>
			<point x="488" y="36" type="line"/>
			<point x="171" y="36" type="line"/>
			<point x="259" y="480" type="line"/>
			<point x="218" y="480" type="line"/>
		</contour>
	</outline>
	<anchor name="aboveLC" x="240" y="502"/>
	<anchor name="belowLC" x="308" y="-20"/>
</glyph>
<glyph name="glottalstopstroke" format="2">
	<unicode hex="02A1"/>
	<advance width="600"/>
	<outline>
		<contour>
			<point x="188" y="0" type="line"/>
			<point x="230" y="0" type="line"/>
			<point x="286" y="278" type="line"/>
			<point x="485" y="278" type="line"/>
			<point x="493" y="313" type="line"/>
			<point x="325" y="313" type="line"/>
			<point x="469" y="383"/>
			<point x="538" y="460"/>
			<point x="538" y="579" type="curve" smooth="yes"/>
			<point x="538" y="675"/>
			<point x="454" y="731"/>
			<point x="352" y="731" type="curve" smooth="yes"/>
			<point x="254" y="731"/>
			<point x="190" y="693"/>
			<point x="140" y="650" type="curve"/>
			<point x="162" y="621" type="line"/>
			<point x="208" y="661"/>
			<point x="264" y="696"/>
			<point x="348" y="696" type="curve" smooth="yes"/>
			<point x="435" y="696"/>
			<point x="496" y="648"/>
			<point x="496" y="571" type="curve" smooth="yes"/>
			<point x="496" y="468"/>
			<point x="429" y="389"/>
			<point x="251" y="313" type="curve"/>
			<point x="98" y="309" type="line"/>
			<point x="92" y="278" type="line"/>
			<point x="243" y="278" type="line"/>
		</contour>
	</outline>
</glyph>
<glyph name="glottalstopstrokereversed" format="1">
	<unicode hex="02A2"/>
	<advance width="600"/>
	<outline>
		<contour>
			<point x="241" y="0" type="line"/>
			<point x="282" y="0" type="line"/>
			<point x="339" y="278" type="line"/>
			<point x="498" y="278" type="line"/>
			<point x="506" y="313" type="line"/>
			<point x="344" y="313" type="line"/>
			<point x="251" y="372"/>
			<point x="204" y="433"/>
			<point x="204" y="522" type="curve" smooth="yes"/>
			<point x="204" y="621"/>
			<point x="274" y="696"/>
			<point x="384" y="696" type="curve" smooth="yes"/>
			<point x="455" y="696"/>
			<point x="506" y="659"/>
			<point x="542" y="606" type="curve"/>
			<point x="571" y="627" type="line"/>
			<point x="534" y="686"/>
			<point x="473" y="731"/>
			<point x="386" y="731" type="curve" smooth="yes"/>
			<point x="253" y="731"/>
			<point x="162" y="644"/>
			<point x="162" y="515" type="curve" smooth="yes"/>
			<point x="162" y="430"/>
			<point x="206" y="367"/>
			<point x="286" y="313" type="curve"/>
			<point x="111" y="309" type="line"/>
			<point x="105" y="278" type="line"/>
			<point x="297" y="278" type="line"/>
		</contour>
		<contour>
			<point name="aboveUC" x="398" y="739" type="move"/>
		</contour>
		<contour>
			<point name="belowLC" x="259" y="-20" type="move"/>
		</contour>
	</outline>
</glyph>
<glyph name="dezh" format="2">
	<unicode hex="02A4"/>
	<advance width="600"/>
	<outline>
		<contour>
			<point x="105" y="-12" type="curve" smooth="yes"/>
			<point x="162" y="-12"/>
			<point x="200" y="22"/>
			<point x="242" y="74" type="curve"/>
			<point x="246" y="74" type="line"/>
			<point x="236" y="0" type="line"/>
			<point x="269" y="0" type="line"/>
			<point x="414" y="719" type="line"/>
			<point x="374" y="719" type="line"/>
			<point x="332" y="511" type="line"/>
			<point x="313" y="416" type="line"/>
			<point x="309" y="416" type="line"/>
			<point x="295" y="468"/>
			<point x="251" y="492"/>
			<point x="207" y="492" type="curve" smooth="yes"/>
			<point x="88" y="492"/>
			<point x="-12" y="340"/>
			<point x="-12" y="171" type="curve" smooth="yes"/>
			<point x="-12" y="51"/>
			<point x="37" y="-12"/>
		</contour>
		<contour>
			<point x="114" y="24" type="curve" smooth="yes"/>
			<point x="64" y="24"/>
			<point x="29" y="73"/>
			<point x="29" y="176" type="curve" smooth="yes"/>
			<point x="29" y="318"/>
			<point x="113" y="456"/>
			<point x="207" y="456" type="curve" smooth="yes"/>
			<point x="244" y="456"/>
			<point x="274" y="441"/>
			<point x="302" y="365" type="curve"/>
			<point x="255" y="131" type="line"/>
			<point x="206" y="65"/>
			<point x="160" y="24"/>
		</contour>
		<contour>
			<point x="374" y="-229" type="curve" smooth="yes"/>
			<point x="489" y="-229"/>
			<point x="586" y="-118"/>
			<point x="586" y="31" type="curve" smooth="yes"/>
			<point x="586" y="127"/>
			<point x="526" y="202"/>
			<point x="397" y="160" type="curve"/>
			<point x="408" y="144" type="line"/>
			<point x="657" y="455" type="line"/>
			<point x="661" y="480" type="line"/>
			<point x="351" y="480" type="line"/>
			<point x="343" y="444" type="line"/>
			<point x="605" y="444" type="line"/>
			<point x="367" y="150" type="line"/>
			<point x="382" y="121" type="line"/>
			<point x="408" y="132"/>
			<point x="427" y="140"/>
			<point x="455" y="140" type="curve" smooth="yes"/>
			<point x="514" y="140"/>
			<point x="545" y="102"/>
			<point x="545" y="22" type="curve" smooth="yes"/>
			<point x="545" y="-99"/>
			<point x="464" y="-193"/>
			<point x="376" y="-193" type="curve" smooth="yes"/>
			<point x="318" y="-193"/>
			<point x="274" y="-158"/>
			<point x="247" y="-130" type="curve"/>
			<point x="220" y="-155" type="line"/>
			<point x="250" y="-189"/>
			<point x="301" y="-229"/>
		</contour>
	</outline>
	<anchor name="aboveUC" x="395" y="739"/>
	<anchor name="belowLC" x="249" y="-227"/>
</glyph>
<glyph name="ringhalfrightmod" format="2">
	<unicode hex="02BE"/>
	<advance width="600"/>
	<outline>
		<contour>
			<point x="248" y="538" type="line"/>
			<point x="358" y="536"/>
			<point x="447" y="598"/>
			<point x="447" y="700" type="curve" smooth="yes"/>
			<point x="447" y="786"/>
			<point x="390" y="827"/>
			<point x="305" y="823" type="curve"/>
			<point x="298" y="793" type="line"/>
			<point x="365" y="793"/>
			<point x="408" y="766"/>
			<point x="408" y="697" type="curve" smooth="yes"/>
			<point x="408" y="621"/>
			<point x="343" y="570"/>
			<point x="255" y="568" type="curve"/>
		</contour>
	</outline>
</glyph>
<glyph name="verticallinelowmod" format="2">
	<unicode hex="02CC"/>
	<advance width="600"/>
	<outline>
		<contour>
			<point x="156" y="-245" type="line"/>
			<point x="226" y="-245" type="line"/>
			<point x="266" y="45" type="line"/>
			<point x="232" y="45" type="line"/>
		</contour>
	</outline>
</glyph>
<glyph name="colontriangularmod" format="2">
	<unicode hex="02D0"/>
	<advance width="600"/>
	<outline>
		<contour>
			<point x="175" y="0" type="line"/>
			<point x="304" y="0" type="line"/>
			<point x="268" y="114" type="line"/>
			<point x="260" y="114" type="line"/>
		</contour>
		<contour>
			<point x="302" y="366" type="line"/>
			<point x="311" y="366" type="line"/>
			<point x="396" y="480" type="line"/>
			<point x="267" y="480" type="line"/>
		</contour>
	</outline>
</glyph>
<glyph name="hookrhoticmod" format="2">
	<unicode hex="02DE"/>
	<advance width="600"/>
	<outline>
		<contour>
			<point x="373" y="232" type="curve" smooth="yes"/>
			<point x="398" y="232"/>
			<point x="419" y="244"/>
			<point x="435" y="255" type="curve"/>
			<point x="423" y="283" type="line"/>
			<point x="412" y="274"/>
			<point x="399" y="267"/>
			<point x="384" y="267" type="curve" smooth="yes"/>
			<point x="357" y="267"/>
			<point x="342" y="284"/>
			<point x="350" y="378" type="curve"/>
			<point x="224" y="330" type="line"/>
			<point x="216" y="293" type="line"/>
			<point x="313" y="327" type="line"/>
			<point x="312" y="259"/>
			<point x="336" y="232"/>
		</contour>
	</outline>
</glyph>
<glyph name="s.sups" format="2">
	<unicode hex="02E2"/>
	<advance width="600"/>
	<outline>
		<contour>
			<point x="321" y="398" type="curve" smooth="yes"/>
			<point x="395" y="398"/>
			<point x="452" y="428"/>
			<point x="452" y="488" type="curve" smooth="yes"/>
			<point x="452" y="545"/>
			<point x="413" y="562"/>
			<point x="364" y="582" type="curve" smooth="yes"/>
			<point x="311" y="603"/>
			<point x="286" y="616"/>
			<point x="286" y="648" type="curve" smooth="yes"/>
			<point x="286" y="681"/>
			<point x="320" y="700"/>
			<point x="364" y="700" type="curve" smooth="yes"/>
			<point x="414" y="700"/>
			<point x="441" y="682"/>
			<point x="462" y="661" type="curve"/>
			<point x="484" y="684" type="line"/>
			<point x="461" y="706"/>
			<point x="425" y="731"/>
			<point x="369" y="731" type="curve" smooth="yes"/>
			<point x="298" y="731"/>
			<point x="248" y="700"/>
			<point x="248" y="645" type="curve" smooth="yes"/>
			<point x="248" y="594"/>
			<point x="286" y="572"/>
			<point x="335" y="553" type="curve" smooth="yes"/>
			<point x="391" y="531"/>
			<point x="414" y="516"/>
			<point x="414" y="486" type="curve" smooth="yes"/>
			<point x="414" y="450"/>
			<point x="376" y="430"/>
			<point x="326" y="430" type="curve" smooth="yes"/>
			<point x="284" y="430"/>
			<point x="246" y="452"/>
			<point x="222" y="484" type="curve"/>
			<point x="198" y="459" type="line"/>
			<point x="225" y="425"/>
			<point x="272" y="398"/>
		</contour>
	</outline>
</glyph>
<glyph name="acutecmb" format="2">
	<unicode hex="0301"/>
	<advance width="600"/>
	<outline>
		<contour>
			<point x="325" y="580" type="line"/>
			<point x="489" y="716" type="line"/>
			<point x="462" y="750" type="line"/>
			<point x="304" y="605" type="line"/>
		</contour>
	</outline>
	<anchor name="_aboveLC" x="338" y="502"/>
	<anchor name="aboveLC" x="300" y="502"/>
</glyph>
<glyph name="macroncmb" format="2">
	<unicode hex="0304"/>
	<advance width="600"/>
	<outline>
		<contour>
			<point x="241" y="606" type="line"/>
			<point x="479" y="606" type="line"/>
			<point x="484" y="640" type="line"/>
			<point x="246" y="640" type="line"/>
		</contour>
	</outline>
	<anchor name="_aboveLC" x="338" y="502"/>
	<anchor name="aboveLC" x="352" y="592"/>
</glyph>
<glyph name="brevecmb" format="1">
	<unicode hex="0306"/>
	<advance width="600"/>
	<outline>
		<contour>
			<point x="354" y="570" type="curve" smooth="yes"/>
			<point x="458" y="570"/>
			<point x="513" y="652"/>
			<point x="531" y="718" type="curve"/>
			<point x="498" y="723" type="line"/>
			<point x="479" y="667"/>
			<point x="433" y="604"/>
			<point x="361" y="604" type="curve" smooth="yes"/>
			<point x="289" y="604"/>
			<point x="263" y="667"/>
			<point x="267" y="723" type="curve"/>
			<point x="233" y="718" type="line"/>
			<point x="230" y="652"/>
			<point x="254" y="570"/>
		</contour>
		<contour>
			<point name="_aboveLC" x="338" y="502" type="move"/>
		</contour>
		<contour>
			<point name="aboveLC" x="300" y="502" type="move"/>
		</contour>
	</outline>
</glyph>
<glyph name="dotaccentcmb" format="2">
	<unicode hex="0307"/>
	<advance width="600"/>
	<outline>
		<contour>
			<point x="360" y="597" type="curve" smooth="yes"/>
			<point x="386" y="597"/>
			<point x="411" y="621"/>
			<point x="411" y="651" type="curve" smooth="yes"/>
			<point x="411" y="674"/>
			<point x="396" y="690"/>
			<point x="371" y="690" type="curve" smooth="yes"/>
			<point x="345" y="690"/>
			<point x="320" y="665"/>
			<point x="320" y="636" type="curve" smooth="yes"/>
			<point x="320" y="612"/>
			<point x="336" y="597"/>
		</contour>
	</outline>
	<anchor name="_aboveLC" x="338" y="502"/>
	<anchor name="aboveLC" x="372" y="683"/>
</glyph>
<glyph name="dieresiscmb" format="1">
	<unicode hex="0308"/>
	<advance width="600"/>
	<outline>
		<contour>
			<point x="275" y="598" type="curve" smooth="yes"/>
			<point x="300" y="598"/>
			<point x="319" y="620"/>
			<point x="319" y="648" type="curve" smooth="yes"/>
			<point x="319" y="670"/>
			<point x="306" y="683"/>
			<point x="286" y="683" type="curve" smooth="yes"/>
			<point x="261" y="683"/>
			<point x="241" y="662"/>
			<point x="241" y="634" type="curve" smooth="yes"/>
			<point x="241" y="612"/>
			<point x="255" y="598"/>
		</contour>
		<contour>
			<point x="446" y="598" type="curve" smooth="yes"/>
			<point x="471" y="598"/>
			<point x="491" y="620"/>
			<point x="491" y="648" type="curve" smooth="yes"/>
			<point x="491" y="670"/>
			<point x="477" y="683"/>
			<point x="457" y="683" type="curve" smooth="yes"/>
			<point x="433" y="683"/>
			<point x="413" y="662"/>
			<point x="413" y="634" type="curve" smooth="yes"/>
			<point x="413" y="612"/>
			<point x="427" y="598"/>
		</contour>
		<contour>
			<point name="_aboveLC" x="338" y="502" type="move"/>
		</contour>
		<contour>
			<point name="aboveLC" x="370" y="674" type="move"/>
		</contour>
	</outline>
</glyph>
<glyph name="ringcmb" format="2">
	<unicode hex="030A"/>
	<advance width="600"/>
	<outline>
		<contour>
			<point x="358" y="550" type="curve" smooth="yes"/>
			<point x="419" y="550"/>
			<point x="461" y="601"/>
			<point x="461" y="659" type="curve" smooth="yes"/>
			<point x="461" y="710"/>
			<point x="424" y="737"/>
			<point x="377" y="737" type="curve" smooth="yes"/>
			<point x="316" y="737"/>
			<point x="274" y="686"/>
			<point x="274" y="628" type="curve" smooth="yes"/>
			<point x="274" y="577"/>
			<point x="311" y="550"/>
		</contour>
		<contour>
			<point x="361" y="576" type="curve" smooth="yes"/>
			<point x="326" y="576"/>
			<point x="305" y="597"/>
			<point x="305" y="630" type="curve" smooth="yes"/>
			<point x="305" y="674"/>
			<point x="337" y="711"/>
			<point x="374" y="711" type="curve" smooth="yes"/>
			<point x="409" y="711"/>
			<point x="430" y="689"/>
			<point x="430" y="657" type="curve" smooth="yes"/>
			<point x="430" y="613"/>
			<point x="398" y="576"/>
		</contour>
	</outline>
	<anchor name="_aboveLC" x="338" y="502"/>
	<anchor name="aboveLC" x="300" y="502"/>
</glyph>
<glyph name="hungarumlautcmb" format="1">
	<unicode hex="030B"/>
	<advance width="600"/>
	<outline>
		<contour>
			<point x="303" y="573" type="line"/>
			<point x="425" y="724" type="line"/>
			<point x="395" y="747" type="line"/>
			<point x="278" y="589" type="line"/>
		</contour>
		<contour>
			<point x="437" y="573" type="line"/>
			<point x="559" y="724" type="line"/>
			<point x="529" y="747" type="line"/>
			<point x="412" y="589" type="line"/>
		</contour>
		<contour>
			<point name="_aboveLC" x="338" y="502" type="move"/>
		</contour>
	</outline>
</glyph>
<glyph name="caroncmb" format="1">
	<unicode hex="030C"/>
	<advance width="600"/>
	<outline>
		<contour>
			<point x="332" y="573" type="line"/>
			<point x="375" y="573" type="line"/>
			<point x="517" y="717" type="line"/>
			<point x="495" y="737" type="line"/>
			<point x="358" y="610" type="line"/>
			<point x="354" y="610" type="line"/>
			<point x="266" y="737" type="line"/>
			<point x="241" y="719" type="line"/>
		</contour>
		<contour>
			<point name="_aboveLC" x="338" y="502" type="move"/>
		</contour>
	</outline>
</glyph>
<glyph name="dblgravecmb" format="1">
	<unicode hex="030F"/>
	<advance width="600"/>
	<outline>
		<contour>
			<point x="261" y="568" type="line"/>
			<point x="291" y="578" type="line"/>
			<point x="235" y="752" type="line"/>
			<point x="196" y="735" type="line"/>
		</contour>
		<contour>
			<point x="395" y="568" type="line"/>
			<point x="425" y="578" type="line"/>
			<point x="369" y="752" type="line"/>
			<point x="330" y="735" type="line"/>
		</contour>
		<contour>
			<point name="_aboveLC" x="338" y="502" type="move"/>
		</contour>
	</outline>
</glyph>
<glyph name="commaturnedabovecmb" format="1">
	<unicode hex="0312"/>
	<advance width="600"/>
	<outline>
		<contour>
			<point x="344" y="544" type="curve" smooth="yes"/>
			<point x="370" y="544"/>
			<point x="388" y="558"/>
			<point x="388" y="586" type="curve" smooth="yes"/>
			<point x="388" y="606"/>
			<point x="373" y="621"/>
			<point x="355" y="621" type="curve" smooth="yes"/>
			<point x="344" y="621"/>
			<point x="331" y="618"/>
			<point x="318" y="604" type="curve"/>
			<point x="348" y="566" type="line"/>
			<point x="341" y="616" type="line"/>
			<point x="349" y="649"/>
			<point x="368" y="676"/>
			<point x="416" y="695" type="curve"/>
			<point x="406" y="721" type="line"/>
			<point x="334" y="693"/>
			<point x="306" y="650"/>
			<point x="306" y="599" type="curve" smooth="yes"/>
			<point x="306" y="569"/>
			<point x="321" y="544"/>
		</contour>
		<contour>
			<point name="_aboveLC" x="338" y="502" type="move"/>
		</contour>
	</outline>
</glyph>
<glyph name="commaabovecmb" format="2">
	<unicode hex="0313"/>
	<advance width="600"/>
	<outline>
		<contour>
			<point x="319" y="544" type="line"/>
			<point x="391" y="572"/>
			<point x="419" y="615"/>
			<point x="419" y="666" type="curve" smooth="yes"/>
			<point x="419" y="696"/>
			<point x="404" y="721"/>
			<point x="381" y="721" type="curve" smooth="yes"/>
			<point x="355" y="721"/>
			<point x="337" y="707"/>
			<point x="337" y="679" type="curve" smooth="yes"/>
			<point x="337" y="659"/>
			<point x="352" y="644"/>
			<point x="370" y="644" type="curve" smooth="yes"/>
			<point x="381" y="644"/>
			<point x="394" y="647"/>
			<point x="407" y="661" type="curve"/>
			<point x="377" y="699" type="line"/>
			<point x="384" y="650" type="line"/>
			<point x="376" y="616"/>
			<point x="357" y="589"/>
			<point x="309" y="570" type="curve"/>
		</contour>
	</outline>
	<anchor name="_aboveLC" x="338" y="502"/>
</glyph>
<glyph name="lefttackbelowcmb" format="2">
	<unicode hex="0318"/>
	<advance width="600"/>
	<outline>
		<contour>
			<point x="233" y="-244" type="line"/>
			<point x="267" y="-244" type="line"/>
			<point x="303" y="-61" type="line"/>
			<point x="269" y="-61" type="line"/>
			<point x="254" y="-136" type="line"/>
			<point x="143" y="-136" type="line"/>
			<point x="137" y="-169" type="line"/>
			<point x="248" y="-169" type="line"/>
		</contour>
	</outline>
	<anchor name="_belowLC" x="234" y="-20"/>
</glyph>
<glyph name="righttackbelowcmb" format="1">
	<unicode hex="0319"/>
	<advance width="600"/>
	<outline>
		<contour>
			<point x="114" y="-244" type="line"/>
			<point x="148" y="-244" type="line"/>
			<point x="162" y="-169" type="line"/>
			<point x="274" y="-169" type="line"/>
			<point x="280" y="-136" type="line"/>
			<point x="168" y="-136" type="line"/>
			<point x="183" y="-61" type="line"/>
			<point x="150" y="-61" type="line"/>
		</contour>
		<contour>
			<point name="_belowLC" x="234" y="-20" type="move"/>
		</contour>
	</outline>
</glyph>
<glyph name="leftangleabovecmb" format="2">
	<unicode hex="031A"/>
	<advance width="600"/>
	<outline>
		<contour>
			<point x="449" y="572" type="line"/>
			<point x="483" y="572" type="line"/>
			<point x="509" y="708" type="line"/>
			<point x="365" y="708" type="line"/>
			<point x="358" y="675" type="line"/>
			<point x="470" y="675" type="line"/>
		</contour>
	</outline>
	<anchor name="_aboverightLC" x="394" y="502"/>
</glyph>
<glyph name="horncmb" format="2">
	<unicode hex="031B"/>
	<advance width="600"/>
	<outline>
		<contour>
			<point x="327" y="441" type="line"/>
			<point x="426" y="453"/>
			<point x="476" y="488"/>
			<point x="476" y="554" type="curve" smooth="yes"/>
			<point x="476" y="574"/>
			<point x="472" y="589"/>
			<point x="466" y="602" type="curve"/>
			<point x="430" y="587" type="line"/>
			<point x="435" y="575"/>
			<point x="438" y="565"/>
			<point x="438" y="552" type="curve" smooth="yes"/>
			<point x="438" y="506"/>
			<point x="403" y="479"/>
			<point x="326" y="470" type="curve"/>
		</contour>
	</outline>
	<anchor name="_hornLC" x="240" y="480"/>
</glyph>
<glyph name="uptackbelowcmb" format="1">
	<unicode hex="031D"/>
	<advance width="600"/>
	<outline>
		<contour>
			<point x="111" y="-200" type="line"/>
			<point x="287" y="-200" type="line"/>
			<point x="293" y="-167" type="line"/>
			<point x="222" y="-167" type="line"/>
			<point x="243" y="-61" type="line"/>
			<point x="209" y="-61" type="line"/>
			<point x="188" y="-167" type="line"/>
			<point x="117" y="-167" type="line"/>
		</contour>
		<contour>
			<point name="_belowLC" x="234" y="-20" type="move"/>
		</contour>
	</outline>
</glyph>
<glyph name="downtackbelowcmb" format="2">
	<unicode hex="031E"/>
	<advance width="600"/>
	<outline>
		<contour>
			<point x="174" y="-244" type="line"/>
			<point x="207" y="-244" type="line"/>
			<point x="228" y="-138" type="line"/>
			<point x="300" y="-138" type="line"/>
			<point x="306" y="-105" type="line"/>
			<point x="129" y="-105" type="line"/>
			<point x="123" y="-138" type="line"/>
			<point x="195" y="-138" type="line"/>
		</contour>
	</outline>
	<anchor name="_belowLC" x="234" y="-20"/>
</glyph>
<glyph name="plusbelowcmb" format="2">
	<unicode hex="031F"/>
	<advance width="600"/>
	<outline>
		<contour>
			<point x="174" y="-244" type="line"/>
			<point x="207" y="-244" type="line"/>
			<point x="222" y="-169" type="line"/>
			<point x="293" y="-169" type="line"/>
			<point x="300" y="-136" type="line"/>
			<point x="228" y="-136" type="line"/>
			<point x="243" y="-61" type="line"/>
			<point x="209" y="-61" type="line"/>
			<point x="195" y="-136" type="line"/>
			<point x="123" y="-136" type="line"/>
			<point x="117" y="-169" type="line"/>
			<point x="188" y="-169" type="line"/>
		</contour>
	</outline>
	<anchor name="_belowLC" x="234" y="-20"/>
</glyph>
<glyph name="minusbelowcmb" format="1">
	<unicode hex="0320"/>
	<advance width="600"/>
	<outline>
		<contour>
			<point x="117" y="-169" type="line"/>
			<point x="293" y="-169" type="line"/>
			<point x="300" y="-136" type="line"/>
			<point x="123" y="-136" type="line"/>
		</contour>
		<contour>
			<point name="_belowLC" x="234" y="-20" type="move"/>
		</contour>
	</outline>
</glyph>
<glyph name="commabelowcmb" format="1">
	<unicode hex="0326"/>
	<advance width="600"/>
	<outline>
		<contour>
			<point x="115" y="-219" type="line"/>
			<point x="209" y="-217"/>
			<point x="275" y="-184"/>
			<point x="275" y="-124" type="curve" smooth="yes"/>
			<point x="275" y="-89"/>
			<point x="258" y="-70"/>
			<point x="183" y="-61" type="curve"/>
			<point x="169" y="-88" type="line"/>
			<point x="214" y="-92"/>
			<point x="236" y="-104"/>
			<point x="236" y="-133" type="curve" smooth="yes"/>
			<point x="236" y="-165"/>
			<point x="195" y="-188"/>
			<point x="114" y="-191" type="curve"/>
		</contour>
		<contour>
			<point name="_belowLC" x="234" y="-20" type="move"/>
		</contour>
	</outline>
</glyph>
<glyph name="ogonekcmb" format="1">
	<unicode hex="0328"/>
	<advance width="600"/>
	<outline>
		<contour>
			<point x="212" y="-224" type="curve" smooth="yes"/>
			<point x="246" y="-224"/>
			<point x="272" y="-212"/>
			<point x="291" y="-195" type="curve"/>
			<point x="278" y="-173" type="line"/>
			<point x="262" y="-184"/>
			<point x="245" y="-192"/>
			<point x="224" y="-192" type="curve" smooth="yes"/>
			<point x="189" y="-192"/>
			<point x="161" y="-176"/>
			<point x="161" y="-139" type="curve" smooth="yes"/>
			<point x="161" y="-93"/>
			<point x="210" y="-43"/>
			<point x="286" y="4" type="curve"/>
			<point x="242" y="4" type="line"/>
			<point x="182" y="-31"/>
			<point x="125" y="-88"/>
			<point x="125" y="-151" type="curve" smooth="yes"/>
			<point x="125" y="-203"/>
			<point x="168" y="-224"/>
		</contour>
		<contour>
			<point name="_ogonekLC" x="240" y="0" type="move"/>
		</contour>
	</outline>
</glyph>
<glyph name="verticallinebelowcmb" format="1">
	<unicode hex="0329"/>
	<advance width="600"/>
	<outline>
		<contour>
			<point x="166" y="-265" type="line"/>
			<point x="208" y="-265" type="line"/>
			<point x="238" y="-75" type="line"/>
			<point x="209" y="-75" type="line"/>
		</contour>
		<contour>
			<point name="_belowLC" x="234" y="-20" type="move"/>
		</contour>
	</outline>
</glyph>
<glyph name="bridgebelowcmb" format="1">
	<unicode hex="032A"/>
	<advance width="600"/>
	<outline>
		<contour>
			<point x="77" y="-229" type="line"/>
			<point x="108" y="-229" type="line"/>
			<point x="130" y="-118" type="line"/>
			<point x="301" y="-118" type="line"/>
			<point x="279" y="-229" type="line"/>
			<point x="310" y="-229" type="line"/>
			<point x="338" y="-85" type="line"/>
			<point x="105" y="-85" type="line"/>
		</contour>
		<contour>
			<point name="_belowLC" x="234" y="-20" type="move"/>
		</contour>
	</outline>
</glyph>
<glyph name="ringhalfrightbelowcmb" format="2">
	<unicode hex="0339"/>
	<advance width="600"/>
	<outline>
		<contour>
			<point x="144" y="-262" type="line"/>
			<point x="214" y="-262"/>
			<point x="271" y="-222"/>
			<point x="271" y="-156" type="curve" smooth="yes"/>
			<point x="271" y="-101"/>
			<point x="226" y="-75"/>
			<point x="180" y="-77" type="curve"/>
			<point x="175" y="-103" type="line"/>
			<point x="213" y="-103"/>
			<point x="239" y="-119"/>
			<point x="239" y="-159" type="curve" smooth="yes"/>
			<point x="239" y="-205"/>
			<point x="201" y="-234"/>
			<point x="148" y="-236" type="curve"/>
		</contour>
	</outline>
	<anchor name="_belowLC" x="234" y="-20"/>
</glyph>
<glyph name="bridgeinvertedbelowcmb" format="2">
	<unicode hex="033A"/>
	<advance width="600"/>
	<outline>
		<contour>
			<point x="77" y="-232" type="line"/>
			<point x="310" y="-232" type="line"/>
			<point x="338" y="-88" type="line"/>
			<point x="307" y="-88" type="line"/>
			<point x="285" y="-198" type="line"/>
			<point x="114" y="-198" type="line"/>
			<point x="136" y="-88" type="line"/>
			<point x="105" y="-88" type="line"/>
		</contour>
	</outline>
	<anchor name="_belowLC" x="234" y="-20"/>
</glyph>
<glyph name="squarebelowcmb" format="2">
	<unicode hex="033B"/>
	<advance width="600"/>
	<outline>
		<contour>
			<point x="76" y="-236" type="line"/>
			<point x="310" y="-236" type="line"/>
			<point x="338" y="-84" type="line"/>
			<point x="105" y="-84" type="line"/>
		</contour>
		<contour>
			<point x="113" y="-204" type="line"/>
			<point x="130" y="-115" type="line"/>
			<point x="302" y="-115" type="line"/>
			<point x="284" y="-204" type="line"/>
		</contour>
	</outline>
	<anchor name="_belowLC" x="234" y="-20"/>
</glyph>
<glyph name="seagullbelowcmb" format="1">
	<unicode hex="033C"/>
	<advance width="600"/>
	<outline>
		<contour>
			<point x="70" y="-227" type="line"/>
			<point x="88" y="-137"/>
			<point x="114" y="-115"/>
			<point x="147" y="-115" type="curve" smooth="yes"/>
			<point x="181" y="-115"/>
			<point x="194" y="-147"/>
			<point x="181" y="-210" type="curve" smooth="yes"/>
			<point x="177" y="-226" type="line"/>
			<point x="210" y="-226" type="line"/>
			<point x="214" y="-210" type="line" smooth="yes"/>
			<point x="226" y="-147"/>
			<point x="251" y="-115"/>
			<point x="284" y="-115" type="curve" smooth="yes"/>
			<point x="318" y="-115"/>
			<point x="336" y="-137"/>
			<point x="318" y="-227" type="curve"/>
			<point x="350" y="-224" type="line"/>
			<point x="370" y="-122"/>
			<point x="346" y="-83"/>
			<point x="293" y="-83" type="curve" smooth="yes"/>
			<point x="261" y="-83"/>
			<point x="229" y="-98"/>
			<point x="212" y="-143" type="curve"/>
			<point x="209" y="-143" type="line"/>
			<point x="210" y="-98"/>
			<point x="184" y="-83"/>
			<point x="152" y="-83" type="curve" smooth="yes"/>
			<point x="99" y="-83"/>
			<point x="58" y="-122"/>
			<point x="39" y="-224" type="curve"/>
		</contour>
		<contour>
			<point name="_belowLC" x="234" y="-20" type="move"/>
		</contour>
	</outline>
</glyph>
<glyph name="tonoscmb" format="2">
	<unicode hex="0341"/>
	<advance width="600"/>
	<outline>
		<contour>
			<point x="325" y="580" type="line"/>
			<point x="489" y="716" type="line"/>
			<point x="462" y="750" type="line"/>
			<point x="304" y="605" type="line"/>
		</contour>
	</outline>
	<anchor name="_aboveLC" x="338" y="502"/>
</glyph>
<glyph name="macrondoublebelowcmb" format="1">
	<unicode hex="035F"/>
	<advance width="600"/>
	<outline>
		<contour>
			<point x="-272" y="-157" type="line"/>
			<point x="686" y="-157" type="line"/>
			<point x="693" y="-124" type="line"/>
			<point x="-265" y="-124" type="line"/>
		</contour>
	</outline>
</glyph>
<glyph name="breveinverteddoublecmb" format="1">
	<unicode hex="0361"/>
	<advance width="600"/>
	<outline>
		<contour>
			<point x="-76" y="609" type="line"/>
			<point x="66" y="688"/>
			<point x="228" y="728"/>
			<point x="384" y="728" type="curve" smooth="yes"/>
			<point x="539" y="728"/>
			<point x="686" y="688"/>
			<point x="796" y="609" type="curve"/>
			<point x="816" y="635" type="line"/>
			<point x="700" y="717"/>
			<point x="564" y="764"/>
			<point x="390" y="764" type="curve" smooth="yes"/>
			<point x="217" y="764"/>
			<point x="63" y="717"/>
			<point x="-85" y="635" type="curve"/>
		</contour>
	</outline>
</glyph>
<glyph name="pi" format="2">
	<unicode hex="03C0"/>
	<advance width="600"/>
	<outline>
		<contour>
			<point x="115" y="-3" type="line"/>
			<point x="155" y="146"/>
			<point x="190" y="302"/>
			<point x="219" y="450" type="curve"/>
			<point x="181" y="451" type="line"/>
			<point x="152" y="306"/>
			<point x="118" y="148"/>
			<point x="74" y="0" type="curve"/>
		</contour>
		<contour>
			<point x="86" y="445" type="line"/>
			<point x="573" y="445" type="line"/>
			<point x="581" y="480" type="line"/>
			<point x="159" y="480" type="line"/>
			<point x="91" y="476" type="line"/>
		</contour>
		<contour>
			<point x="422" y="-12" type="curve" smooth="yes"/>
			<point x="444" y="-12"/>
			<point x="463" y="-6"/>
			<point x="476" y="-1" type="curve"/>
			<point x="467" y="31" type="line"/>
			<point x="456" y="26"/>
			<point x="445" y="22"/>
			<point x="431" y="22" type="curve" smooth="yes"/>
			<point x="411" y="22"/>
			<point x="400" y="34"/>
			<point x="400" y="55" type="curve" smooth="yes"/>
			<point x="400" y="88"/>
			<point x="446" y="297"/>
			<point x="484" y="450" type="curve"/>
			<point x="446" y="450" type="line"/>
			<point x="412" y="304"/>
			<point x="362" y="93"/>
			<point x="362" y="51" type="curve" smooth="yes"/>
			<point x="362" y="8"/>
			<point x="386" y="-12"/>
		</contour>
	</outline>
</glyph>
<glyph name="g.sups" format="2">
	<unicode hex="1D4D"/>
	<advance width="600"/>
	<outline>
		<contour>
			<point x="173" y="330" type="curve"/>
			<point x="152" y="300" type="line"/>
			<point x="182" y="276"/>
			<point x="227" y="257"/>
			<point x="273" y="257" type="curve" smooth="yes"/>
			<point x="363" y="257"/>
			<point x="420" y="298"/>
			<point x="438" y="387" type="curve" smooth="yes"/>
			<point x="504" y="723" type="line"/>
			<point x="472" y="723" type="line"/>
			<point x="462" y="693" type="line"/>
			<point x="460" y="693" type="line"/>
			<point x="435" y="716"/>
			<point x="408" y="731"/>
			<point x="368" y="731" type="curve" smooth="yes"/>
			<point x="278" y="731"/>
			<point x="182" y="647"/>
			<point x="182" y="522" type="curve" smooth="yes"/>
			<point x="182" y="444"/>
			<point x="224" y="400"/>
			<point x="294" y="400" type="curve" smooth="yes"/>
			<point x="338" y="400"/>
			<point x="380" y="420"/>
			<point x="412" y="446" type="curve"/>
			<point x="400" y="390" type="line" smooth="yes"/>
			<point x="384" y="322"/>
			<point x="348" y="290"/>
			<point x="278" y="290" type="curve" smooth="yes"/>
			<point x="238" y="290"/>
			<point x="202" y="305"/>
		</contour>
		<contour>
			<point x="307" y="432" type="curve" smooth="yes"/>
			<point x="252" y="432"/>
			<point x="223" y="472"/>
			<point x="223" y="530" type="curve" smooth="yes"/>
			<point x="223" y="622"/>
			<point x="292" y="699"/>
			<point x="366" y="699" type="curve" smooth="yes"/>
			<point x="399" y="699"/>
			<point x="425" y="688"/>
			<point x="454" y="661" type="curve"/>
			<point x="419" y="482" type="line"/>
			<point x="378" y="450"/>
			<point x="342" y="432"/>
		</contour>
	</outline>
</glyph>
<glyph name="p.sups" format="2">
	<unicode hex="1D56"/>
	<advance width="600"/>
	<outline>
		<contour>
			<point x="168" y="264" type="line"/>
			<point x="207" y="264" type="line"/>
			<point x="229" y="379" type="line"/>
			<point x="239" y="436" type="line"/>
			<point x="267" y="412"/>
			<point x="296" y="398"/>
			<point x="333" y="398" type="curve" smooth="yes"/>
			<point x="431" y="398"/>
			<point x="520" y="479"/>
			<point x="520" y="610" type="curve" smooth="yes"/>
			<point x="520" y="684"/>
			<point x="485" y="731"/>
			<point x="412" y="731" type="curve" smooth="yes"/>
			<point x="364" y="731"/>
			<point x="327" y="709"/>
			<point x="290" y="684" type="curve"/>
			<point x="288" y="684" type="line"/>
			<point x="291" y="723" type="line"/>
			<point x="260" y="723" type="line"/>
		</contour>
		<contour>
			<point x="334" y="431" type="curve" smooth="yes"/>
			<point x="302" y="431"/>
			<point x="276" y="441"/>
			<point x="247" y="470" type="curve"/>
			<point x="283" y="649" type="line"/>
			<point x="328" y="680"/>
			<point x="360" y="698"/>
			<point x="398" y="698" type="curve" smooth="yes"/>
			<point x="456" y="698"/>
			<point x="479" y="659"/>
			<point x="479" y="606" type="curve" smooth="yes"/>
			<point x="479" y="503"/>
			<point x="413" y="431"/>
		</contour>
	</outline>
</glyph>
<glyph name="z.sups" format="2">
	<unicode hex="1DBB"/>
	<advance width="600"/>
	<outline>
		<contour>
			<point x="178" y="406" type="line"/>
			<point x="455" y="406" type="line"/>
			<point x="461" y="438" type="line"/>
			<point x="226" y="438" type="line"/>
			<point x="230" y="428" type="line"/>
			<point x="503" y="702" type="line"/>
			<point x="508" y="723" type="line"/>
			<point x="239" y="723" type="line"/>
			<point x="232" y="693" type="line"/>
			<point x="461" y="693" type="line"/>
			<point x="452" y="698" type="line"/>
			<point x="183" y="426" type="line"/>
		</contour>
	</outline>
</glyph>
<glyph name="figuredash" format="2">
	<unicode hex="2012"/>
	<advance width="600"/>
	<outline>
		<contour>
			<point x="63" y="228" type="line"/>
			<point x="503" y="228" type="line"/>
			<point x="513" y="274" type="line"/>
			<point x="73" y="274" type="line"/>
		</contour>
	</outline>
</glyph>
<glyph name="endash" format="1">
	<unicode hex="2013"/>
	<advance width="600"/>
	<outline>
		<contour>
			<point x="63" y="228" type="line"/>
			<point x="503" y="228" type="line"/>
			<point x="513" y="274" type="line"/>
			<point x="73" y="274" type="line"/>
		</contour>
	</outline>
</glyph>
<glyph name="quoteleft" format="1">
	<unicode hex="2018"/>
	<advance width="600"/>
	<outline>
		<contour>
			<point x="340" y="408" type="curve" smooth="yes"/>
			<point x="377" y="408"/>
			<point x="410" y="440"/>
			<point x="410" y="481" type="curve" smooth="yes"/>
			<point x="410" y="510"/>
			<point x="393" y="531"/>
			<point x="366" y="531" type="curve" smooth="yes"/>
			<point x="342" y="531"/>
			<point x="324" y="520"/>
			<point x="304" y="501" type="curve"/>
			<point x="345" y="437" type="line"/>
			<point x="334" y="506" type="line"/>
			<point x="342" y="586"/>
			<point x="398" y="643"/>
			<point x="483" y="672" type="curve"/>
			<point x="474" y="701" type="line"/>
			<point x="352" y="663"/>
			<point x="280" y="578"/>
			<point x="280" y="481" type="curve" smooth="yes"/>
			<point x="280" y="429"/>
			<point x="308" y="408"/>
		</contour>
	</outline>
</glyph>
<glyph name="quoteright" format="1">
	<unicode hex="2019"/>
	<advance width="600"/>
	<outline>
		<contour>
			<point x="243" y="406" type="line"/>
			<point x="365" y="443"/>
			<point x="435" y="529"/>
			<point x="435" y="627" type="curve" smooth="yes"/>
			<point x="435" y="679"/>
			<point x="408" y="700"/>
			<point x="376" y="700" type="curve" smooth="yes"/>
			<point x="338" y="700"/>
			<point x="305" y="667"/>
			<point x="305" y="627" type="curve" smooth="yes"/>
			<point x="305" y="598"/>
			<point x="322" y="577"/>
			<point x="350" y="577" type="curve" smooth="yes"/>
			<point x="374" y="577"/>
			<point x="391" y="587"/>
			<point x="411" y="607" type="curve"/>
			<point x="370" y="670" type="line"/>
			<point x="382" y="602" type="line"/>
			<point x="374" y="521"/>
			<point x="319" y="465"/>
			<point x="234" y="436" type="curve"/>
		</contour>
	</outline>
</glyph>
<glyph name="guilsinglleft" format="1">
	<unicode hex="2039"/>
	<advance width="600"/>
	<outline>
		<contour>
			<point x="302" y="66" type="line"/>
			<point x="329" y="84" type="line"/>
			<point x="238" y="249" type="line"/>
			<point x="392" y="413" type="line"/>
			<point x="372" y="435" type="line"/>
			<point x="198" y="271" type="line"/>
			<point x="192" y="234" type="line"/>
		</contour>
	</outline>
</glyph>
<glyph name="guilsinglright" format="2">
	<unicode hex="203A"/>
	<advance width="600"/>
	<outline>
		<contour>
			<point x="181" y="67" type="line"/>
			<point x="355" y="231" type="line"/>
			<point x="362" y="267" type="line"/>
			<point x="252" y="435" type="line"/>
			<point x="225" y="418" type="line"/>
			<point x="315" y="253" type="line"/>
			<point x="162" y="88" type="line"/>
		</contour>
	</outline>
</glyph>
<glyph name="interrobang" format="1">
	<unicode hex="203D"/>
	<advance width="600"/>
	<outline>
		<contour>
			<point x="257" y="219" type="curve"/>
			<point x="286" y="219" type="line"/>
			<point x="304" y="385"/>
			<point x="509" y="407"/>
			<point x="509" y="557" type="curve" smooth="yes"/>
			<point x="509" y="627"/>
			<point x="456" y="682"/>
			<point x="361" y="682" type="curve" smooth="yes"/>
			<point x="284" y="682"/>
			<point x="220" y="644"/>
			<point x="175" y="591" type="curve"/>
			<point x="202" y="569" type="line"/>
			<point x="243" y="617"/>
			<point x="290" y="646"/>
			<point x="356" y="646" type="curve" smooth="yes"/>
			<point x="434" y="646"/>
			<point x="467" y="602"/>
			<point x="467" y="548" type="curve" smooth="yes"/>
			<point x="467" y="421"/>
			<point x="271" y="396"/>
		</contour>
		<contour>
			<point x="252" y="219" type="line"/>
			<point x="281" y="219" type="line"/>
			<point x="341" y="479" type="line"/>
			<point x="353" y="545" type="line"/>
			<point x="312" y="545" type="line"/>
			<point x="301" y="479" type="line"/>
		</contour>
		<contour>
			<point x="229" y="-12" type="curve" smooth="yes"/>
			<point x="264" y="-12"/>
			<point x="296" y="24"/>
			<point x="296" y="61" type="curve" smooth="yes"/>
			<point x="296" y="92"/>
			<point x="278" y="112"/>
			<point x="250" y="112" type="curve" smooth="yes"/>
			<point x="214" y="112"/>
			<point x="182" y="76"/>
			<point x="182" y="38" type="curve" smooth="yes"/>
			<point x="182" y="8"/>
			<point x="200" y="-12"/>
		</contour>
	</outline>
</glyph>
<glyph name="overline" format="1">
	<unicode hex="203E"/>
	<advance width="600"/>
	<outline>
		<contour>
			<point x="124" y="572" type="line"/>
			<point x="583" y="572" type="line"/>
			<point x="590" y="609" type="line"/>
			<point x="131" y="609" type="line"/>
		</contour>
	</outline>
</glyph>
<glyph name="undertie" format="1">
	<unicode hex="203F"/>
	<advance width="600"/>
	<outline>
		<contour>
			<point x="190" y="-234" type="curve" smooth="yes"/>
			<point x="357" y="-234"/>
			<point x="507" y="-187"/>
			<point x="650" y="-104" type="curve"/>
			<point x="641" y="-80" type="line"/>
			<point x="504" y="-159"/>
			<point x="347" y="-200"/>
			<point x="197" y="-200" type="curve" smooth="yes"/>
			<point x="46" y="-200"/>
			<point x="-94" y="-159"/>
			<point x="-200" y="-80" type="curve"/>
			<point x="-219" y="-104" type="line"/>
			<point x="-107" y="-187"/>
			<point x="23" y="-234"/>
		</contour>
	</outline>
</glyph>
<glyph name="zero.subs" format="2">
	<unicode hex="2080"/>
	<advance width="600"/>
	<outline>
		<contour>
			<point x="220" y="-184" type="curve" smooth="yes"/>
			<point x="336" y="-184"/>
			<point x="397" y="-33"/>
			<point x="397" y="83" type="curve" smooth="yes"/>
			<point x="397" y="165"/>
			<point x="360" y="230"/>
			<point x="283" y="230" type="curve" smooth="yes"/>
			<point x="167" y="230"/>
			<point x="107" y="79"/>
			<point x="107" y="-36" type="curve" smooth="yes"/>
			<point x="107" y="-118"/>
			<point x="144" y="-184"/>
		</contour>
		<contour>
			<point x="223" y="-153" type="curve" smooth="yes"/>
			<point x="166" y="-153"/>
			<point x="144" y="-99"/>
			<point x="144" y="-31" type="curve" smooth="yes"/>
			<point x="144" y="64"/>
			<point x="190" y="199"/>
			<point x="280" y="199" type="curve" smooth="yes"/>
			<point x="338" y="199"/>
			<point x="360" y="145"/>
			<point x="360" y="77" type="curve" smooth="yes"/>
			<point x="360" y="-17"/>
			<point x="314" y="-153"/>
		</contour>
	</outline>
</glyph>
<glyph name="two.subs" format="2">
	<unicode hex="2082"/>
	<advance width="600"/>
	<outline>
		<contour>
			<point x="103" y="-172" type="line"/>
			<point x="350" y="-172" type="line"/>
			<point x="355" y="-141" type="line"/>
			<point x="165" y="-141" type="line"/>
			<point x="318" y="-28"/>
			<point x="390" y="41"/>
			<point x="390" y="130" type="curve" smooth="yes"/>
			<point x="390" y="191"/>
			<point x="349" y="230"/>
			<point x="283" y="230" type="curve" smooth="yes"/>
			<point x="236" y="230"/>
			<point x="196" y="201"/>
			<point x="164" y="168" type="curve"/>
			<point x="187" y="145" type="line"/>
			<point x="214" y="175"/>
			<point x="246" y="198"/>
			<point x="279" y="198" type="curve" smooth="yes"/>
			<point x="329" y="198"/>
			<point x="353" y="172"/>
			<point x="353" y="126" type="curve" smooth="yes"/>
			<point x="353" y="45"/>
			<point x="286" y="-15"/>
			<point x="108" y="-144" type="curve"/>
		</contour>
	</outline>
</glyph>
<glyph name="colonmonetary" format="2">
	<unicode hex="20A1"/>
	<advance width="600"/>
	<outline>
		<contour>
			<point x="283" y="-12" type="curve" smooth="yes"/>
			<point x="370" y="-12"/>
			<point x="435" y="30"/>
			<point x="491" y="89" type="curve"/>
			<point x="465" y="116" type="line"/>
			<point x="413" y="58"/>
			<point x="356" y="25"/>
			<point x="292" y="25" type="curve" smooth="yes"/>
			<point x="193" y="25"/>
			<point x="138" y="108"/>
			<point x="138" y="235" type="curve" smooth="yes"/>
			<point x="138" y="452"/>
			<point x="264" y="616"/>
			<point x="417" y="616" type="curve" smooth="yes"/>
			<point x="480" y="616"/>
			<point x="511" y="586"/>
			<point x="545" y="533" type="curve"/>
			<point x="574" y="553" type="line"/>
			<point x="543" y="606"/>
			<point x="499" y="652"/>
			<point x="419" y="652" type="curve" smooth="yes"/>
			<point x="242" y="652"/>
			<point x="95" y="480"/>
			<point x="95" y="234" type="curve" smooth="yes"/>
			<point x="95" y="85"/>
			<point x="165" y="-12"/>
		</contour>
		<contour>
			<point x="132" y="-110" type="line"/>
			<point x="162" y="-110" type="line"/>
			<point x="436" y="750" type="line"/>
			<point x="405" y="750" type="line"/>
		</contour>
		<contour>
			<point x="231" y="-110" type="line"/>
			<point x="261" y="-110" type="line"/>
			<point x="535" y="750" type="line"/>
			<point x="504" y="750" type="line"/>
		</contour>
	</outline>
</glyph>
<glyph name="won" format="1">
	<unicode hex="20A9"/>
	<advance width="600"/>
	<outline>
		<contour>
			<point x="116" y="0" type="line"/>
			<point x="164" y="0" type="line"/>
			<point x="279" y="337" type="line"/>
			<point x="356" y="562" type="line"/>
			<point x="359" y="562" type="line"/>
			<point x="345" y="337" type="line"/>
			<point x="326" y="0" type="line"/>
			<point x="378" y="0" type="line"/>
			<point x="591" y="639" type="line"/>
			<point x="550" y="639" type="line"/>
			<point x="450" y="317" type="line"/>
			<point x="362" y="37" type="line"/>
			<point x="358" y="37" type="line"/>
			<point x="376" y="317" type="line"/>
			<point x="390" y="599" type="line"/>
			<point x="341" y="599" type="line"/>
			<point x="243" y="317" type="line"/>
			<point x="149" y="37" type="line"/>
			<point x="145" y="37" type="line"/>
			<point x="171" y="317" type="line"/>
			<point x="198" y="639" type="line"/>
			<point x="154" y="639" type="line"/>
		</contour>
		<contour>
			<point x="64" y="313" type="line"/>
			<point x="547" y="313" type="line"/>
			<point x="553" y="341" type="line"/>
			<point x="149" y="341" type="line"/>
			<point x="70" y="337" type="line"/>
		</contour>
	</outline>
</glyph>
<glyph name="tenge" format="1">
	<unicode hex="20B8"/>
	<advance width="600"/>
	<outline>
		<contour>
			<point x="221" y="0" type="line"/>
			<point x="264" y="0" type="line"/>
			<point x="363" y="496" type="line"/>
			<point x="546" y="496" type="line"/>
			<point x="552" y="529" type="line"/>
			<point x="211" y="529" type="line"/>
			<point x="142" y="525" type="line"/>
			<point x="136" y="496" type="line"/>
			<point x="320" y="496" type="line"/>
		</contour>
		<contour>
			<point x="157" y="606" type="line"/>
			<point x="568" y="606" type="line"/>
			<point x="575" y="639" type="line"/>
			<point x="164" y="639" type="line"/>
		</contour>
	</outline>
</glyph>
<glyph name="careof" format="2">
	<unicode hex="2105"/>
	<advance width="600"/>
	<outline>
		<contour>
			<point x="119" y="326" type="curve" smooth="yes"/>
			<point x="154" y="326"/>
			<point x="189" y="340"/>
			<point x="216" y="362" type="curve"/>
			<point x="200" y="387" type="line"/>
			<point x="177" y="368"/>
			<point x="150" y="358"/>
			<point x="123" y="358" type="curve" smooth="yes"/>
			<point x="84" y="358"/>
			<point x="37" y="383"/>
			<point x="37" y="461" type="curve" smooth="yes"/>
			<point x="37" y="542"/>
			<point x="98" y="618"/>
			<point x="165" y="618" type="curve" smooth="yes"/>
			<point x="193" y="618"/>
			<point x="218" y="604"/>
			<point x="237" y="577" type="curve"/>
			<point x="263" y="597" type="line"/>
			<point x="241" y="627"/>
			<point x="212" y="649"/>
			<point x="166" y="649" type="curve" smooth="yes"/>
			<point x="76" y="649"/>
			<point x="1" y="558"/>
			<point x="1" y="455" type="curve" smooth="yes"/>
			<point x="1" y="364"/>
			<point x="59" y="326"/>
		</contour>
		<component base="fraction" xOffset="1"/>
		<component base="zero.dnom" xOffset="138"/>
	</outline>
</glyph>
<glyph name="numero" format="2">
	<unicode hex="2116"/>
	<advance width="600"/>
	<outline>
		<contour>
			<point x="-28" y="-12" type="curve" smooth="yes"/>
			<point x="5" y="-12"/>
			<point x="27" y="11"/>
			<point x="37" y="65" type="curve" smooth="yes"/>
			<point x="76" y="261" type="line" smooth="yes"/>
			<point x="99" y="375"/>
			<point x="111" y="453"/>
			<point x="134" y="585" type="curve"/>
			<point x="138" y="585" type="line"/>
			<point x="158" y="407" type="line"/>
			<point x="204" y="0" type="line"/>
			<point x="256" y="0" type="line"/>
			<point x="370" y="575" type="line" smooth="yes"/>
			<point x="376" y="605"/>
			<point x="391" y="615"/>
			<point x="409" y="615" type="curve"/>
			<point x="409" y="649" type="line"/>
			<point x="404" y="651"/>
			<point x="399" y="651"/>
			<point x="396" y="651" type="curve" smooth="yes"/>
			<point x="364" y="651"/>
			<point x="342" y="628"/>
			<point x="332" y="574" type="curve" smooth="yes"/>
			<point x="293" y="378" type="line" smooth="yes"/>
			<point x="270" y="265"/>
			<point x="258" y="186"/>
			<point x="235" y="54" type="curve"/>
			<point x="231" y="54" type="line"/>
			<point x="211" y="232" type="line"/>
			<point x="165" y="639" type="line"/>
			<point x="113" y="639" type="line"/>
			<point x="-1" y="65" type="line" smooth="yes"/>
			<point x="-7" y="34"/>
			<point x="-22" y="24"/>
			<point x="-40" y="24" type="curve"/>
			<point x="-40" y="-10" type="line"/>
			<point x="-35" y="-12"/>
			<point x="-30" y="-12"/>
		</contour>
		<contour>
			<point x="488" y="280" type="curve" smooth="yes"/>
			<point x="565" y="280"/>
			<point x="623" y="370"/>
			<point x="623" y="485" type="curve" smooth="yes"/>
			<point x="623" y="556"/>
			<point x="590" y="595"/>
			<point x="538" y="595" type="curve" smooth="yes"/>
			<point x="460" y="595"/>
			<point x="402" y="506"/>
			<point x="402" y="391" type="curve" smooth="yes"/>
			<point x="402" y="320"/>
			<point x="435" y="280"/>
		</contour>
		<contour>
			<point x="493" y="313" type="curve" smooth="yes"/>
			<point x="456" y="313"/>
			<point x="438" y="344"/>
			<point x="438" y="396" type="curve" smooth="yes"/>
			<point x="438" y="480"/>
			<point x="479" y="562"/>
			<point x="532" y="562" type="curve" smooth="yes"/>
			<point x="569" y="562"/>
			<point x="587" y="531"/>
			<point x="587" y="480" type="curve" smooth="yes"/>
			<point x="587" y="395"/>
			<point x="546" y="313"/>
		</contour>
		<contour>
			<point x="378" y="183" type="line"/>
			<point x="545" y="183" type="line"/>
			<point x="552" y="216" type="line"/>
			<point x="385" y="216" type="line"/>
		</contour>
	</outline>
</glyph>
<glyph name="onetenth" format="2">
	<unicode hex="2152"/>
	<advance width="600"/>
	<outline>
		<contour>
			<point x="195" y="402" type="line"/>
			<point x="230" y="402" type="line"/>
			<point x="279" y="641" type="line"/>
			<point x="250" y="641" type="line"/>
			<point x="223" y="626"/>
			<point x="197" y="617"/>
			<point x="157" y="610" type="curve"/>
			<point x="151" y="582" type="line"/>
			<point x="232" y="582" type="line"/>
		</contour>
		<contour>
			<point x="108" y="281" type="line"/>
			<point x="595" y="454" type="line"/>
			<point x="583" y="489" type="line"/>
			<point x="100" y="303" type="line"/>
		</contour>
		<contour>
			<point x="117" y="0" type="line"/>
			<point x="152" y="0" type="line"/>
			<point x="201" y="239" type="line"/>
			<point x="172" y="239" type="line"/>
			<point x="144" y="225"/>
			<point x="119" y="215"/>
			<point x="78" y="208" type="curve"/>
			<point x="72" y="180" type="line"/>
			<point x="154" y="180" type="line"/>
		</contour>
		<contour>
			<point x="363" y="-12" type="curve" smooth="yes"/>
			<point x="445" y="-12"/>
			<point x="503" y="55"/>
			<point x="503" y="152" type="curve" smooth="yes"/>
			<point x="503" y="212"/>
			<point x="471" y="250"/>
			<point x="416" y="250" type="curve" smooth="yes"/>
			<point x="334" y="250"/>
			<point x="275" y="182"/>
			<point x="275" y="86" type="curve" smooth="yes"/>
			<point x="275" y="28"/>
			<point x="308" y="-12"/>
		</contour>
		<contour>
			<point x="310" y="91" type="curve" smooth="yes"/>
			<point x="310" y="169"/>
			<point x="356" y="220"/>
			<point x="411" y="220" type="curve" smooth="yes"/>
			<point x="448" y="220"/>
			<point x="468" y="193"/>
			<point x="468" y="146" type="curve" smooth="yes"/>
			<point x="468" y="67"/>
			<point x="423" y="18"/>
			<point x="368" y="18" type="curve" smooth="yes"/>
			<point x="332" y="18"/>
			<point x="310" y="44"/>
		</contour>
	</outline>
</glyph>
<glyph name="arrowright" format="1">
	<unicode hex="2192"/>
	<advance width="600"/>
	<outline>
		<contour>
			<point x="310" y="-14" type="line"/>
			<point x="579" y="250" type="line"/>
			<point x="579" y="254" type="line"/>
			<point x="310" y="518" type="line"/>
			<point x="285" y="493" type="line"/>
			<point x="519" y="270" type="line"/>
			<point x="28" y="270" type="line"/>
			<point x="28" y="234" type="line"/>
			<point x="519" y="234" type="line"/>
			<point x="285" y="11" type="line"/>
		</contour>
	</outline>
</glyph>
<glyph name="arrowupright" format="1">
	<unicode hex="2197"/>
	<advance width="600"/>
	<outline>
		<contour>
			<point x="118" y="43" type="line"/>
			<point x="465" y="390" type="line"/>
			<point x="458" y="68" type="line"/>
			<point x="493" y="67" type="line"/>
			<point x="496" y="444" type="line"/>
			<point x="493" y="447" type="line"/>
			<point x="116" y="444" type="line"/>
			<point x="117" y="408" type="line"/>
			<point x="439" y="416" type="line"/>
			<point x="93" y="70" type="line"/>
		</contour>
	</outline>
</glyph>
<glyph name="arrowdownright" format="2">
	<unicode hex="2198"/>
	<advance width="600"/>
	<outline>
		<contour>
			<point x="497" y="56" type="line"/>
			<point x="500" y="59" type="line"/>
			<point x="496" y="436" type="line"/>
			<point x="461" y="435" type="line"/>
			<point x="468" y="114" type="line"/>
			<point x="121" y="460" type="line"/>
			<point x="97" y="434" type="line"/>
			<point x="443" y="87" type="line"/>
			<point x="121" y="95" type="line"/>
			<point x="120" y="59" type="line"/>
		</contour>
	</outline>
</glyph>
<glyph name="arrowupdnbse" format="1">
	<unicode hex="21A8"/>
	<advance width="600"/>
	<outline>
		<contour>
			<point x="60" y="-116" type="line"/>
			<point x="540" y="-116" type="line"/>
			<point x="540" y="-80" type="line"/>
			<point x="60" y="-80" type="line"/>
		</contour>
		<component base="arrowupdn"/>
	</outline>
</glyph>
<glyph name="arrowdblup" format="1">
	<unicode hex="21D1"/>
	<advance width="600"/>
	<outline>
		<contour>
			<point x="59" y="233" type="line"/>
			<point x="298" y="482" type="line"/>
			<point x="302" y="482" type="line"/>
			<point x="541" y="233" type="line"/>
			<point x="566" y="257" type="line"/>
			<point x="302" y="526" type="line"/>
			<point x="298" y="526" type="line"/>
			<point x="34" y="257" type="line"/>
		</contour>
		<contour>
			<point x="381" y="-24" type="line"/>
			<point x="415" y="-24" type="line"/>
			<point x="415" y="407" type="line"/>
			<point x="381" y="407" type="line"/>
		</contour>
		<contour>
			<point x="185" y="-24" type="line"/>
			<point x="219" y="-24" type="line"/>
			<point x="219" y="407" type="line"/>
			<point x="185" y="407" type="line"/>
		</contour>
	</outline>
</glyph>
<glyph name="arrowdblright" format="1">
	<unicode hex="21D2"/>
	<advance width="600"/>
	<outline>
		<contour>
			<point x="310" y="-14" type="line"/>
			<point x="579" y="250" type="line"/>
			<point x="579" y="254" type="line"/>
			<point x="310" y="518" type="line"/>
			<point x="285" y="493" type="line"/>
			<point x="536" y="254" type="line"/>
			<point x="536" y="250" type="line"/>
			<point x="285" y="11" type="line"/>
		</contour>
		<contour>
			<point x="28" y="137" type="line"/>
			<point x="460" y="137" type="line"/>
			<point x="460" y="171" type="line"/>
			<point x="28" y="171" type="line"/>
		</contour>
		<contour>
			<point x="28" y="333" type="line"/>
			<point x="460" y="333" type="line"/>
			<point x="460" y="367" type="line"/>
			<point x="28" y="367" type="line"/>
		</contour>
	</outline>
</glyph>
<glyph name="arrowdbldown" format="1">
	<unicode hex="21D3"/>
	<advance width="600"/>
	<outline>
		<contour>
			<point x="298" y="-24" type="line"/>
			<point x="302" y="-24" type="line"/>
			<point x="566" y="245" type="line"/>
			<point x="541" y="270" type="line"/>
			<point x="302" y="20" type="line"/>
			<point x="298" y="20" type="line"/>
			<point x="59" y="270" type="line"/>
			<point x="34" y="245" type="line"/>
		</contour>
		<contour>
			<point x="185" y="95" type="line"/>
			<point x="219" y="95" type="line"/>
			<point x="219" y="526" type="line"/>
			<point x="185" y="526" type="line"/>
		</contour>
		<contour>
			<point x="381" y="95" type="line"/>
			<point x="415" y="95" type="line"/>
			<point x="415" y="526" type="line"/>
			<point x="381" y="526" type="line"/>
		</contour>
	</outline>
</glyph>
<glyph name="partialdiff" format="2">
	<unicode hex="2202"/>
	<advance width="600"/>
	<outline>
		<contour>
			<point x="206" y="-12" type="curve" smooth="yes"/>
			<point x="389" y="-12"/>
			<point x="536" y="202"/>
			<point x="536" y="462" type="curve" smooth="yes"/>
			<point x="536" y="613"/>
			<point x="469" y="672"/>
			<point x="382" y="672" type="curve" smooth="yes"/>
			<point x="327" y="672"/>
			<point x="272" y="651"/>
			<point x="230" y="613" type="curve"/>
			<point x="249" y="586" type="line"/>
			<point x="286" y="618"/>
			<point x="327" y="636"/>
			<point x="379" y="636" type="curve" smooth="yes"/>
			<point x="442" y="636"/>
			<point x="495" y="588"/>
			<point x="495" y="461" type="curve" smooth="yes"/>
			<point x="495" y="245"/>
			<point x="375" y="25"/>
			<point x="211" y="25" type="curve" smooth="yes"/>
			<point x="137" y="25"/>
			<point x="99" y="78"/>
			<point x="99" y="152" type="curve" smooth="yes"/>
			<point x="99" y="260"/>
			<point x="177" y="362"/>
			<point x="315" y="362" type="curve" smooth="yes"/>
			<point x="386" y="362"/>
			<point x="432" y="323"/>
			<point x="474" y="259" type="curve"/>
			<point x="485" y="299" type="line"/>
			<point x="452" y="351"/>
			<point x="394" y="397"/>
			<point x="315" y="397" type="curve" smooth="yes"/>
			<point x="163" y="397"/>
			<point x="57" y="290"/>
			<point x="57" y="145" type="curve" smooth="yes"/>
			<point x="57" y="45"/>
			<point x="118" y="-12"/>
		</contour>
	</outline>
</glyph>
<glyph name="existential" format="2">
	<unicode hex="2203"/>
	<advance width="600"/>
	<outline>
		<contour>
			<point x="-6" y="0" type="line"/>
			<point x="395" y="0" type="line"/>
			<point x="527" y="659" type="line"/>
			<point x="138" y="659" type="line"/>
			<point x="130" y="622" type="line"/>
			<point x="478" y="622" type="line"/>
			<point x="425" y="368" type="line"/>
			<point x="135" y="368" type="line"/>
			<point x="127" y="331" type="line"/>
			<point x="419" y="331" type="line"/>
			<point x="360" y="37" type="line"/>
			<point x="2" y="37" type="line"/>
		</contour>
	</outline>
</glyph>
<glyph name="summation" format="2">
	<unicode hex="2211"/>
	<advance width="600"/>
	<outline>
		<contour>
			<point x="68" y="-120" type="line"/>
			<point x="535" y="-120" type="line"/>
			<point x="535" y="-83" type="line"/>
			<point x="122" y="-83" type="line"/>
			<point x="122" y="-79" type="line"/>
			<point x="375" y="262" type="line"/>
			<point x="134" y="599" type="line"/>
			<point x="133" y="603" type="line"/>
			<point x="504" y="603" type="line"/>
			<point x="504" y="639" type="line"/>
			<point x="80" y="639" type="line"/>
			<point x="80" y="608" type="line"/>
			<point x="326" y="260" type="line"/>
			<point x="68" y="-88" type="line"/>
		</contour>
	</outline>
</glyph>
<glyph name="infinity" format="1">
	<unicode hex="221E"/>
	<advance width="600"/>
	<outline>
		<contour>
			<point x="453" y="169" type="curve" smooth="yes"/>
			<point x="540" y="169"/>
			<point x="598" y="240"/>
			<point x="598" y="333" type="curve" smooth="yes"/>
			<point x="598" y="427"/>
			<point x="538" y="492"/>
			<point x="450" y="492" type="curve" smooth="yes"/>
			<point x="376" y="492"/>
			<point x="323" y="435"/>
			<point x="285" y="365" type="curve"/>
			<point x="281" y="365" type="line"/>
			<point x="251" y="421"/>
			<point x="206" y="476"/>
			<point x="138" y="476" type="curve" smooth="yes"/>
			<point x="64" y="476"/>
			<point x="2" y="419"/>
			<point x="2" y="329" type="curve" smooth="yes"/>
			<point x="2" y="246"/>
			<point x="62" y="184"/>
			<point x="130" y="184" type="curve" smooth="yes"/>
			<point x="203" y="184"/>
			<point x="250" y="247"/>
			<point x="278" y="293" type="curve"/>
			<point x="282" y="293" type="line"/>
			<point x="333" y="213"/>
			<point x="379" y="169"/>
		</contour>
		<contour>
			<point x="136" y="219" type="curve" smooth="yes"/>
			<point x="84" y="219"/>
			<point x="40" y="265"/>
			<point x="40" y="331" type="curve" smooth="yes"/>
			<point x="40" y="398"/>
			<point x="80" y="434"/>
			<point x="135" y="434" type="curve" smooth="yes"/>
			<point x="181" y="434"/>
			<point x="219" y="402"/>
			<point x="260" y="326" type="curve"/>
			<point x="228" y="260"/>
			<point x="187" y="219"/>
		</contour>
		<contour>
			<point x="454" y="211" type="curve" smooth="yes"/>
			<point x="400" y="211"/>
			<point x="356" y="239"/>
			<point x="302" y="334" type="curve"/>
			<point x="348" y="420"/>
			<point x="392" y="457"/>
			<point x="446" y="457" type="curve" smooth="yes"/>
			<point x="519" y="457"/>
			<point x="560" y="402"/>
			<point x="560" y="331" type="curve" smooth="yes"/>
			<point x="560" y="266"/>
			<point x="522" y="211"/>
		</contour>
	</outline>
</glyph>
<glyph name="orthogonal" format="2">
	<unicode hex="221F"/>
	<advance width="600"/>
	<outline>
		<contour>
			<point x="96" y="110" type="line"/>
			<point x="504" y="110" type="line"/>
			<point x="504" y="146" type="line"/>
			<point x="134" y="146" type="line"/>
			<point x="134" y="550" type="line"/>
			<point x="96" y="550" type="line"/>
		</contour>
	</outline>
</glyph>
<glyph name="notequal" format="2">
	<unicode hex="2260"/>
	<advance width="600"/>
	<outline>
		<contour>
			<point x="128" y="82" type="line"/>
			<point x="168" y="82" type="line"/>
			<point x="247" y="211" type="line"/>
			<point x="504" y="211" type="line"/>
			<point x="504" y="246" type="line"/>
			<point x="268" y="246" type="line"/>
			<point x="372" y="414" type="line"/>
			<point x="504" y="414" type="line"/>
			<point x="504" y="449" type="line"/>
			<point x="393" y="449" type="line"/>
			<point x="472" y="578" type="line"/>
			<point x="432" y="578" type="line"/>
			<point x="353" y="449" type="line"/>
			<point x="96" y="449" type="line"/>
			<point x="96" y="414" type="line"/>
			<point x="332" y="414" type="line"/>
			<point x="228" y="246" type="line"/>
			<point x="96" y="246" type="line"/>
			<point x="96" y="211" type="line"/>
			<point x="207" y="211" type="line"/>
		</contour>
	</outline>
</glyph>
<glyph name="greaterequal" format="1">
	<unicode hex="2265"/>
	<advance width="600"/>
	<outline>
		<contour>
			<point x="96" y="0" type="line"/>
			<point x="504" y="0" type="line"/>
			<point x="504" y="36" type="line"/>
			<point x="96" y="36" type="line"/>
		</contour>
		<contour>
			<point x="96" y="152" type="line"/>
			<point x="504" y="312" type="line"/>
			<point x="504" y="357" type="line"/>
			<point x="96" y="516" type="line"/>
			<point x="96" y="476" type="line"/>
			<point x="329" y="387" type="line"/>
			<point x="462" y="337" type="line"/>
			<point x="462" y="333" type="line"/>
			<point x="329" y="282" type="line"/>
			<point x="96" y="193" type="line"/>
		</contour>
	</outline>
</glyph>
<glyph name="ceilingleft" format="2">
	<unicode hex="231C"/>
	<advance width="600"/>
	<outline>
		<contour>
			<point x="168" y="0" type="line"/>
			<point x="203" y="0" type="line"/>
			<point x="338" y="680" type="line"/>
			<point x="565" y="680" type="line"/>
			<point x="570" y="708" type="line"/>
			<point x="310" y="708" type="line"/>
		</contour>
	</outline>
</glyph>
<glyph name="floorright" format="1">
	<unicode hex="231F"/>
	<advance width="600"/>
	<outline>
		<contour>
			<point x="36" y="-49" type="line"/>
			<point x="296" y="-49" type="line"/>
			<point x="434" y="639" type="line"/>
			<point x="399" y="639" type="line"/>
			<point x="268" y="-21" type="line"/>
			<point x="41" y="-21" type="line"/>
		</contour>
	</outline>
</glyph>
<glyph name="integraltp" format="1">
	<unicode hex="2320"/>
	<advance width="600"/>
	<outline>
		<contour>
			<point x="321" y="-400" type="line"/>
			<point x="321" y="573" type="line"/>
			<point x="321" y="682"/>
			<point x="331" y="752"/>
			<point x="389" y="752" type="curve" smooth="yes"/>
			<point x="403" y="752"/>
			<point x="415" y="750"/>
			<point x="423" y="748" type="curve"/>
			<point x="430" y="782" type="line"/>
			<point x="423" y="786"/>
			<point x="406" y="788"/>
			<point x="390" y="788" type="curve" smooth="yes"/>
			<point x="301" y="788"/>
			<point x="282" y="693"/>
			<point x="282" y="571" type="curve"/>
			<point x="282" y="-400" type="line"/>
		</contour>
	</outline>
</glyph>
<glyph name="integralbt" format="1">
	<unicode hex="2321"/>
	<advance width="600"/>
	<outline>
		<contour>
			<point x="213" y="-158" type="curve" smooth="yes"/>
			<point x="300" y="-158"/>
			<point x="321" y="-64"/>
			<point x="321" y="60" type="curve"/>
			<point x="321" y="1000" type="line"/>
			<point x="282" y="1000" type="line"/>
			<point x="282" y="56" type="line"/>
			<point x="282" y="-54"/>
			<point x="271" y="-122"/>
			<point x="212" y="-122" type="curve" smooth="yes"/>
			<point x="198" y="-122"/>
			<point x="186" y="-120"/>
			<point x="178" y="-118" type="curve"/>
			<point x="171" y="-152" type="line"/>
			<point x="180" y="-156"/>
			<point x="195" y="-158"/>
		</contour>
	</outline>
</glyph>
<glyph name="lighthorzbxd" format="1">
	<unicode hex="2500"/>
	<advance width="600"/>
	<outline>
		<contour>
			<point x="-22" y="279" type="line"/>
			<point x="622" y="279" type="line"/>
			<point x="622" y="322" type="line"/>
			<point x="-22" y="322" type="line"/>
		</contour>
	</outline>
</glyph>
<glyph name="lighttrpldashhorzbxd" format="1">
	<unicode hex="2504"/>
	<advance width="600"/>
	<outline>
		<contour>
			<point x="433" y="279" type="line"/>
			<point x="567" y="279" type="line"/>
			<point x="567" y="322" type="line"/>
			<point x="433" y="322" type="line"/>
		</contour>
		<contour>
			<point x="233" y="279" type="line"/>
			<point x="367" y="279" type="line"/>
			<point x="367" y="322" type="line"/>
			<point x="233" y="322" type="line"/>
		</contour>
		<contour>
			<point x="33" y="279" type="line"/>
			<point x="167" y="279" type="line"/>
			<point x="167" y="322" type="line"/>
			<point x="33" y="322" type="line"/>
		</contour>
	</outline>
</glyph>
<glyph name="heavytrpldashvertbxd" format="1">
	<unicode hex="2507"/>
	<advance width="600"/>
	<outline>
		<contour>
			<point x="257" y="567" type="line"/>
			<point x="343" y="567" type="line"/>
			<point x="343" y="833" type="line"/>
			<point x="257" y="833" type="line"/>
		</contour>
		<contour>
			<point x="257" y="167" type="line"/>
			<point x="343" y="167" type="line"/>
			<point x="343" y="433" type="line"/>
			<point x="257" y="433" type="line"/>
		</contour>
		<contour>
			<point x="257" y="-233" type="line"/>
			<point x="343" y="-233" type="line"/>
			<point x="343" y="33" type="line"/>
			<point x="257" y="33" type="line"/>
		</contour>
	</outline>
</glyph>
<glyph name="lightquaddashhorzbxd" format="2">
	<unicode hex="2508"/>
	<advance width="600"/>
	<outline>
		<contour>
			<point x="469" y="278" type="line"/>
			<point x="581" y="278" type="line"/>
			<point x="581" y="322" type="line"/>
			<point x="469" y="322" type="line"/>
		</contour>
		<contour>
			<point x="319" y="278" type="line"/>
			<point x="431" y="278" type="line"/>
			<point x="431" y="322" type="line"/>
			<point x="319" y="322" type="line"/>
		</contour>
		<contour>
			<point x="169" y="278" type="line"/>
			<point x="281" y="278" type="line"/>
			<point x="281" y="322" type="line"/>
			<point x="169" y="322" type="line"/>
		</contour>
		<contour>
			<point x="19" y="278" type="line"/>
			<point x="131" y="278" type="line"/>
			<point x="131" y="322" type="line"/>
			<point x="19" y="322" type="line"/>
		</contour>
	</outline>
</glyph>
<glyph name="dnlightleftheavybxd" format="2">
	<unicode hex="2511"/>
	<advance width="600"/>
	<outline>
		<contour>
			<point x="322" y="-400" type="line"/>
			<point x="322" y="343" type="line"/>
			<point x="-22" y="343" type="line"/>
			<point x="-22" y="257" type="line"/>
			<point x="278" y="257" type="line"/>
			<point x="278" y="-400" type="line"/>
		</contour>
	</outline>
</glyph>
<glyph name="heavydnleftbxd" format="1">
	<unicode hex="2513"/>
	<advance width="600"/>
	<outline>
		<contour>
			<point x="343" y="-400" type="line"/>
			<point x="343" y="343" type="line"/>
			<point x="-22" y="343" type="line"/>
			<point x="-22" y="257" type="line"/>
			<point x="257" y="257" type="line"/>
			<point x="257" y="-400" type="line"/>
		</contour>
	</outline>
</glyph>
<glyph name="uplightleftheavybxd" format="1">
	<unicode hex="2519"/>
	<advance width="600"/>
	<outline>
		<contour>
			<point x="322" y="257" type="line"/>
			<point x="322" y="1000" type="line"/>
			<point x="279" y="1000" type="line"/>
			<point x="279" y="343" type="line"/>
			<point x="-22" y="343" type="line"/>
			<point x="-22" y="257" type="line"/>
		</contour>
	</outline>
</glyph>
<glyph name="dnheavyrightuplightbxd" format="1">
	<unicode hex="251F"/>
	<advance width="600"/>
	<outline>
		<contour>
			<point x="622" y="279" type="line"/>
			<point x="622" y="322" type="line"/>
			<point x="322" y="322" type="line"/>
			<point x="322" y="1000" type="line"/>
			<point x="279" y="1000" type="line"/>
			<point x="279" y="322" type="line"/>
			<point x="257" y="322" type="line"/>
			<point x="257" y="-400" type="line"/>
			<point x="343" y="-400" type="line"/>
			<point x="343" y="279" type="line"/>
		</contour>
	</outline>
</glyph>
<glyph name="vertheavyleftlightbxd" format="1">
	<unicode hex="2528"/>
	<advance width="600"/>
	<outline>
		<contour>
			<point x="343" y="-400" type="line"/>
			<point x="343" y="1000" type="line"/>
			<point x="257" y="1000" type="line"/>
			<point x="257" y="322" type="line"/>
			<point x="-22" y="322" type="line"/>
			<point x="-22" y="279" type="line"/>
			<point x="257" y="279" type="line"/>
			<point x="257" y="-400" type="line"/>
		</contour>
	</outline>
</glyph>
<glyph name="dnheavyuphorzlightbxd" format="2">
	<unicode hex="2541"/>
	<advance width="600"/>
	<outline>
		<contour>
			<point x="622" y="278" type="line"/>
			<point x="622" y="322" type="line"/>
			<point x="322" y="322" type="line"/>
			<point x="322" y="1000" type="line"/>
			<point x="278" y="1000" type="line"/>
			<point x="278" y="322" type="line"/>
			<point x="-22" y="322" type="line"/>
			<point x="-22" y="278" type="line"/>
			<point x="257" y="278" type="line"/>
			<point x="257" y="-400" type="line"/>
			<point x="343" y="-400" type="line"/>
			<point x="343" y="278" type="line"/>
		</contour>
	</outline>
</glyph>
<glyph name="leftdnheavyrightuplightbxd" format="1">
	<unicode hex="2545"/>
	<advance width="600"/>
	<outline>
		<contour>
			<point x="343" y="-400" type="line"/>
			<point x="343" y="279" type="line"/>
			<point x="622" y="279" type="line"/>
			<point x="622" y="322" type="line"/>
			<point x="343" y="322" type="line"/>
			<point x="343" y="343" type="line"/>
			<point x="322" y="343" type="line"/>
			<point x="322" y="1000" type="line"/>
			<point x="279" y="1000" type="line"/>
			<point x="279" y="343" type="line"/>
			<point x="-22" y="343" type="line"/>
			<point x="-22" y="257" type="line"/>
			<point x="257" y="257" type="line"/>
			<point x="257" y="-400" type="line"/>
		</contour>
	</outline>
</glyph>
<glyph name="heavyverthorzbxd" format="1">
	<unicode hex="254B"/>
	<advance width="600"/>
	<outline>
		<contour>
			<point x="622" y="257" type="line"/>
			<point x="622" y="343" type="line"/>
			<point x="343" y="343" type="line"/>
			<point x="343" y="1000" type="line"/>
			<point x="257" y="1000" type="line"/>
			<point x="257" y="343" type="line"/>
			<point x="-22" y="343" type="line"/>
			<point x="-22" y="257" type="line"/>
			<point x="257" y="257" type="line"/>
			<point x="257" y="-400" type="line"/>
			<point x="343" y="-400" type="line"/>
			<point x="343" y="257" type="line"/>
		</contour>
	</outline>
</glyph>
<glyph name="heavydbldashvertbxd" format="2">
	<unicode hex="254F"/>
	<advance width="600"/>
	<outline>
		<contour>
			<point x="257" y="450" type="line"/>
			<point x="343" y="450" type="line"/>
			<point x="343" y="750" type="line"/>
			<point x="257" y="750" type="line"/>
		</contour>
		<contour>
			<point x="257" y="-150" type="line"/>
			<point x="343" y="-150" type="line"/>
			<point x="343" y="150" type="line"/>
			<point x="257" y="150" type="line"/>
		</contour>
	</outline>
</glyph>
